<?xml version="1.0" encoding="UTF-8" standalone="no"?>
<svg
   xmlns:dc="http://purl.org/dc/elements/1.1/"
   xmlns:cc="http://creativecommons.org/ns#"
   xmlns:rdf="http://www.w3.org/1999/02/22-rdf-syntax-ns#"
   xmlns:svg="http://www.w3.org/2000/svg"
   xmlns="http://www.w3.org/2000/svg"
   viewBox="0 0 414.92001 502.23999"
   height="502.23999"
   width="414.92001"
   xml:space="preserve"
   id="svg2"
   version="1.1"><metadata
     id="metadata8"><rdf:RDF><cc:Work
         rdf:about=""><dc:format>image/svg+xml</dc:format><dc:type
           rdf:resource="http://purl.org/dc/dcmitype/StillImage" /></cc:Work></rdf:RDF></metadata><defs
     id="defs6" /><g
     transform="matrix(1.3333333,0,0,-1.3333333,0,502.24)"
     id="g10"><g
       transform="scale(0.1)"
       id="g12"><path
         id="path14"
         style="fill:#ffffff;fill-opacity:1;fill-rule:nonzero;stroke:none"
         d="m 2708.02,2051.16 c -229.93,167.97 -346.22,370.94 -336.3,586.99 12.55,273.53 221.93,557.59 560.05,759.85 10.12,6.06 15.03,18.05 12.07,29.46 -2.95,11.4 -12.66,19.38 -24.87,19.87 -361.84,11.3 -814.49,-194.9 -1149.89,-480.22 l 3.56,-5.27 c 3.99,-5.86 7.86,-11.93 11.66,-18.11 4.67,-7.59 9.17,-15.45 13.56,-23.46 42.48,-77.56 72.46,-173.3 99.37,-259.43 21.96,-70.33 44.69,-143.04 66.75,-176.46 70.51,-106.85 134.03,-391.87 9.55,-579.49 -53.77,-81.03 -143.69,-170.71 -247.35,-247.28 -7.27,-5.37 -14.6,-10.68 -22,-15.91 -7.3,-5.16 -14.66,-10.25 -22.06,-15.27 133.01,-140.64 207.08,-287.35 224.45,-444.52 22.56,-204.219 -49.91,-432.969 -221.55,-699.328 -5.59,-8.652 -5.66,-19.754 -0.2,-28.473 4.64,-7.41 12.56,-11.98 21.12,-12.429 1.5,-0.078 3.04,-0.032 4.57,0.152 344.01,41.438 649.3,149.656 882.84,312.949 215.11,150.399 362.81,345.149 415.89,548.329 73.6,281.8 -36.18,554.46 -301.22,748.05" /><path
         id="path16"
         style="fill:#6f2186;fill-opacity:1;fill-rule:nonzero;stroke:none"
         d="m 1800.11,1613.25 c 108.36,-133.52 169.4,-272.46 185.98,-422.54 21.76,-197.011 -35.26,-411.601 -174.04,-653.421 285.66,48.07 538,144.981 735.46,283.051 199.55,139.531 336.04,318.16 384.32,502.98 64.86,248.33 -33.91,490.06 -271,663.23 -252.63,184.55 -380.25,411.15 -369.04,655.27 11.54,251.11 169.86,507.77 432.52,711.47 -272.19,-45.12 -586.25,-192.93 -851.17,-404.11 43.73,-82.85 73.79,-179.16 100.45,-264.49 17.42,-55.78 41.31,-132.2 57.17,-156.25 92.2,-139.74 148.63,-457.97 9.43,-667.77 -53.67,-80.9 -140.16,-169.85 -240.08,-247.42 z m -92.73,-1251.602 -5.57,0.133 c -34.67,1.84 -66.31,20.43 -84.75,49.789 -21.89,34.942 -21.58,79.821 0.75,114.41 161.25,250.219 229.7,461.93 209.25,647.15 -15.46,139.9 -81.87,270.19 -203.06,398.34 l -64.65,68.36 77.87,52.81 c 6.95,4.71 13.85,9.47 20.7,14.34 7.02,4.96 13.89,9.92 20.71,14.96 96.62,71.38 179.8,154.18 228.24,227.19 102.01,153.75 47.13,405.13 -9.67,491.19 -28.3,42.89 -51.64,117.59 -76.35,196.68 -25.45,81.5 -54.27,173.86 -93.14,244.82 -3.77,6.86 -7.6,13.56 -11.58,20.04 -3.11,5.08 -6.27,10.06 -9.55,14.84 l -43.81,65 54.47,46.35 c 372.81,317.15 837.09,510.04 1204.24,499.24 48.14,-1.91 87.97,-33.99 99.82,-79.81 11.8,-45.44 -8.14,-94.08 -48.55,-118.18 -314.94,-188.42 -509.81,-448.18 -521.11,-694.82 -8.64,-187.97 96.32,-367.35 303.57,-518.71 C 3048.2,1901.74 3169,1598.19 3086.64,1282.9 3028.76,1061.33 2869.86,850.492 2639.19,689.199 2394.9,518.398 2077.08,405.398 1720.07,362.41 l -12.69,-0.762" /><path
         id="path18"
         style="fill:#ffffff;fill-opacity:1;fill-rule:nonzero;stroke:none"
         d="m 1708.65,1982.41 c -18.17,-52.2 -80.98,-118.65 -165.64,-160.38 -3.8,-1.87 -7.61,-3.73 -11.5,-5.5 -0.61,-1.29 -1.36,-2.55 -2.25,-3.74 -2.19,-2.91 -4.32,-5.72 -6.48,-8.59 -5.44,-7.2 -10.81,-14.25 -16.11,-21.11 -62.08,-80.4 -116.39,-136.55 -193.6,-146.53 -8.83,-1.14 -17.99,-1.46 -27.49,-0.96 -61.97,3.24 -138.39,41.46 -232.44,116.05 -1.78,1.42 -3.19,3.1 -4.4,4.89 -94.76,18.05 -174.756,67.22 -206.177,113.93 -6.684,9.94 -4.055,23.41 5.886,30.09 9.934,6.69 23.414,4.06 30.098,-5.88 44.539,-66.19 241.753,-157.21 399.773,-59.23 5.32,3.3 11.83,4.13 17.8,2.3 52.8,-16.22 104.67,-15.34 152.24,-4.24 10.2,2.38 20.2,5.22 29.97,8.49 9.42,3.14 18.63,6.66 27.59,10.51 84.23,36.19 146.61,100.63 161.78,144.17 3.94,11.31 16.33,17.25 27.61,13.35 11.31,-3.95 17.28,-16.31 13.34,-27.62 z m -470.91,236.94 c -0.3,-0.04 -0.59,-0.04 -0.89,-0.08 l 1.79,0.24 c -0.31,-0.04 -0.59,-0.12 -0.9,-0.16 20.44,2.53 40.42,1.29 59.4,-2.91 9.13,-2.02 18.02,-4.68 26.58,-8.08 9.11,-3.63 17.9,-7.93 26.19,-12.99 42.23,-25.79 72.69,-69.3 79.45,-121.58 4.87,-37.69 -3.49,-74.02 -21.29,-104.78 -4.9,-8.47 -10.49,-16.5 -16.77,-24.02 -5.89,-7.06 -12.24,-13.76 -19.24,-19.82 -24.73,-21.44 -55.95,-36.16 -91.01,-40.87 0.3,0.04 0.6,0.03 0.9,0.07 l -1.78,-0.23 c 0.3,0.04 0.58,0.12 0.88,0.16 -94,-11.66 -179.69,53.31 -191.61,145.55 -11.92,92.25 54.42,176.87 148.3,189.5 z m 672.09,-6 c -51.53,54.84 -126.07,86.01 -169.51,100.55 -12.33,4.12 -18.99,17.47 -14.86,29.8 4.14,12.35 17.45,18.99 29.82,14.86 57.12,-19.11 105.24,-43.55 144.04,-72.32 32.59,-24.16 58.54,-51.38 77.37,-81.24 -6.07,100.75 -36.06,194.23 -68.12,242.81 -54.19,82.1 -90.2,287.74 -161.76,427.14 -4.24,8.26 -8.58,16.33 -13.08,24.08 -4.82,8.3 -9.8,16.28 -14.95,23.91 -0.33,0.5 -0.65,1.02 -0.98,1.52 -43.3,63.53 -185.99,296.84 -602.6,243 -416.598,-53.85 -511.325,-311.35 -537.04,-383.8 -54.515,-153.6 -11.742,-408.93 -47.273,-513.92 -18.344,-54.19 -23.684,-149.85 -5.106,-247.11 12.809,31.8 31.203,62.89 55.172,92.53 31.34,38.76 71.789,75.08 120.879,107.25 10.891,7.11 25.477,4.08 32.606,-6.8 7.128,-10.88 4.093,-25.48 -6.786,-32.61 -53.918,-35.32 -105.382,-83.24 -138.629,-138.81 -21.386,-35.76 -35.179,-74.68 -37.199,-115.47 21.637,-57.64 53.586,-111.03 98.446,-151.01 141.902,-126.46 471.53,-260.42 674.96,-235.18 98.17,13.17 208.5,64.64 309.43,131.7 7.52,5 14.99,10.08 22.4,15.24 7.41,5.17 14.76,10.39 22.04,15.7 101.42,74 189.22,161.22 239.11,236.42 22.01,33.18 36.98,70.64 46.45,109.94 8.4,68.57 -17.01,121.57 -54.83,161.82" /><path
         id="path20"
         style="fill:#6f2186;fill-opacity:1;fill-rule:nonzero;stroke:none"
         d="m 1248.02,2140 c -49.96,-6.93 -85.47,-51.66 -79.24,-99.88 6.16,-47.67 51.14,-82.34 102.03,-76.48 18.31,2.54 35.18,10.13 48.83,21.97 3.79,3.28 7.15,6.93 10.3,10.7 3.34,3.99 6.28,8.25 8.88,12.76 6.8,11.75 14.28,30.74 11.21,54.49 -3.39,26.21 -18.63,49.37 -41.83,63.55 -4.42,2.7 -9.2,4.98 -14.12,6.96 -4.46,1.75 -9.26,3.16 -14.16,4.24 -10.77,2.4 -21.27,2.98 -31.9,1.69 z m -11.03,-410.72 c 22.91,-9.57 40.15,-13.14 52.79,-13.81 l 4.34,-0.09 c 2.94,0 5.82,0.15 8.63,0.52 20.8,2.68 40.37,11.57 62.42,29.71 -22.71,0.86 -45.23,3.85 -67.3,8.91 -19.56,-10.3 -39.87,-18.71 -60.88,-25.24 z m -603.595,210.88 c 18.281,-43.03 41.816,-77.54 70.097,-102.73 71.68,-63.87 202.031,-132.44 334.978,-175.26 -8.92,6.55 -17.97,13.42 -27.19,20.61 -101.284,24.16 -191.967,78.92 -235.112,143.04 -31.25,46.51 -18.867,109.79 27.578,141.1 45.078,30.37 110.938,17.38 141.207,-27.64 10.453,-15.54 64.667,-52.6 136.917,-63.67 -38.3,37.73 -64.49,87.71 -71.76,143.98 -17.419,134.61 78.65,259.11 214.53,278.7 l 4.14,0.6 v -0.02 l 2.74,0.29 c 28.14,3.01 55.7,1.45 82.99,-4.64 13.36,-2.93 26.4,-6.92 38.69,-11.78 13.71,-5.47 26.54,-11.86 38.34,-19.04 64.86,-39.63 107.54,-105.1 117.17,-179.65 6.97,-53.95 -3.89,-107.58 -31.37,-155.1 -0.43,-0.74 -0.86,-1.46 -1.29,-2.21 69.35,30.33 110.57,80.35 116.11,96.27 14.16,40.76 52.76,68.21 96.04,68.21 11.36,0 22.56,-1.88 33.3,-5.61 53.1,-18.52 81.15,-76.62 62.67,-129.55 -26.05,-74.86 -103.98,-153.85 -199.53,-202.64 l -14.65,-19.22 c -3.3,-4.27 -6.62,-8.55 -9.98,-12.83 10.1,6.25 20.24,12.76 30.39,19.49 6.96,4.63 13.93,9.36 20.82,14.18 7.02,4.89 13.89,9.77 20.65,14.71 92.64,67.58 174.73,148.32 219.69,216.07 14.84,22.39 26.33,49.18 34.16,79.73 3.22,35.18 -7.72,64.83 -34.2,93.01 -40.26,42.85 -102.85,68.18 -136.56,79.47 -26.25,8.77 -47.52,27.27 -59.87,52.05 -12.32,24.77 -14.28,52.87 -5.47,79.08 14.16,42.23 53.62,70.63 98.15,70.63 11.19,0 22.26,-1.82 32.91,-5.37 19.06,-6.37 37.4,-13.34 54.98,-20.9 -30.26,50.35 -52.56,121.76 -78.15,203.61 -24.29,77.7 -49.39,158.01 -81.87,221.27 -3.59,7.01 -7.25,13.83 -11.06,20.39 -3.94,6.76 -7.96,13.25 -12.12,19.42 l -5.34,7.95 c -38.59,57.24 -141.05,209.31 -412.75,209.31 -34.59,0 -71.23,-2.48 -108.91,-7.34 -246.425,-31.86 -405.19,-143.3 -471.909,-331.23 -25.606,-72.13 -25.957,-182.15 -26.27,-279.22 -0.273,-88.01 -0.527,-164.73 -17.246,-222.81 15.195,11.97 31.168,23.45 47.949,34.45 46.661,30.47 113.145,16.25 143.379,-29.86 31.289,-47.76 17.891,-112.07 -29.863,-143.36 -49.047,-32.15 -89.473,-72.27 -113.828,-112.99 -12.754,-21.31 -20.879,-42.42 -24.277,-62.95 z m 638.885,-480.72 c -0.02,0 -0.02,0 -0.02,0 -230.35,0 -535.1,133.69 -675.213,258.53 -27.481,24.5 -51.817,53.44 -72.832,86.6 l -25.938,-64.41 -51.074,267.46 c -19.922,104.3 -16.875,214.57 7.93,287.79 11.68,34.52 11.914,109.89 12.148,182.78 0.352,109.86 0.762,234.37 35.489,332.22 110.253,310.61 388.32,408.75 602.19,436.39 44.45,5.74 87.98,8.67 129.41,8.67 356.82,0 498.79,-210.68 545.43,-279.9 l 6.31,-9.41 c 5.11,-7.56 11.05,-17.05 16.78,-26.94 5.19,-8.9 10.21,-18.22 15.09,-27.77 38.75,-75.45 67.17,-166.37 92.25,-246.58 21.68,-69.42 44.12,-141.17 65.12,-172.99 42.91,-65 74.78,-175.72 81.21,-282.05 l 18.75,-311.06 -49.75,78.83 c -10.92,-29.02 -24.51,-55.88 -40.68,-80.23 -55.71,-83.97 -149.98,-177.56 -258.64,-256.82 -7.69,-5.62 -15.54,-11.21 -23.45,-16.72 -7.8,-5.45 -15.78,-10.88 -23.83,-16.23 -84.63,-56.21 -212.81,-126.87 -343.09,-144.37 -20.56,-2.54 -41.7,-3.79 -63.59,-3.79" /><path
         id="path22"
         style="fill:#ffffff;fill-opacity:1;fill-rule:nonzero;stroke:none"
         d="m 842.34,3168.8 c -58.5,68.14 -350.567,402.11 -495.406,338.94 -133.465,-58.21 115.168,-529.21 173.652,-658.99 53.051,131.23 181.703,265.27 321.754,320.05" /><path
         id="path24"
         style="fill:#6f2186;fill-opacity:1;fill-rule:nonzero;stroke:none"
         d="m 387.672,3435.65 c -6.973,-39.45 15.957,-145.49 140.508,-415.08 51.148,67.46 115.703,127.36 185.781,171.89 -155.371,166.76 -273.34,242.7 -326.289,243.19 z m 136.894,-790.49 -76.914,170.72 c -7.324,16.25 -17.714,37.97 -29.961,63.64 -141.781,296.93 -220.918,504.39 -177.421,620.99 13.984,37.5 39.804,65.35 74.683,80.55 22.168,9.69 46.469,14.59 72.207,14.59 160.512,0 369.125,-203.79 515.883,-374.75 l 73.437,-85.54 -105,-41.08 C 757.672,3049.77 641.285,2933.89 594.742,2818.77 l -70.176,-173.61" /><path
         id="path26"
         style="fill:#ffffff;fill-opacity:1;fill-rule:nonzero;stroke:none"
         d="m 1422.64,909.031 c -41.73,-53.191 -8.92,-89.84 34.4,-112.73 26.31,-13.903 56.48,-22.742 76.22,-27.102 45.13,-9.98 163.76,6.051 242.35,149.86 5.42,9.921 10.6,20.511 15.61,31.679 4.3,9.614 8.35,19.852 12.29,30.434 1.99,5.328 4.13,10.258 6.02,15.84 73.01,216.448 -49.12,487.968 -125.43,544.828 -12.72,9.48 -33.07,-0.47 -44.4,-6.48 -11.32,-6.02 -21.82,-18.19 -19.07,-27.64 11.87,-40.77 15.79,-211.43 -6.39,-298.38 -0.59,-2.34 -1.45,-4.8 -2.16,-7.19 -7.81,-26.5 -21.93,-55.85 -39.98,-86.48 -2.3,-3.91 -4.66,-7.83 -7.08,-11.78 -2.09,-3.16 -4.18,-6.31 -6.33,-9.48 0.12,-0.02 0.25,-0.04 0.37,-0.06 -4.48,-7.1 -9.13,-14.23 -13.91,-21.4 -37.71,-56.48 -83.66,-114.391 -122.51,-163.919" /><path
         id="path28"
         style="fill:#6f2186;fill-opacity:1;fill-rule:nonzero;stroke:none"
         d="m 1492.28,868.191 c 0.68,-0.39 1.41,-0.781 2.17,-1.171 22.09,-11.661 48.49,-18.032 56.05,-19.688 0.04,-0.023 2.46,-0.512 7.39,-0.512 v 0 c 14.55,0 89.98,5.328 147.51,110.61 4.52,8.218 8.74,16.929 12.86,26.109 3.57,7.992 6.95,16.641 10.29,25.571 l 5.14,13.36 c 36.91,109.45 12.46,238.06 -23.81,331.46 -1.33,-59.24 -6.92,-120.39 -18.13,-164.37 -0.66,-2.64 -1.58,-5.75 -2.56,-8.85 -2.24,-7.6 -4.82,-15.28 -7.71,-23.07 l 10.55,-1.5 -65.26,-104.38 c -4.84,-7.71 -9.9,-15.45 -15.08,-23.22 -37.01,-55.411 -80.31,-110.571 -118.53,-159.239 z m 65.61,-181.371 c 0,0 0,0 -0.02,0 -14.97,0 -29.05,1.43 -41.88,4.282 -19.9,4.367 -58.91,14.707 -96.29,34.449 -65.35,34.551 -86.89,78.711 -93.49,109.687 -6.14,28.891 -5.32,73.711 33.47,123.16 l 7.64,9.731 c 26.31,33.501 55.15,70.211 81.78,106.971 l 54.1,81.21 c 15.88,26.96 26.72,50 32.15,68.46 l 1.23,3.98 c 18.9,73.91 15.21,226.02 7.16,256.9 -13.24,45.43 10.77,95.04 58.44,120.37 17.31,9.18 40.8,19.73 69.01,19.73 22.36,0 43.36,-6.82 60.7,-19.75 100.84,-75.14 239.08,-380.72 153.44,-634.551 -1.61,-4.789 -3.36,-9.34 -5.16,-13.89 l -1.72,-4.387 c -4.53,-12.172 -9.24,-23.992 -14.2,-35.082 -5.97,-13.301 -12.11,-25.801 -18.49,-37.481 C 1747.51,700.809 1600.6,686.82 1557.89,686.82" /><path
         id="path30"
         style="fill:#ffffff;fill-opacity:1;fill-rule:nonzero;stroke:none"
         d="m 1073.13,711.461 c 105.45,28.371 142.61,303.529 11.65,376.439 -130.964,72.91 1.85,298.38 144.89,373.22 -112.78,-139.41 0.23,-242.66 108.7,-326.67 108.47,-84 7.3,-350.891 -265.24,-422.989 z m 904.37,-544.93 c -44.42,109.141 -116.42,134.801 -210.88,139.75 -18.84,0.989 -74.91,3.141 -93.75,3.34 -19.13,0.211 -38.1,0.43 -56.63,1.399 -41.7,2.191 -72.31,7.839 -99.28,18.351 -8.32,3.25 -10.92,9.27 -10.38,19.418 0.46,8.941 13.03,25.402 19.79,33.18 22.11,25.453 209.6,260.281 250.95,472.832 -68.12,-95.93 -156.08,-132.41 -225.08,-128.789 -8.21,0.429 -15.95,1.437 -22.97,2.988 -28.68,6.328 -65.26,16.281 -97.1,32.141 -30.04,14.968 -55.85,35.191 -66.65,62.769 -8.14,20.719 -15.63,61.672 13.26,103.289 17.65,25.43 40.23,51.242 63.1,81.061 10.02,13.05 20,26.68 29.85,40.46 6.82,9.53 13.47,19.11 20,28.77 5.07,7.5 10.06,14.96 14.87,22.44 4.76,7.39 9.42,14.76 13.85,22.04 23.96,39.41 42.62,76.69 49.9,105.19 4.26,16.72 7.57,36.24 10.1,56.96 10.46,85.55 -4.52,225.89 -8.41,246.61 -2.74,14.62 -11.39,18.9 -21.51,18.22 -12.42,-0.85 -27.06,-9.19 -35.82,-15.37 -2.51,-1.78 -5.2,-3.49 -7.89,-5.2 -31.57,-20.08 -75.03,-35.47 -128.48,-43.57 -39.22,-5.94 -83.73,-8.01 -132.99,-5 -186.69,11.38 -428.584,87.59 -632.233,254.01 -23.543,19.24 -46.336,48.33 -66.375,79.94 -15.34,24.2 -29.012,49.82 -40.125,73.79 -9.672,20.86 -17.457,40.46 -22.586,56.56 -5.797,12.26 -11.511,24.3 -17.179,36.13 -91.399,190.69 -168.922,318.53 -320.887,180.92 -82.7189,-74.9 -105.4377,-239.88 31.164,-403.66 116.351,-139.5 296.18,-276.22 557.137,-333.3 -1.578,-16.91 -2.766,-34.32 -3.293,-52.15 -1.664,-56.37 2.824,-115.84 17.375,-170.28 l -0.262,-0.24 25.738,-107.5 C 696.93,1074.31 649.359,1034.51 632.918,974.648 587.883,810.73 794.578,456.73 835.891,407.711 c 7.73,-10.051 14.773,-18.313 11.32,-28.731 -2.93,-8.832 -8.152,-11.16 -17.113,-13.609 -27.922,-7.633 -58.961,-10.062 -100.684,-7.871 -18.504,0.969 -74.488,4.68 -93.535,6.469 -18.758,1.769 -37.649,3.543 -56.516,4.531 -94.433,4.949 -168.718,-13.039 -224.312,-116.941 -13.223,-24.727 -15.996,-44.219 -8.27,-57.93 12.453,-22.07 54.266,-36.527 114.739,-39.699 67.332,-3.52 153.785,7.281 220.218,27.539 125.172,38.14 226.098,57.113 299.801,70.953 58.891,11.066 119.601,22.5 129.301,35.598 1.34,4.511 2.66,9.14 3.94,13.902 1.96,7.816 4.05,16.238 6.29,25.379 4.83,21.148 9.41,43.91 12.96,67.629 13.83,92.172 29.25,209.519 39.7,232.152 10.45,22.617 32.2,21.598 39.88,0.277 7.22,-20.039 -3.75,-180.449 0.72,-228.898 0.2,-1.91 0.4,-3.813 0.6,-5.699 1.65,-15.321 3.35,-29.992 5.08,-43.621 4.66,-32.61 10.93,-60.981 19.35,-75.621 20.76,-12.399 68.54,-26.7 115.18,-40.641 71.85,-21.481 170.24,-50.891 290.74,-101.91 63.95,-27.09 148.8,-46.8674 216.11,-50.3987 h 0.02 c 60.48,-3.1719 103.59,6.8516 118.26,27.4807 9.12,12.84 8.4,32.508 -2.17,58.48" /><path
         id="path32"
         style="fill:#6f2186;fill-opacity:1;fill-rule:nonzero;stroke:none"
         d="m 1282.59,1398.46 c -22.3,-32.15 -20.1,-51.07 -19.31,-57.77 5.99,-51.53 85.74,-113.3 124.08,-142.99 20.58,-15.92 37.09,-35.84 49.24,-58.69 0.89,1.39 1.79,2.77 2.69,4.16 4.43,6.89 8.73,13.67 12.81,20.39 30.26,49.78 38.56,74.88 40.73,83.36 3.18,12.48 5.93,28.26 8.2,46.85 4.77,38.95 3.2,95.34 0.16,142 -32.86,-13.85 -69.83,-23.83 -110.86,-30.06 -33.95,-5.12 -70.12,-7.44 -107.74,-7.25 z m -154.2,-155.43 c -10.78,-22.46 -16.95,-43.55 -17.17,-60.51 -0.21,-16.42 4.79,-20.45 12.47,-24.72 77.73,-43.28 123.94,-136.76 124.88,-246.37 26.78,33.3 43.51,68.3 49.88,99.65 5.74,28.32 2.27,51.35 -9.06,60.14 -61.31,47.46 -126.21,102.28 -161,171.81 z m -291.617,-68.34 33.18,-138.59 -76.25,-19.57 C 722.359,998.23 713.434,965.73 710.074,953.48 678.316,837.879 847.785,517.719 897.066,459.281 l 3.36,-4.261 c 10.777,-13.938 39.394,-50.969 22.695,-101.25 -4.473,-13.489 -11.074,-25.129 -19.766,-34.879 22.95,4.55 44.083,8.539 63.418,12.168 21.973,4.121 54.037,10.16 76.617,15.55 4.34,19.02 8.38,39.18 11.53,60.172 l 8,54.438 c 13.72,94.019 21.61,145.051 29.93,175.703 l -40.49,151.797 c 9.12,5.07 35.51,48.043 36.17,116.711 0.51,53.679 -16.25,97.86 -42.66,112.56 -61.968,34.51 -95.585,93.67 -94.643,166.6 1.093,83.87 47.968,172.35 110.393,242.21 -178.382,42.01 -356.253,128.32 -499.124,245.06 -28.301,23.14 -56.328,56.46 -83.32,99.08 -16.211,25.55 -31.817,54.24 -45.141,82.95 -9.976,21.54 -18.355,42.31 -24.449,60.49 l -14.902,31.33 c -25.293,52.79 -92.579,193.14 -132.563,193.14 -5.055,0 -24.547,-2.67 -62.437,-36.99 -56.797,-51.43 -62.461,-171.62 38.867,-293.11 90.41,-108.39 252.754,-249.53 512.812,-306.4 l 69.16,-15.12 -6.601,-70.47 c -1.426,-15.27 -2.5,-30.97 -2.988,-47.07 -1.606,-54.35 3.496,-105.27 14.707,-147.24 l 12.437,-46.55 z M 1303.92,332.621 c 21.82,-7.633 52.46,-16.801 73.54,-23.101 20.07,-6 42.18,-12.598 66.26,-20.098 -11.28,16.148 -18.39,37.258 -17.05,63.508 0.51,9.57 2.04,38.539 39.26,81.468 22.58,25.961 88.62,112.5 145.63,215.821 -21,-3.75 -42.62,-5.231 -63.5,-4.098 -12.6,0.641 -24.76,2.258 -36.15,4.801 -45.76,10.098 -83.56,22.738 -115.41,38.617 -34.16,17.012 -61.06,37.77 -80.41,62.012 -19.1,-16.961 -40.08,-32.992 -62.93,-47.699 15.8,-11.993 28.34,-28.922 35.72,-49.372 8.15,-22.66 8.38,-47.5 5.8,-143.929 -1.03,-38.77 -2.32,-87.031 -0.68,-104.742 l 0.43,-4.047 c 1.64,-15.231 3.26,-29.371 4.94,-42.481 1.58,-11.133 3.14,-19.883 4.55,-26.66 z M 439.156,236.332 c 7.481,-1.07 16.309,-1.973 26.543,-2.523 59.16,-3.098 135.938,6.839 192.676,24.183 23.477,7.149 46.113,13.656 67.871,19.567 -0.351,0.023 -0.683,0.043 -1.035,0.062 -19.102,0.981 -77.09,4.848 -96.84,6.699 -17.672,1.68 -35.406,3.36 -53.141,4.282 -60.195,3.218 -101.425,-1.743 -136.074,-52.27 z M 1611.09,231.18 c 20.99,-8.168 42.81,-16.981 65.39,-26.551 55.19,-23.379 131.19,-41.129 189.12,-44.18 9.59,-0.461 19.04,-0.519 26.8,-0.289 -24.96,46.801 -58.26,62.481 -129.96,66.231 -18.21,0.961 -72.31,3.05 -90.49,3.238 -20.18,0.223 -40.3,0.473 -59.92,1.512 -0.32,0.019 -0.63,0.019 -0.94,0.039 z M 1882.67,0 v 0 c -8.16,0 -16.64,0.21875 -25.43,0.691406 C 1780.13,4.73047 1686.97,26.4297 1614.08,57.2891 1497.44,106.699 1401.62,135.32 1331.65,156.219 1266.93,175.57 1225.68,188.5 1198.31,204.852 l -17.87,10.699 -10.39,18.051 c -0.08,0.097 -0.13,0.187 -0.19,0.308 -27.99,-31.558 -75.65,-41.699 -173.536,-60.101 C 924.469,160.301 826.07,141.82 705.055,104.949 630.602,82.2305 534.176,69.8516 457.34,74.0508 365.113,78.8711 304.488,105.859 277.121,154.262 c -15.211,27.027 -26.187,72.269 7.406,135.039 76.676,143.359 189.864,159.941 268.34,159.941 10.02,0 20.254,-0.312 30.703,-0.863 19.942,-1.027 39.981,-2.887 59.864,-4.758 15.136,-1.43 54.589,-4.121 77.91,-5.531 -78.731,132.48 -210.489,394.199 -165.567,557.75 13.219,48.17 45.743,108.05 123.848,148.07 l -20.234,84.47 1.093,1.02 c -7.207,41.42 -10.488,86.01 -9.746,133.2 -265.976,74.65 -436.582,225.63 -535.039,343.65 -165.2732,198.15 -135.4099,412.82 -23.4177,514.2 58.2417,52.76 113.7887,78.4 169.8397,78.4 140.727,0 216.215,-157.48 276.875,-284.02 l 21.274,-46.49 c 4.121,-12.94 10.859,-29.72 18.945,-47.18 10.39,-22.42 22.539,-44.77 35.098,-64.55 17.324,-27.35 34.863,-48.95 49.433,-60.86 164.727,-134.59 382.054,-222.56 582.204,-235.82 l 288.83,151.15 -107.03,-132.33 c 16.23,5.81 27.97,11.94 36.15,17.15 l 4.43,2.87 c 17.86,12.6 45.43,27.88 76.78,30 l 7.4,0.26 c 49.32,0 88.75,-33.56 98.15,-83.5 4.35,-23.24 21.17,-173.3 9.2,-271.13 -3.09,-25.31 -7.11,-47.87 -11.99,-66.99 -8.81,-34.59 -28.13,-76.12 -59.07,-127 -4.8,-7.87 -9.8,-15.82 -14.94,-23.78 -5.1,-7.95 -10.45,-15.96 -15.88,-23.99 -6.89,-10.19 -13.94,-20.35 -21.17,-30.47 -10.37,-14.51 -20.92,-28.861 -31.46,-42.631 -9.26,-12.051 -18.5,-23.539 -27.41,-34.59 -12.14,-15.097 -23.65,-29.258 -33.43,-43.359 -8.29,-11.942 -7.04,-22.031 -4.54,-28.418 0.96,-2.211 8.03,-10.551 27.86,-20.434 19.74,-9.828 46.21,-18.437 78.69,-25.609 3.1,-0.699 6.4,-1.047 9.9,-1.25 l 5.16,-0.109 c 19.41,0 87.67,6.871 150.5,95.351 l 214.52,302.069 -70.75,-363.651 c -34.12,-175.41 -154.18,-357.367 -221.83,-449.199 13.06,-0.43 26.33,-0.57 39.67,-0.711 19.61,-0.231 77.65,-2.438 97.14,-3.469 96.86,-5.058 216.35,-31.172 280.77,-189.48 26.81,-65.93 11.17,-109.7581 -6.66,-134.9183 C 2015.76,20.75 1961.19,0 1882.67,0" /><path
         id="path34"
         style="fill:#ffffff;fill-opacity:1;fill-rule:nonzero;stroke:none"
         d="m 1349.06,3237.21 c 41.64,79.58 253.72,477.04 409.07,448.13 143.15,-26.63 9.33,-531.95 -18.39,-671.57 -88.01,126.32 -237.45,203.31 -390.68,223.44" /><path
         id="path36"
         style="fill:#6f2186;fill-opacity:1;fill-rule:nonzero;stroke:none"
         d="m 1470.89,3292.93 c 82.99,-24.61 158.62,-63.63 222.46,-114.55 59.16,284.53 57.46,390.94 41.9,427.25 -44.03,-10.53 -141.72,-100.37 -264.36,-312.7 z m 310.71,-479.18 -107.5,154.3 c -70,100.47 -195.39,171.43 -335.47,189.84 l -113.56,14.93 53.11,101.48 c 184.2,351.97 352.44,516.29 494.59,489.69 37.63,-6.99 69.26,-28.44 91.44,-61.97 75.73,-114.44 26.06,-376.8 -31.31,-635.73 -6.07,-27.38 -11.23,-50.66 -14.68,-68.1 l -36.62,-184.44" /><path
         id="path38"
         style="fill:#ffffff;fill-opacity:1;fill-rule:nonzero;stroke:none"
         d="m 2708.02,2051.16 c -229.93,167.97 -346.22,370.94 -336.3,586.99 12.55,273.53 221.93,557.59 560.05,759.85 10.12,6.06 15.03,18.05 12.07,29.46 -2.95,11.4 -12.66,19.38 -24.87,19.87 -361.84,11.3 -814.49,-194.9 -1149.89,-480.22 l 3.56,-5.27 c 3.99,-5.86 7.86,-11.93 11.66,-18.11 4.67,-7.59 9.17,-15.45 13.56,-23.46 42.48,-77.56 72.46,-173.3 99.37,-259.43 21.96,-70.33 44.69,-143.04 66.75,-176.46 70.51,-106.85 134.03,-391.87 9.55,-579.49 -53.77,-81.03 -143.69,-170.71 -247.35,-247.28 -7.27,-5.37 -14.6,-10.68 -22,-15.91 -7.3,-5.16 -3.93,-2.76 -11.34,-7.78 133.02,-140.64 219.22,-256.42 234.57,-477.53 14.24,-204.968 -58.76,-416.87 -242.39,-673.808 -5.99,-8.383 -5.66,-19.754 -0.2,-28.473 4.64,-7.41 12.56,-11.98 21.12,-12.429 1.5,-0.078 3.04,-0.032 4.57,0.152 344.01,41.438 649.3,149.656 882.84,312.949 215.11,150.399 362.81,345.149 415.89,548.329 73.6,281.8 -36.18,554.46 -301.22,748.05" /><path
         id="path40"
         style="fill:#ffffff;fill-opacity:1;fill-rule:nonzero;stroke:none"
         d="m 1292.78,1793.56 c -52.66,-30.51 -109.14,-43.36 -163.94,-44.19 74.02,-51.34 135.19,-75.37 178.67,-69.79 56.7,7.33 100.09,48.29 150.72,111.9 -52.02,-12.18 -108.35,-13.61 -165.45,2.08" /><path
         id="path42"
         style="fill:#ffffff;fill-opacity:1;fill-rule:nonzero;stroke:none"
         d="m 1236.85,2219.27 c 0.3,0.04 0.59,0.04 0.89,0.08 0.31,0.04 0.59,0.12 0.9,0.16 l -1.79,-0.24" /><path
         id="path44"
         style="fill:#ffffff;fill-opacity:1;fill-rule:nonzero;stroke:none"
         d="m 1281.95,1884.37 c -0.3,-0.04 -0.6,-0.03 -0.9,-0.07 -0.3,-0.04 -0.58,-0.12 -0.88,-0.16 l 1.78,0.23" /><path
         id="path46"
         style="fill:#ffffff;fill-opacity:1;fill-rule:nonzero;stroke:none"
         d="m 1708.65,1982.41 c -18.17,-52.2 -80.98,-118.65 -165.64,-160.38 -3.8,-1.87 -7.61,-3.73 -11.5,-5.5 -0.61,-1.29 -1.36,-2.55 -2.25,-3.74 -2.19,-2.91 -4.32,-5.72 -6.48,-8.59 -5.44,-7.2 -10.81,-14.25 -16.11,-21.11 -62.08,-80.4 -116.39,-136.55 -193.6,-146.53 -8.83,-1.14 -17.99,-1.46 -27.49,-0.96 -61.97,3.24 -138.39,41.46 -232.44,116.05 -1.78,1.42 -3.19,3.1 -4.4,4.89 -94.76,18.05 -174.756,67.22 -206.177,113.93 -6.684,9.94 -4.055,23.41 5.886,30.09 9.934,6.69 23.414,4.06 30.098,-5.88 44.539,-66.19 241.753,-157.21 399.773,-59.23 5.32,3.3 11.83,4.13 17.8,2.3 52.8,-16.22 104.67,-15.34 152.24,-4.24 10.2,2.38 20.2,5.22 29.97,8.49 9.42,3.14 18.63,6.66 27.59,10.51 84.23,36.19 146.61,100.63 161.78,144.17 3.94,11.31 16.33,17.25 27.61,13.35 11.31,-3.95 17.28,-16.31 13.34,-27.62 z m 201.18,230.94 c -51.53,54.84 -126.07,86.01 -169.51,100.55 -12.33,4.12 -18.99,17.47 -14.86,29.8 4.14,12.35 17.45,18.99 29.82,14.86 57.12,-19.11 105.24,-43.55 144.04,-72.32 32.59,-24.16 58.54,-51.38 77.37,-81.24 -6.07,100.75 -36.06,194.23 -68.12,242.81 -54.19,82.1 -90.2,287.74 -161.76,427.14 -4.24,8.26 -8.58,16.33 -13.08,24.08 -4.82,8.3 -9.8,16.28 -14.95,23.91 -0.33,0.5 -0.65,1.02 -0.98,1.52 -43.3,63.53 -185.99,296.84 -602.6,243 -416.598,-53.85 -511.325,-311.35 -537.04,-383.8 -54.515,-153.6 -11.742,-408.93 -47.273,-513.92 -18.344,-54.19 -23.684,-149.85 -5.106,-247.11 12.809,31.8 31.203,62.89 55.172,92.53 31.34,38.76 71.789,75.08 120.879,107.25 10.891,7.11 25.477,4.08 32.606,-6.8 7.128,-10.88 4.093,-25.48 -6.786,-32.61 -53.918,-35.32 -105.382,-83.24 -138.629,-138.81 -21.386,-35.76 -35.179,-74.68 -37.199,-115.47 21.637,-57.64 53.586,-111.03 98.446,-151.01 141.902,-126.46 471.53,-260.42 674.96,-235.18 98.17,13.17 208.5,64.64 309.43,131.7 7.52,5 14.99,10.08 22.4,15.24 7.41,5.17 14.76,10.39 22.04,15.7 101.42,74 189.22,161.22 239.11,236.42 22.01,33.18 36.98,70.64 46.45,109.94 8.4,68.57 -17.01,121.57 -54.83,161.82" /><path
         id="path48"
         style="fill:#ffffff;fill-opacity:1;fill-rule:nonzero;stroke:none"
         d="m 842.34,3168.8 c -58.5,68.14 -350.567,402.11 -495.406,338.94 -133.465,-58.21 115.168,-529.21 173.652,-658.99 53.051,131.23 181.703,265.27 321.754,320.05" /><path
         id="path50"
         style="fill:#ffffff;fill-opacity:1;fill-rule:nonzero;stroke:none"
         d="m 1422.64,909.031 c -41.73,-53.191 -8.92,-89.84 34.4,-112.73 26.31,-13.903 56.48,-22.742 76.22,-27.102 45.13,-9.98 163.76,6.051 242.35,149.86 5.42,9.921 10.6,20.511 15.61,31.679 4.3,9.614 8.35,19.852 12.29,30.434 1.99,5.328 4.13,10.258 6.02,15.84 73.01,216.448 -49.12,487.968 -125.43,544.828 -12.72,9.48 -33.07,-0.47 -44.4,-6.48 -11.32,-6.02 -21.82,-18.19 -19.07,-27.64 11.87,-40.77 15.79,-211.43 -6.39,-298.38 -0.59,-2.34 -1.45,-4.8 -2.16,-7.19 -7.81,-26.5 -21.93,-55.85 -39.98,-86.48 -2.3,-3.91 -4.66,-7.83 -7.08,-11.78 -2.09,-3.16 -4.18,-6.31 -6.33,-9.48 0.12,-0.02 0.25,-0.04 0.37,-0.06 -4.48,-7.1 -9.13,-14.23 -13.91,-21.4 -37.71,-56.48 -83.66,-114.391 -122.51,-163.919" /><path
         id="path52"
         style="fill:#ffffff;fill-opacity:1;fill-rule:nonzero;stroke:none"
         d="m 1977.5,166.531 c -44.42,109.141 -116.42,134.801 -210.88,139.75 -18.84,0.989 -74.91,3.141 -93.75,3.34 -19.13,0.211 -38.1,0.43 -56.63,1.399 -41.7,2.191 -72.31,7.839 -99.28,18.351 -8.32,3.25 -10.92,9.27 -10.38,19.418 0.46,8.941 13.03,25.402 19.79,33.18 22.11,25.453 209.6,260.281 250.95,472.832 -68.12,-95.93 -156.08,-132.41 -225.08,-128.789 -8.21,0.429 -15.95,1.437 -22.97,2.988 -28.68,6.328 -65.26,16.281 -97.1,32.141 -30.04,14.968 -55.85,35.191 -66.65,62.769 -8.14,20.719 -15.63,61.672 13.26,103.289 17.65,25.43 40.23,51.242 63.1,81.061 10.02,13.05 20,26.68 29.85,40.46 6.82,9.53 13.47,19.11 20,28.77 5.07,7.5 10.06,14.96 14.87,22.44 4.76,7.39 9.42,14.76 13.85,22.04 23.96,39.41 42.62,76.69 49.9,105.19 4.26,16.72 7.57,36.24 10.1,56.96 10.46,85.55 -4.52,225.89 -8.41,246.61 -2.74,14.62 -11.26,17.83 -21.38,17.15 -12.42,-0.85 -15.83,-17.4 -24.59,-23.59 -2.51,-1.77 -11.33,-2.96 -14.02,-4.67 -31.57,-20.08 -80.26,-26.71 -133.71,-34.81 -39.22,-5.94 -83.73,-8.01 -132.99,-5 -186.69,11.38 -428.584,87.59 -632.233,254.01 -23.543,19.24 -46.336,48.33 -66.375,79.94 -15.34,24.2 -29.012,49.82 -40.125,73.79 -9.672,20.86 -17.457,40.46 -22.586,56.56 -5.797,12.26 -11.511,24.3 -17.179,36.13 -91.399,190.69 -168.922,318.53 -320.887,180.92 -82.7189,-74.9 -105.4377,-239.88 31.164,-403.66 116.351,-139.5 296.18,-276.22 557.137,-333.3 -1.578,-16.91 -2.766,-34.32 -3.293,-52.15 -1.664,-56.37 2.824,-115.84 17.375,-170.28 l -0.262,-0.24 25.738,-107.5 C 696.93,1074.31 649.359,1034.51 632.918,974.648 587.883,810.73 794.578,456.73 835.891,407.711 c 7.73,-10.051 14.773,-18.313 11.32,-28.731 -2.93,-8.832 -8.152,-11.16 -17.113,-13.609 -27.922,-7.633 -58.961,-10.062 -100.684,-7.871 -18.504,0.969 -74.488,4.68 -93.535,6.469 -18.758,1.769 -37.649,3.543 -56.516,4.531 -94.433,4.949 -168.718,-13.039 -224.312,-116.941 -13.223,-24.727 -15.996,-44.219 -8.27,-57.93 12.453,-22.07 54.266,-36.527 114.739,-39.699 67.332,-3.52 153.785,7.281 220.218,27.539 125.172,38.14 226.098,57.113 299.801,70.953 58.891,11.066 119.601,22.5 129.301,35.598 1.34,4.511 2.66,9.14 3.94,13.902 1.96,7.816 4.05,16.238 6.29,25.379 4.83,21.148 9.41,43.91 12.96,67.629 13.83,92.172 29.25,209.519 39.7,232.152 10.45,22.617 32.2,21.598 39.88,0.277 7.22,-20.039 -3.75,-180.449 0.72,-228.898 0.2,-1.91 0.4,-3.813 0.6,-5.699 1.65,-15.321 3.35,-29.992 5.08,-43.621 4.66,-32.61 10.93,-60.981 19.35,-75.621 20.76,-12.399 68.54,-26.7 115.18,-40.641 71.85,-21.481 170.24,-50.891 290.74,-101.91 63.95,-27.09 148.8,-46.8674 216.11,-50.3987 h 0.02 c 60.48,-3.1719 103.59,6.8516 118.26,27.4807 9.12,12.84 8.4,32.508 -2.17,58.48" /><path
         id="path54"
         style="fill:#ffffff;fill-opacity:1;fill-rule:nonzero;stroke:none"
         d="m 1349.06,3237.21 c 41.64,79.58 253.72,477.04 409.07,448.13 143.15,-26.63 9.33,-531.95 -18.39,-671.57 -88.01,126.32 -237.45,203.31 -390.68,223.44" /><path
         id="path56"
         style="fill:#ffffff;fill-opacity:1;fill-rule:nonzero;stroke:none"
         d="m 1443.67,2637.97 c 0.77,4.41 1.53,8.81 2.53,13.25 5.31,23.53 13.48,45.24 23.66,64.54 16,30.35 37.04,54.57 60.27,69.85 17.08,11.23 35.3,17.48 53.53,17.94 6.73,0.16 13.46,-0.27 20.13,-1.77 12.69,-2.87 24.18,-8.73 34.36,-16.92 34.43,-27.66 53.34,-82.7 49.22,-145.06 -0.89,-13.63 -2.77,-27.56 -5.95,-41.68 -22.08,-97.82 -92.64,-165.22 -157.59,-150.56 -62.01,14 -96.37,97.75 -80.16,190.41" /><path
         id="path58"
         style="fill:#6f2186;fill-opacity:1;fill-rule:nonzero;stroke:none"
         d="m 1586.44,2783.58 c -16.6,-0.39 -31.07,-5.31 -45.31,-14.67 -20.69,-13.61 -39.22,-35.21 -53.58,-62.46 -9.72,-18.44 -17.07,-38.5 -21.83,-59.63 -0.82,-3.57 -1.43,-7.07 -2.03,-10.53 -14.75,-84.2 13.75,-157.75 64.55,-169.22 53.59,-12.32 114.43,50.3 133.67,135.45 2.77,12.33 4.63,25.3 5.51,38.58 3.65,55.41 -12.37,104.53 -41.8,128.18 -8.11,6.52 -16.95,10.9 -26.25,12.99 -3.87,0.88 -8.11,1.31 -12.93,1.31 z m -44.59,-358.03 c -7.54,0 -15.1,0.84 -22.44,2.5 -72.81,16.45 -113.85,108.19 -95.45,213.36 1.05,5.96 1.8,10.1 2.75,14.28 5.53,24.49 14.1,47.87 25.45,69.41 17.52,33.21 40.67,59.92 66.98,77.23 20.58,13.53 42.12,20.66 64.04,21.21 10.54,0.06 18.18,-0.72 25.02,-2.25 15.27,-3.45 29.57,-10.47 42.48,-20.82 40.04,-32.18 61.21,-92.73 56.66,-161.99 -1.02,-15.35 -3.17,-30.41 -6.41,-44.76 -22.01,-97.45 -88.9,-168.17 -159.08,-168.17" /><path
         id="path60"
         style="fill:#ffffff;fill-opacity:1;fill-rule:nonzero;stroke:none"
         d="m 888.938,2375.25 c -62.688,-22.46 -140.926,35.86 -174.75,130.25 -8.02,22.38 -12.719,44.75 -14.547,66.2 -3.106,36.5 2.406,70.19 15.367,96.43 11.547,23.38 28.902,40.89 51.437,48.97 62.684,22.46 140.922,-35.86 174.746,-130.25 33.829,-94.4 10.43,-189.14 -52.253,-211.6" /><path
         id="path62"
         style="fill:#6f2186;fill-opacity:1;fill-rule:nonzero;stroke:none"
         d="m 794.469,2701.9 c -7.383,0 -14.531,-1.21 -21.289,-3.63 -21.055,-7.54 -33.496,-25.37 -40.235,-38.99 -11.367,-23.04 -16.132,-53.53 -13.379,-85.88 1.739,-20.54 6.27,-41.11 13.457,-61.13 29.122,-81.27 97.774,-136.48 149.18,-118.18 23.789,8.53 41.426,31.54 49.625,64.78 8.949,36.19 5.57,79.24 -9.469,121.23 -25.273,70.57 -79.062,121.8 -127.89,121.8 z m 66.426,-351.45 c -66.172,0 -134.239,60.98 -165.528,148.32 -8.359,23.27 -13.613,47.25 -15.644,71.25 -3.418,40.08 2.597,77.07 17.363,106.98 14.336,29.02 35.977,49.39 62.617,58.92 11.074,3.97 22.774,5.98 34.766,5.98 66.191,0 134.277,-60.98 165.547,-148.32 17.675,-49.32 21.464,-100.57 10.664,-144.3 -11.543,-46.68 -38.164,-79.65 -75,-92.85 -11.075,-3.96 -22.774,-5.98 -34.785,-5.98" /><path
         id="path64"
         style="fill:#6f2186;fill-opacity:1;fill-rule:nonzero;stroke:none"
         d="m 842.004,2491.31 c 41.578,13.81 62.105,64.67 45.851,113.58 -16.253,48.92 -63.136,77.37 -104.714,63.56 -41.578,-13.82 -62.11,-64.67 -45.856,-113.59 16.258,-48.92 63.137,-77.37 104.719,-63.55" /><path
         id="path66"
         style="fill:#6f2186;fill-opacity:1;fill-rule:nonzero;stroke:none"
         d="m 1495.36,2673.99 c -6.95,-51.07 22.61,-97.27 66.02,-103.18 43.41,-5.9 84.24,30.71 91.19,81.79 6.95,51.07 -22.61,97.27 -66.02,103.17 -43.42,5.91 -84.24,-30.7 -91.19,-81.78" /><path
         id="path68"
         style="fill:#6f2186;fill-opacity:1;fill-rule:nonzero;stroke:none"
         d="m 1237.74,2219.35 c -0.3,-0.04 -0.59,-0.04 -0.89,-0.08 l 1.79,0.24 c -0.31,-0.04 -0.59,-0.12 -0.9,-0.16 20.44,2.53 40.42,1.29 59.4,-2.91 9.13,-2.02 18.02,-4.68 26.58,-8.08 9.11,-3.63 17.9,-7.93 26.19,-12.99 42.23,-25.79 72.69,-69.3 79.45,-121.58 4.87,-37.69 -3.49,-74.02 -21.29,-104.78 -4.9,-8.47 -10.49,-16.5 -16.77,-24.02 -5.89,-7.06 -12.24,-13.76 -19.24,-19.82 -24.73,-21.44 -55.95,-36.16 -91.01,-40.87 0.3,0.04 0.6,0.03 0.9,0.07 l -1.78,-0.23 c 0.3,0.04 0.58,0.12 0.88,0.16 -94,-11.66 -179.69,53.31 -191.61,145.55 -11.92,92.25 54.42,176.87 148.3,189.5" /><path
         id="path70"
         style="fill:#6f2186;fill-opacity:1;fill-rule:nonzero;stroke:none"
         d="m 1073.13,711.461 c 105.45,28.371 142.61,303.529 11.65,376.439 -130.964,72.91 1.85,298.38 144.89,373.22 -112.78,-139.41 0.23,-242.66 108.7,-326.67 108.47,-84 7.3,-350.891 -265.24,-422.989" /><path
         id="path72"
         style="fill:#ffffff;fill-opacity:1;fill-rule:nonzero;stroke:none"
         d="m 1462.45,1467.72 -34.82,-359.81 -31.84,-147.441 -58.04,-98.66 26.04,-84.7 87.05,-156.699 c 0,0 -162.49,-580.3514 243.75,17.41 406.24,597.76 -62.61,959.67 -62.61,959.67 -59.09,-33.73 -143.13,-100.45 -313.96,-118.8 -63.85,-6.86 144.43,-10.97 144.43,-10.97" /><path
         id="path74"
         style="fill:#6f2186;fill-opacity:1;fill-rule:nonzero;stroke:none"
         d="m 1804.81,1402.71 -7.99,71.56 c 323.33,36.09 566.1,164.15 721.58,380.6 95.72,133.26 66.89,306.71 0.73,358.62 -41.48,32.55 -81.77,44.58 -123.2,36.83 -66.17,-12.4 -137.25,-77.66 -200.15,-183.77 -61.71,-104.1 -249.5,-420.92 -618.41,-502.29 l -11.74,53.2 6,13.63 c 7.41,1.64 4.96,6.85 12.21,8.69 324.06,82.32 493.49,368.15 550,463.48 52.08,87.86 137.53,196.97 248.84,217.82 62.12,11.64 122.98,-5.5 180.91,-50.95 101.06,-79.31 128.88,-296.33 13.29,-457.26 -167.87,-233.71 -427.64,-371.71 -772.07,-410.16" /><path
         id="path76"
         style="fill:#ffffff;fill-opacity:1;fill-rule:nonzero;stroke:none"
         d="m 1863.22,1483.3 -121.14,-20.71 -203.97,80.24 c 116.71,38.54 253.4,91.76 324.09,133.14 70.69,41.38 -2.42,-194.39 1.02,-192.67" /><path
         id="path78"
         style="fill:#ffffff;fill-opacity:1;fill-rule:nonzero;stroke:none"
         d="m 1575.54,1563.59 c 0.52,0.25 1.74,0.77 3.6,1.55 34.16,14.36 285.01,117.26 408.84,226.27 l -95.72,-173.6 -331.25,-148.12 14.53,93.9" /></g></g></svg>