<?xml version="1.0" encoding="UTF-8" standalone="no"?>
<svg
   xmlns:dc="http://purl.org/dc/elements/1.1/"
   xmlns:cc="http://creativecommons.org/ns#"
   xmlns:rdf="http://www.w3.org/1999/02/22-rdf-syntax-ns#"
   xmlns:svg="http://www.w3.org/2000/svg"
   xmlns="http://www.w3.org/2000/svg"
   viewBox="0 0 389.03751 470.86249"
   height="470.86249"
   width="389.03751"
   xml:space="preserve"
   version="1.1"
   id="svg2"><metadata
     id="metadata8"><rdf:RDF><cc:Work
         rdf:about=""><dc:format>image/svg+xml</dc:format><dc:type
           rdf:resource="http://purl.org/dc/dcmitype/StillImage" /></cc:Work></rdf:RDF></metadata><defs
     id="defs6"><clipPath
       id="clipPath18"
       clipPathUnits="userSpaceOnUse"><path
         id="path20"
         d="m 0,0 3112,0 0,3766.86 -3112,0 L 0,0 Z" /></clipPath></defs><g
     transform="matrix(1.25,0,0,-1.25,0,470.8625)"
     id="g10"><g
       transform="scale(0.1,0.1)"
       id="g12"><g
         id="g14"><g
           clip-path="url(#clipPath18)"
           id="g16"><path
             id="path22"
             style="fill:#ffffff;fill-opacity:1;fill-rule:nonzero;stroke:none"
             d="m 887.195,3160.47 -114.289,121.67 c -84.484,5.64 -269.968,-108.48 -331.922,-215.5 24.77,-71.83 69.133,-184.36 101.559,-235.31" /><path
             id="path24"
             style="fill:#6f2186;fill-opacity:1;fill-rule:nonzero;stroke:none"
             d="m 510.484,2810.93 c -37.082,58.26 -83.718,180.36 -105.425,243.33 l -5.661,16.4 8.696,15.02 c 67.437,116.48 263.195,241.23 367.34,234.38 l 14.925,-1 L 914.891,3186.48 859.5,3134.45 756.602,3244 c -79.118,-7.07 -220.368,-107.17 -273.625,-182.3 27.457,-77.09 65.906,-169.56 91.628,-209.97 l -64.121,-40.8" /><path
             id="path26"
             style="fill:#ffffff;fill-opacity:1;fill-rule:nonzero;stroke:none"
             d="m 2708.37,2051.17 c -229.94,167.97 -346.23,370.94 -336.31,586.99 12.56,273.53 221.93,557.59 560.06,759.86 10.12,6.05 15.03,18.04 12.07,29.45 -2.96,11.4 -12.67,19.37 -24.87,19.87 -361.84,11.3 -814.5,-194.91 -1149.9,-480.21 l 3.57,-5.29 c 3.99,-5.86 7.86,-11.92 11.65,-18.1 4.67,-7.59 9.17,-15.45 13.56,-23.47 42.49,-77.56 72.46,-173.29 99.37,-259.42 21.97,-70.33 44.7,-143.05 66.75,-176.46 70.52,-106.85 134.03,-391.87 9.55,-579.49 -53.77,-81.03 -143.68,-170.71 -247.34,-247.28 -7.27,-5.37 -14.61,-10.68 -22.01,-15.91 -7.3,-5.16 -14.65,-10.25 -22.06,-15.27 133.02,-140.64 207.09,-287.36 224.46,-444.52 22.55,-204.221 -49.92,-432.971 -221.56,-699.33 -5.58,-8.649 -5.65,-19.75 -0.19,-28.469 4.63,-7.41 12.56,-11.98 21.12,-12.43 1.5,-0.082 3.03,-0.031 4.56,0.149 344.02,41.441 649.31,149.66 882.84,312.949 215.12,150.402 362.82,345.151 415.89,548.331 73.61,281.8 -36.17,554.46 -301.21,748.05" /><path
             id="path28"
             style="fill:#6f2186;fill-opacity:1;fill-rule:nonzero;stroke:none"
             d="m 1800.45,1613.26 c 108.36,-133.5 169.39,-272.44 185.98,-422.55 21.76,-197.011 -35.27,-411.62 -174.07,-653.46 285.25,47.949 537.87,144.93 735.5,283.109 199.55,139.52 336.04,318.151 384.32,502.971 64.86,248.32 -33.92,490.06 -271,663.25 -252.64,184.54 -380.24,411.12 -369.02,655.25 11.51,251.12 169.84,507.78 432.5,711.47 -272.19,-45.14 -586.27,-192.94 -851.18,-404.1 43.65,-82.7 73.76,-179.09 100.45,-264.5 17.43,-55.8 41.3,-132.22 57.16,-156.24 92.23,-139.75 148.65,-457.97 9.44,-667.78 -53.69,-80.93 -140.17,-169.88 -240.08,-247.42 z m -92.76,-1251.612 -6.09,0.184 c -34.11,1.75 -65.82,20.398 -84.25,49.848 -21.82,34.84 -21.51,79.679 0.76,114.25 161.28,250.289 229.75,461.98 209.3,647.21 -15.47,139.91 -81.9,270.21 -203.08,398.33 l -64.7,68.41 77.97,52.8 c 6.97,4.72 13.88,9.5 20.75,14.36 6.9,4.89 13.81,9.88 20.66,14.95 96.56,71.31 179.75,154.11 228.2,227.15 102.02,153.76 47.13,405.13 -9.65,491.19 -28.31,42.88 -51.64,117.57 -76.35,196.67 -25.49,81.57 -54.38,174.03 -93.17,244.84 -3.75,6.85 -7.57,13.55 -11.56,20.03 -3.1,5.05 -6.3,10.07 -9.6,14.91 l -43.8,64.92 54.51,46.36 c 362.35,308.24 811.86,499.72 1173.12,499.72 10.43,0 20.81,-0.16 31.11,-0.48 48.14,-1.96 87.93,-34 99.81,-79.75 11.79,-45.46 -8.13,-94.06 -48.43,-118.18 -315.06,-188.47 -509.9,-448.23 -521.22,-694.87 -8.63,-187.98 96.35,-367.35 303.57,-518.72 292.99,-214.02 413.79,-517.59 331.44,-832.88 C 3029.12,1061.34 2870.2,850.5 2639.54,689.219 2395.27,518.43 2077.45,405.422 1720.43,362.422 c -4.56,-0.531 -8.67,-0.774 -12.74,-0.774" /><path
             id="path30"
             style="fill:#ffffff;fill-opacity:1;fill-rule:nonzero;stroke:none"
             d="m 1709,1982.42 c -18.17,-52.2 -80.99,-118.65 -165.65,-160.38 -3.8,-1.87 -7.61,-3.73 -11.49,-5.5 -0.62,-1.29 -1.37,-2.55 -2.26,-3.74 -2.18,-2.91 -4.32,-5.72 -6.48,-8.59 -5.43,-7.2 -10.8,-14.25 -16.1,-21.11 -62.09,-80.4 -116.39,-136.55 -193.6,-146.53 -8.84,-1.14 -17.99,-1.46 -27.5,-0.97 -61.96,3.25 -138.38,41.47 -232.44,116.06 -1.78,1.42 -3.19,3.1 -4.4,4.89 -94.752,18.05 -174.752,67.21 -206.17,113.93 -6.687,9.93 -4.058,23.41 5.887,30.09 9.93,6.69 23.41,4.06 30.094,-5.89 44.539,-66.18 241.759,-157.2 399.769,-59.22 5.33,3.3 11.84,4.13 17.8,2.3 52.81,-16.22 104.68,-15.34 152.24,-4.24 10.21,2.38 20.2,5.22 29.97,8.48 9.43,3.15 18.63,6.67 27.6,10.52 84.22,36.18 146.61,100.63 161.78,144.17 3.94,11.31 16.32,17.25 27.61,13.34 11.31,-3.94 17.28,-16.3 13.34,-27.61 z m -470.91,236.93 c -0.3,-0.03 -0.6,-0.03 -0.9,-0.07 l 1.79,0.24 c -0.3,-0.04 -0.59,-0.12 -0.89,-0.17 20.44,2.54 40.42,1.3 59.39,-2.9 9.13,-2.02 18.03,-4.68 26.59,-8.09 9.11,-3.62 17.89,-7.92 26.18,-12.98 42.24,-25.79 72.7,-69.3 79.46,-121.58 4.87,-37.69 -3.49,-74.02 -21.29,-104.78 -4.9,-8.47 -10.49,-16.51 -16.77,-24.02 -5.9,-7.06 -12.25,-13.76 -19.24,-19.82 -24.73,-21.44 -55.96,-36.16 -91.01,-40.87 0.3,0.03 0.6,0.03 0.9,0.07 l -1.79,-0.23 c 0.3,0.04 0.59,0.12 0.89,0.16 -94.01,-11.67 -179.69,53.3 -191.61,145.55 -11.93,92.25 54.42,176.87 148.3,189.49 z m 672.08,-5.99 c -51.52,54.84 -126.06,86.01 -169.51,100.55 -12.32,4.12 -18.98,17.47 -14.86,29.8 4.14,12.35 17.46,18.99 29.82,14.86 57.12,-19.11 105.25,-43.56 144.05,-72.32 32.59,-24.16 58.54,-51.38 77.36,-81.24 -6.07,100.75 -36.05,194.23 -68.11,242.81 -54.19,82.1 -90.2,287.74 -161.76,427.14 -4.24,8.26 -8.59,16.33 -13.09,24.08 -4.82,8.3 -9.8,16.28 -14.94,23.91 -0.33,0.5 -0.65,1.02 -0.99,1.51 -43.29,63.54 -185.99,296.85 -602.59,243 -416.601,-53.84 -511.331,-311.33 -537.046,-383.79 -54.512,-153.6 -11.738,-408.93 -47.274,-513.92 -18.339,-54.2 -23.679,-149.85 -5.101,-247.12 12.805,31.81 31.199,62.9 55.168,92.54 31.344,38.76 71.789,75.08 120.883,107.25 10.886,7.11 25.476,4.08 32.605,-6.8 7.129,-10.88 4.09,-25.48 -6.785,-32.61 -53.918,-35.32 -105.387,-83.25 -138.629,-138.81 -21.391,-35.76 -35.183,-74.68 -37.199,-115.48 21.637,-57.63 53.586,-111.02 98.445,-151 141.903,-126.46 471.533,-260.42 674.953,-235.18 98.18,13.17 208.5,64.63 309.43,131.7 7.53,5 15,10.08 22.41,15.24 7.41,5.17 14.76,10.39 22.04,15.7 101.42,73.99 189.21,161.22 239.11,236.42 22.01,33.18 36.98,70.64 46.45,109.93 8.4,68.58 -17.02,121.58 -54.84,161.83" /><path
             id="path32"
             style="fill:#6f2186;fill-opacity:1;fill-rule:nonzero;stroke:none"
             d="m 1248.35,2140 c -49.94,-6.92 -85.46,-51.65 -79.22,-99.89 6.15,-47.66 52.01,-82.53 102.03,-76.45 18.31,2.53 35.18,10.12 48.84,21.96 3.27,2.83 6.64,6.34 10.29,10.7 3.24,3.89 6.23,8.19 8.86,12.73 6.82,11.78 14.28,30.77 11.22,54.5 -3.4,26.24 -18.63,49.4 -41.8,63.54 -4.19,2.56 -8.9,4.89 -14.06,6.94 -4.31,1.71 -9.12,3.16 -14.34,4.31 -10.56,2.34 -21.13,2.95 -31.82,1.66 z m -11.02,-410.71 c 22.93,-9.57 40.16,-13.13 52.78,-13.8 4.5,-0.23 8.85,-0.11 13.05,0.42 20.78,2.69 40.33,11.57 62.37,29.71 -22.71,0.86 -45.24,3.84 -67.33,8.91 -19.54,-10.29 -39.86,-18.71 -60.87,-25.24 z m -603.592,210.87 c 18.27,-43 41.805,-77.5 70.106,-102.72 71.672,-63.88 202.062,-132.46 335.006,-175.29 -8.91,6.57 -17.99,13.44 -27.2,20.64 -101.271,24.14 -191.966,78.89 -235.119,143.03 -15.168,22.56 -20.636,49.63 -15.429,76.26 5.214,26.69 20.515,49.73 43.074,64.9 16.777,11.3 36.418,17.29 56.711,17.29 33.926,0 65.476,-16.8 84.402,-44.96 10.461,-15.55 64.691,-52.62 136.911,-63.69 -38.29,37.73 -64.48,87.7 -71.75,143.99 -17.368,134.43 78.4,258.74 213.95,278.6 l 2.39,0.39 0,-0.01 4.13,0.47 c 27.8,3.17 56.19,1.62 83.84,-4.49 13.59,-3.02 26.66,-7.01 38.89,-11.88 13.55,-5.38 26.45,-11.8 38.33,-19.05 64.74,-39.52 107.42,-104.98 117.06,-179.58 6.98,-53.95 -3.88,-107.58 -31.39,-155.11 -0.42,-0.73 -0.85,-1.47 -1.28,-2.19 69.36,30.31 110.58,80.32 116.13,96.24 14.24,40.82 52.84,68.23 96.06,68.23 11.34,0 22.53,-1.88 33.26,-5.59 53.08,-18.53 81.15,-76.58 62.75,-129.5 -26.1,-74.92 -104.02,-153.9 -199.52,-202.68 -4.95,-6.54 -9.86,-12.98 -14.72,-19.27 -3.29,-4.26 -6.61,-8.52 -9.95,-12.78 10.08,6.23 20.19,12.72 30.34,19.46 7.05,4.68 14.02,9.43 20.95,14.25 6.96,4.85 13.82,9.72 20.59,14.67 92.6,67.55 174.69,148.3 219.63,216.03 14.87,22.4 26.34,49.2 34.17,79.74 3.22,35.18 -7.71,64.84 -34.19,93.02 -40.25,42.85 -102.85,68.17 -136.58,79.45 -54.18,18.16 -83.47,76.96 -65.34,131.1 14.14,42.25 53.6,70.67 98.17,70.67 11.17,0 22.23,-1.81 32.85,-5.35 19.09,-6.39 37.45,-13.37 55.02,-20.92 -30.25,50.35 -52.57,121.76 -78.15,203.63 -24.28,77.69 -49.39,158.01 -81.86,221.27 -3.59,7 -7.27,13.85 -11.09,20.44 -3.92,6.74 -7.94,13.2 -12.1,19.38 l -5.32,7.92 c -38.59,57.24 -141.08,209.29 -412.76,209.29 -34.58,0 -71.23,-2.47 -108.9,-7.33 -246.458,-31.86 -405.228,-143.29 -471.915,-331.22 -25.598,-72.13 -25.957,-182.15 -26.27,-279.21 -0.285,-88.01 -0.539,-164.73 -17.258,-222.83 15.196,11.98 31.192,23.47 47.961,34.46 16.973,11.09 36.563,16.93 56.727,16.93 35.05,0 67.433,-17.49 86.64,-46.79 31.301,-47.76 17.903,-112.07 -29.851,-143.37 -49.035,-32.12 -89.453,-72.25 -113.821,-112.98 -12.761,-21.33 -20.898,-42.44 -24.285,-62.96 z m 638.852,-480.71 -0.01,0 c -230.36,0.01 -535.092,133.69 -675.189,258.54 -27.473,24.49 -51.797,53.42 -72.813,86.55 l -25.918,-64.41 -51.105,267.49 c -19.922,104.25 -16.895,214.51 7.89,287.78 11.7,34.55 11.946,109.93 12.18,182.82 0.359,109.85 0.762,234.36 35.488,332.21 110.215,310.58 388.301,408.73 602.187,436.37 44.45,5.75 88,8.66 129.41,8.66 356.79,0 498.77,-210.64 545.43,-279.87 l 5.79,-8.63 c 5.67,-8.39 11.61,-17.89 17.34,-27.78 5.16,-8.89 10.17,-18.17 15.05,-27.67 38.76,-75.49 67.17,-166.41 92.23,-246.62 21.69,-69.41 44.12,-141.18 65.13,-173 42.93,-65.05 74.81,-175.76 81.2,-282.07 l 18.74,-311.23 -49.75,78.92 c -10.91,-29 -24.52,-55.82 -40.66,-80.15 -55.68,-83.93 -149.95,-177.53 -258.62,-256.81 -7.75,-5.65 -15.58,-11.23 -23.5,-16.74 -7.84,-5.47 -15.81,-10.88 -23.83,-16.21 -84.57,-56.2 -212.74,-126.87 -343.05,-144.34 -20.57,-2.56 -41.71,-3.81 -63.62,-3.81" /><path
             id="path34"
             style="fill:#ffffff;fill-opacity:1;fill-rule:nonzero;stroke:none"
             d="m 1422.99,909.039 c -41.74,-53.187 -8.92,-89.84 34.4,-112.73 26.31,-13.899 56.48,-22.739 76.22,-27.11 45.12,-9.969 163.75,6.063 242.34,149.871 5.42,9.922 10.61,20.512 15.61,31.68 4.3,9.609 8.36,19.852 12.29,30.43 1.99,5.332 4.14,10.25 6.02,15.84 73.02,216.45 -49.11,487.97 -125.43,544.83 -12.72,9.48 -33.06,-0.47 -44.39,-6.48 -11.33,-6.02 -21.82,-18.19 -19.07,-27.64 11.87,-40.77 15.79,-211.43 -6.39,-298.38 -0.6,-2.34 -1.46,-4.8 -2.16,-7.19 -7.81,-26.51 -21.94,-55.85 -39.98,-86.48 -2.31,-3.91 -4.66,-7.84 -7.08,-11.78 -2.09,-3.16 -4.18,-6.31 -6.33,-9.48 0.12,-0.02 0.24,-0.04 0.37,-0.06 -4.48,-7.1 -9.13,-14.23 -13.91,-21.4 -37.71,-56.48 -83.66,-114.39 -122.51,-163.921" /><path
             id="path36"
             style="fill:#6f2186;fill-opacity:1;fill-rule:nonzero;stroke:none"
             d="m 1492.62,868.199 c 0.69,-0.371 1.4,-0.758 2.14,-1.148 22.1,-11.68 48.54,-18.059 56.12,-19.731 0,0 2.42,-0.511 7.33,-0.511 14.55,0 90,5.332 147.54,110.632 4.21,7.688 8.51,16.45 12.8,26.008 3.61,8.063 7,16.701 10.32,25.631 l 2.91,7.51 c 0.77,1.94 1.57,3.87 2.28,5.97 36.89,109.38 12.43,237.96 -23.84,331.37 -1.31,-59.24 -6.89,-120.37 -18.11,-164.36 -0.74,-2.84 -1.61,-5.79 -2.54,-8.73 -2.48,-8.38 -5.34,-16.86 -8.63,-25.49 l 10.12,-1.67 -64,-102.03 c -4.85,-7.66 -9.87,-15.37 -15.03,-23.1 -36.94,-55.331 -80.2,-110.421 -118.36,-159.019 l -1.05,-1.332 z m 65.59,-181.39 c -14.94,0 -29.03,1.453 -41.87,4.281 -19.95,4.41 -58.99,14.75 -96.33,34.5 -65.3,34.492 -86.86,78.66 -93.45,109.652 -6.15,28.887 -5.33,73.719 33.49,123.188 l 7.78,9.91 c 27.02,34.41 56.71,72.21 83.93,109.96 l 46.2,68.7 c 1.9,3.12 3.76,6.24 5.58,9.33 15.89,26.97 26.72,50.01 32.15,68.45 l 1.27,4.14 c 18.88,73.77 15.17,225.86 7.14,256.72 -13.24,45.44 10.75,95.07 58.43,120.38 17.31,9.2 40.8,19.75 69,19.75 22.37,0 43.38,-6.84 60.73,-19.79 100.81,-75.12 239.05,-380.7 153.41,-634.531 -1.61,-4.777 -3.34,-9.238 -5.1,-13.687 l -1.73,-4.461 c -4.56,-12.25 -9.28,-24.102 -14.24,-35.211 -6.03,-13.43 -12.22,-25.988 -18.44,-37.371 -98.33,-179.918 -245.25,-193.91 -287.95,-193.91" /><path
             id="path38"
             style="fill:#ffffff;fill-opacity:1;fill-rule:nonzero;stroke:none"
             d="m 1073.48,711.469 c 105.44,28.371 142.61,303.521 11.65,376.441 -130.97,72.91 1.85,298.38 144.88,373.22 -112.77,-139.41 0.23,-242.66 108.71,-326.67 108.47,-84.01 7.3,-350.89 -265.24,-422.991 z m 904.37,-544.93 c -44.43,109.141 -116.43,134.801 -210.88,139.75 -18.85,0.992 -74.91,3.141 -93.75,3.34 -19.13,0.211 -38.11,0.43 -56.63,1.402 -41.7,2.188 -72.32,7.84 -99.29,18.348 -8.32,3.25 -10.91,9.269 -10.38,19.422 0.47,8.929 13.03,25.398 19.8,33.179 22.11,25.45 209.6,260.282 250.94,472.829 -68.11,-95.93 -156.07,-132.411 -225.07,-128.789 -8.22,0.429 -15.95,1.441 -22.97,2.992 -28.68,6.328 -65.27,16.277 -97.11,32.136 -30.04,14.961 -55.85,35.192 -66.65,62.774 -8.13,20.719 -15.62,61.668 13.26,103.289 17.66,25.43 40.24,51.238 63.11,81.059 10.02,13.05 20,26.68 29.85,40.46 6.81,9.53 13.47,19.11 20,28.77 5.07,7.49 10.06,14.96 14.87,22.44 4.75,7.39 9.41,14.76 13.84,22.04 23.97,39.41 42.63,76.69 49.9,105.19 4.27,16.72 7.58,36.24 10.11,56.96 10.45,85.54 -4.52,225.89 -8.41,246.61 -2.74,14.62 -11.39,18.9 -21.51,18.22 -12.42,-0.85 -27.06,-9.19 -35.82,-15.38 -2.52,-1.77 -5.21,-3.48 -7.89,-5.19 -31.58,-20.08 -75.03,-35.47 -128.49,-43.57 -39.21,-5.94 -83.72,-8.01 -132.98,-5 -186.7,11.38 -428.591,87.59 -632.239,254.01 -23.539,19.24 -46.332,48.32 -66.371,79.94 -15.34,24.2 -29.012,49.82 -40.125,73.79 -9.672,20.86 -17.457,40.46 -22.59,56.56 -5.797,12.26 -11.512,24.3 -17.18,36.13 -91.398,190.69 -168.918,318.53 -320.882,180.92 -82.7232,-74.9 -105.438,-239.88 31.164,-403.66 116.351,-139.5 296.175,-276.22 557.132,-333.3 -1.578,-16.92 -2.765,-34.32 -3.289,-52.15 -1.668,-56.37 2.825,-115.84 17.371,-170.28 l -0.261,-0.24 25.742,-107.5 C 697.277,1074.32 649.707,1034.52 633.262,974.66 588.227,810.738 794.926,456.742 836.234,407.719 c 7.731,-10.047 14.778,-18.309 11.325,-28.727 -2.934,-8.832 -8.157,-11.164 -17.118,-13.613 -27.918,-7.629 -58.957,-10.059 -100.683,-7.867 -18.5,0.968 -74.485,4.679 -93.535,6.468 -18.754,1.77 -37.649,3.54 -56.512,4.532 -94.434,4.949 -168.723,-13.043 -224.313,-116.942 -13.222,-24.73 -16,-44.23 -8.273,-57.941 12.457,-22.059 54.266,-36.52 114.742,-39.688 67.328,-3.531 153.781,7.27 220.219,27.528 125.172,38.152 226.098,57.121 299.801,70.961 58.893,11.07 119.593,22.5 129.293,35.601 1.35,4.508 2.66,9.141 3.94,13.899 1.97,7.82 4.05,16.242 6.3,25.379 4.83,21.152 9.4,43.91 12.96,67.632 13.83,92.168 29.24,209.52 39.7,232.141 10.45,22.629 32.2,21.609 39.87,0.289 7.22,-20.039 -3.75,-180.449 0.72,-228.902 0.2,-1.91 0.4,-3.809 0.6,-5.699 1.65,-15.321 3.35,-29.989 5.08,-43.622 4.66,-32.609 10.94,-60.976 19.36,-75.617 20.76,-12.402 68.54,-26.699 115.17,-40.64 71.86,-21.481 170.25,-50.891 290.74,-101.911 63.96,-27.101 148.81,-46.8706 216.12,-50.398 l 0.02,0 c 60.47,-3.1718 103.59,6.8477 118.26,27.477 9.12,12.839 8.4,32.511 -2.17,58.48" /><path
             id="path40"
             style="fill:#6f2186;fill-opacity:1;fill-rule:nonzero;stroke:none"
             d="m 1282.94,1398.48 c -22.3,-32.17 -20.1,-51.09 -19.32,-57.79 6,-51.53 85.75,-113.29 124.08,-142.98 20.58,-15.94 37.09,-35.85 49.24,-58.7 0.93,1.41 1.85,2.84 2.76,4.26 4.35,6.75 8.64,13.52 12.71,20.23 30.28,49.81 38.59,74.95 40.77,83.46 3.16,12.41 5.93,28.17 8.2,46.86 4.76,38.9 3.2,95.25 0.16,141.88 -32.65,-13.72 -69.72,-23.74 -110.88,-29.98 -33.92,-5.15 -70.13,-7.65 -107.72,-7.24 z m -154.21,-155.42 c -10.77,-22.47 -16.96,-43.56 -17.17,-60.52 -0.22,-16.43 4.8,-20.47 12.48,-24.74 77.72,-43.26 123.95,-136.74 124.88,-246.339 26.77,33.277 43.51,68.269 49.88,99.629 5.74,28.3 2.26,51.34 -9.07,60.12 -61.31,47.48 -126.22,102.31 -161,171.85 z m -291.613,-68.37 33.184,-138.57 -76.25,-19.56 C 722.703,998.262 713.766,965.719 710.398,953.461 678.648,837.898 848.141,517.73 897.41,459.27 l 2.254,-2.79 c 11.906,-15.421 40.5,-52.429 23.82,-102.691 -4.484,-13.5 -11.086,-25.141 -19.785,-34.898 22.938,4.57 44.09,8.539 63.406,12.168 21.985,4.132 54.095,10.171 76.665,15.55 4.74,20.84 8.6,40.922 11.5,60.223 2.62,17.457 5.3,35.848 7.99,54.328 13.71,94.051 21.6,145.09 29.94,175.762 l -40.5,151.808 c 9.12,5.059 35.52,48.02 36.17,116.68 0.52,53.692 -16.23,97.89 -42.66,112.59 -61.983,34.51 -95.589,93.68 -94.64,166.62 1.094,83.87 47.957,172.32 110.38,242.19 -178.368,42.01 -356.231,128.32 -499.11,245.08 -28.262,23.09 -56.301,56.42 -83.32,99.04 -16.27,25.68 -31.875,54.37 -45.137,82.99 -9.934,21.41 -18.332,42.21 -24.473,60.53 -5,10.55 -9.933,20.96 -14.844,31.19 -22.91,47.81 -92.609,193.22 -132.597,193.22 -5.071,0 -24.563,-2.66 -62.461,-36.99 -56.77,-51.41 -62.434,-171.61 38.906,-293.12 90.391,-108.37 252.734,-249.51 512.781,-306.38 l 69.114,-15.12 -6.543,-70.44 c -1.575,-16.89 -2.551,-32.29 -2.989,-47.11 -1.593,-54.35 3.485,-105.28 14.696,-147.27 l 12.433,-46.54 -1.289,-1.2 z M 1304.26,332.629 c 21.82,-7.641 52.46,-16.797 73.54,-23.09 20.08,-6.008 42.18,-12.609 66.24,-20.117 -12.12,17.598 -18.26,39.519 -17.01,63.527 0.5,9.571 2.02,38.582 39.28,81.492 22.55,25.95 88.58,112.5 145.58,215.801 -21.01,-3.773 -42.63,-5.211 -63.49,-4.113 -12.6,0.66 -24.74,2.262 -36.06,4.762 -45.85,10.14 -83.64,22.781 -115.5,38.648 -34.16,17.031 -61.05,37.793 -80.4,62.02 -19.11,-16.969 -40.09,-32.977 -62.93,-47.7 15.8,-12 28.34,-28.929 35.72,-49.39 8.14,-22.629 8.36,-47.457 5.8,-143.86 -1.04,-38.8 -2.33,-87.078 -0.7,-104.789 l 0.52,-4.851 c 1.55,-14.418 3.19,-28.59 4.86,-41.77 1.6,-11.09 3.16,-19.808 4.55,-26.57 z M 439.5,236.34 c 7.48,-1.07 16.309,-1.969 26.551,-2.508 59.191,-3.102 135.89,6.828 192.695,24.168 23.457,7.148 46.067,13.648 67.813,19.559 -0.332,0.023 -0.653,0.031 -0.985,0.05 -19.179,1.02 -76.086,4.77 -96.855,6.723 -17.649,1.656 -35.43,3.359 -53.184,4.289 -7.59,0.399 -15.019,0.621 -22.297,0.621 -50.086,0 -83.476,-8.801 -113.738,-52.902 z m 1171.92,-5.141 c 21.01,-8.168 42.81,-16.988 65.39,-26.551 55.22,-23.398 131.2,-41.148 189.11,-44.179 9.66,-0.5 19.08,-0.559 26.82,-0.297 -24.96,46.797 -58.26,62.469 -129.96,66.226 -18.88,0.993 -73.45,3.063 -90.43,3.231 -20.23,0.23 -40.32,0.48 -59.93,1.512 -0.33,0.019 -0.66,0.039 -1,0.058 z M 1883.05,0 l -0.01,0 c -8.16,0 -16.67,0.230469 -25.47,0.691406 C 1780.5,4.71875 1687.32,26.4297 1614.41,57.3203 1497.91,106.648 1402,135.309 1331.97,156.23 c -64.69,19.352 -105.94,32.282 -133.3,48.629 l -17.89,10.692 -10.39,18.07 c -0.07,0.098 -0.13,0.199 -0.19,0.301 -28.01,-31.59 -75.66,-41.723 -173.544,-60.113 C 924.793,160.309 826.375,141.82 705.406,104.961 630.855,82.2109 534.344,70.0586 457.684,74.0508 365.418,78.8906 304.781,105.891 277.457,154.309 c -15.176,26.941 -26.191,72.183 7.395,134.98 76.718,143.383 189.921,159.953 268.386,159.953 10,0 20.235,-0.293 30.664,-0.844 19.953,-1.039 39.961,-2.898 59.825,-4.769 14.543,-1.379 54.765,-4.098 78.086,-5.527 -79.149,133.07 -210.575,394.386 -165.692,557.738 13.231,48.18 45.762,108.07 123.836,148.09 l -20.223,84.45 1.094,1.02 c -7.219,41.43 -10.48,86.02 -9.746,133.22 -265.977,74.64 -436.594,225.61 -535.039,343.65 -123.33206,147.88 -173.4571,378.34 -23.4297,514.2 58.2537,52.75 113.8087,78.39 169.8557,78.39 140.73,0 216.211,-157.49 276.863,-284.03 5.734,-11.94 11.516,-24.13 17.375,-36.53 l 3.875,-9.86 c 4.191,-13.12 10.93,-29.89 18.965,-47.23 10.383,-22.43 22.519,-44.76 35.117,-64.62 17.316,-27.32 34.863,-48.92 49.414,-60.8 164.746,-134.63 382.072,-222.61 582.242,-235.84 l 288.75,151.06 -107,-132.26 c 16.23,5.81 27.96,11.93 36.15,17.14 1.74,1.11 3.23,2.01 4.6,2.98 17.71,12.5 45.27,27.76 76.6,29.9 l 7.45,0.26 c 49.32,0 88.77,-33.57 98.14,-83.54 4.36,-23.17 21.16,-173.22 9.19,-271.07 -3.1,-25.45 -7.14,-48.01 -11.99,-67.03 -8.84,-34.6 -28.15,-76.14 -59.06,-126.98 -4.76,-7.82 -9.79,-15.78 -14.92,-23.76 -5.16,-8 -10.47,-15.96 -15.86,-23.95 -6.95,-10.25 -13.99,-20.38 -21.2,-30.48 -10.4,-14.548 -20.92,-28.9 -31.46,-42.65 -9.29,-12.101 -18.53,-23.59 -27.44,-34.648 -12.48,-15.492 -24.27,-30.133 -33.44,-43.332 -8.26,-11.918 -7.01,-22.051 -4.5,-28.461 0.94,-2.168 8.04,-10.5 27.87,-20.379 19.72,-9.828 46.19,-18.449 78.67,-25.629 1.9,-0.422 5.13,-0.961 9.9,-1.211 1.72,-0.09 3.44,-0.129 5.18,-0.129 19.42,0 87.67,6.879 150.49,95.348 l 214.5,302.091 -70.75,-363.681 c -34.1,-175.328 -154.16,-357.34 -221.83,-449.187 13.08,-0.43 26.36,-0.582 39.72,-0.723 20.78,-0.231 78.58,-2.481 97.07,-3.438 96.89,-5.082 216.37,-31.211 280.8,-189.5 26.85,-65.972 11.16,-109.8121 -6.73,-134.9801 C 2016.12,20.7695 1961.55,0 1883.05,0" /><path
             id="path42"
             style="fill:#ffffff;fill-opacity:1;fill-rule:nonzero;stroke:none"
             d="m 1349.41,3237.22 c 41.63,79.58 253.71,477.04 409.07,448.13 143.14,-26.64 9.33,-531.95 -18.4,-671.58 -88.01,126.33 -237.45,203.32 -390.67,223.45" /><path
             id="path44"
             style="fill:#6f2186;fill-opacity:1;fill-rule:nonzero;stroke:none"
             d="m 1471.25,3292.93 c 82.99,-24.59 158.6,-63.62 222.45,-114.55 59.17,284.55 57.45,390.98 41.87,427.27 -43.99,-10.52 -141.69,-100.35 -264.32,-312.72 z m 310.68,-479.18 -107.49,154.29 c -70,100.48 -195.4,171.46 -335.46,189.87 l -113.57,14.92 53.11,101.48 c 171.04,326.83 326.97,492.55 463.46,492.55 10.49,0 20.97,-0.97 31.13,-2.85 37.64,-7.01 69.26,-28.44 91.45,-61.98 68.62,-103.75 40.49,-311.67 -31.32,-635.76 -6.07,-27.39 -11.23,-50.65 -14.69,-68.07 l -36.62,-184.45" /><path
             id="path46"
             style="fill:#ffffff;fill-opacity:1;fill-rule:nonzero;stroke:none"
             d="m 2708.37,2051.17 c -229.94,167.97 -346.23,370.94 -336.31,586.99 12.56,273.53 221.93,557.59 560.06,759.86 10.12,6.05 15.03,18.04 12.07,29.45 -2.96,11.4 -12.67,19.37 -24.87,19.87 -361.84,11.3 -814.5,-194.91 -1149.9,-480.21 l 3.57,-5.29 c 3.99,-5.86 7.86,-11.92 11.65,-18.1 4.67,-7.59 9.17,-15.45 13.56,-23.47 42.49,-77.56 72.46,-173.29 99.37,-259.42 21.97,-70.33 44.7,-143.05 66.75,-176.46 70.52,-106.85 134.03,-391.87 9.55,-579.49 -53.77,-81.03 -143.68,-170.71 -247.34,-247.28 -7.27,-5.37 -14.61,-10.68 -22.01,-15.91 -7.3,-5.16 -14.65,-10.25 -22.06,-15.27 133.02,-140.64 207.09,-287.36 224.46,-444.52 22.55,-204.221 -49.92,-432.971 -221.56,-699.33 -5.58,-8.649 -5.65,-19.75 -0.19,-28.469 4.63,-7.41 12.56,-11.98 21.12,-12.43 1.5,-0.082 3.03,-0.031 4.56,0.149 344.02,41.441 649.31,149.66 882.84,312.949 215.12,150.402 362.82,345.151 415.89,548.331 73.61,281.8 -36.17,554.46 -301.21,748.05" /><path
             id="path48"
             style="fill:#ffffff;fill-opacity:1;fill-rule:nonzero;stroke:none"
             d="m 1293.12,1793.56 c -52.65,-30.5 -109.13,-43.35 -163.94,-44.18 74.03,-51.34 135.2,-75.38 178.68,-69.79 56.69,7.33 100.08,48.29 150.72,111.9 -52.02,-12.18 -108.35,-13.61 -165.46,2.07" /><path
             id="path50"
             style="fill:#ffffff;fill-opacity:1;fill-rule:nonzero;stroke:none"
             d="m 1237.19,2219.28 c 0.3,0.04 0.6,0.04 0.9,0.07 0.3,0.05 0.59,0.13 0.89,0.17 l -1.79,-0.24" /><path
             id="path52"
             style="fill:#ffffff;fill-opacity:1;fill-rule:nonzero;stroke:none"
             d="m 1282.3,1884.38 c -0.3,-0.04 -0.6,-0.04 -0.9,-0.07 -0.3,-0.04 -0.59,-0.12 -0.89,-0.16 l 1.79,0.23" /><path
             id="path54"
             style="fill:#ffffff;fill-opacity:1;fill-rule:nonzero;stroke:none"
             d="m 1709,1982.42 c -18.17,-52.2 -80.99,-118.65 -165.65,-160.38 -3.8,-1.87 -7.61,-3.73 -11.49,-5.5 -0.62,-1.29 -1.37,-2.55 -2.26,-3.74 -2.18,-2.91 -4.32,-5.72 -6.48,-8.59 -5.43,-7.2 -10.8,-14.25 -16.1,-21.11 -62.09,-80.4 -116.39,-136.55 -193.6,-146.53 -8.84,-1.14 -17.99,-1.46 -27.5,-0.97 -61.96,3.25 -138.38,41.47 -232.44,116.06 -1.78,1.42 -3.19,3.1 -4.4,4.89 -94.752,18.05 -174.752,67.21 -206.17,113.93 -6.687,9.93 -4.058,23.41 5.887,30.09 9.93,6.69 23.41,4.06 30.094,-5.89 44.539,-66.18 241.759,-157.2 399.769,-59.22 5.33,3.3 11.84,4.13 17.8,2.3 52.81,-16.22 104.68,-15.34 152.24,-4.24 10.21,2.38 20.2,5.22 29.97,8.48 9.43,3.15 18.63,6.67 27.6,10.52 84.22,36.18 146.61,100.63 161.78,144.17 3.94,11.31 16.32,17.25 27.61,13.34 11.31,-3.94 17.28,-16.3 13.34,-27.61 z m 201.17,230.94 c -51.52,54.84 -126.06,86.01 -169.51,100.55 -12.32,4.12 -18.98,17.47 -14.86,29.8 4.14,12.35 17.46,18.99 29.82,14.86 57.12,-19.11 105.25,-43.56 144.05,-72.32 32.59,-24.16 58.54,-51.38 77.36,-81.24 -6.07,100.75 -36.05,194.23 -68.11,242.81 -54.19,82.1 -90.2,287.74 -161.76,427.14 -4.24,8.26 -8.59,16.33 -13.09,24.08 -4.82,8.3 -9.8,16.28 -14.94,23.91 -0.33,0.5 -0.65,1.02 -0.99,1.51 -43.29,63.54 -185.99,296.85 -602.59,243 -416.601,-53.84 -511.331,-311.33 -537.046,-383.79 -54.512,-153.6 -11.738,-408.93 -47.274,-513.92 -18.339,-54.2 -23.679,-149.85 -5.101,-247.12 12.805,31.81 31.199,62.9 55.168,92.54 31.344,38.76 71.789,75.08 120.883,107.25 10.886,7.11 25.476,4.08 32.605,-6.8 7.129,-10.88 4.09,-25.48 -6.785,-32.61 -53.918,-35.32 -105.387,-83.25 -138.629,-138.81 -21.391,-35.76 -35.183,-74.68 -37.199,-115.48 21.637,-57.63 53.586,-111.02 98.445,-151 141.903,-126.46 471.533,-260.42 674.953,-235.18 98.18,13.17 208.5,64.63 309.43,131.7 7.53,5 15,10.08 22.41,15.24 7.41,5.17 14.76,10.39 22.04,15.7 101.42,73.99 189.21,161.22 239.11,236.42 22.01,33.18 36.98,70.64 46.45,109.93 8.4,68.58 -17.02,121.58 -54.84,161.83" /><path
             id="path56"
             style="fill:#ffffff;fill-opacity:1;fill-rule:nonzero;stroke:none"
             d="m 1422.99,909.039 c -41.74,-53.187 -8.92,-89.84 34.4,-112.73 26.31,-13.899 56.48,-22.739 76.22,-27.11 45.12,-9.969 163.75,6.063 242.34,149.871 5.42,9.922 10.61,20.512 15.61,31.68 4.3,9.609 8.36,19.852 12.29,30.43 1.99,5.332 4.14,10.25 6.02,15.84 73.02,216.45 -49.11,487.97 -125.43,544.83 -12.72,9.48 -33.06,-0.47 -44.39,-6.48 -11.33,-6.02 -21.82,-18.19 -19.07,-27.64 11.87,-40.77 15.79,-211.43 -6.39,-298.38 -0.6,-2.34 -1.46,-4.8 -2.16,-7.19 -7.81,-26.51 -21.94,-55.85 -39.98,-86.48 -2.31,-3.91 -4.66,-7.84 -7.08,-11.78 -2.09,-3.16 -4.18,-6.31 -6.33,-9.48 0.12,-0.02 0.24,-0.04 0.37,-0.06 -4.48,-7.1 -9.13,-14.23 -13.91,-21.4 -37.71,-56.48 -83.66,-114.39 -122.51,-163.921" /><path
             id="path58"
             style="fill:#6f2186;fill-opacity:1;fill-rule:nonzero;stroke:none"
             d="m 1581.26,1091.7 -4.93,-8.01 c -4.57,-7.25 -9.32,-14.52 -14.2,-21.83 -35.65,-53.41 -78.16,-107.528 -115.66,-155.282 l -7.75,-9.879 c -12,-15.301 -16.84,-28.98 -14.35,-40.648 3.9,-18.321 25.19,-32.981 42.37,-42.051 27.95,-14.789 59.1,-22.602 71.19,-25.27 3.95,-0.871 10.69,-1.921 20.28,-1.921 59.31,0 143.04,37.269 200.2,141.851 4.96,9.09 9.98,19.262 14.9,30.262 4.12,9.219 8.02,19.07 11.8,29.226 l 2.47,6.383 c 1.14,2.879 2.29,5.769 3.34,8.879 70.4,208.68 -50.51,471.8 -118.43,522.41 -7.87,-0.05 -19.31,-6.12 -23.06,-8.12 -4.05,-2.15 -7.15,-5.29 -8.48,-7.23 11.84,-47.03 16.18,-215.27 -6.99,-306.06 -0.46,-1.81 -1.03,-3.67 -1.62,-5.54 l -0.72,-2.34 c -7.59,-25.73 -20.61,-54.33 -39.79,-87.32 l 0.18,-0.03 -4.58,-7.45 c -1.64,-2.75 -3.31,-5.51 -5.02,-8.29 l -1.15,-1.74 z m -23.04,-344.891 -0.01,0 c -10.6,0 -20.33,0.972 -28.92,2.863 -13.68,3.027 -48.98,11.906 -81.25,28.957 -35.95,19 -57.08,42.242 -62.79,69.09 -5.07,23.82 2.34,48.601 22,73.672 l 7.77,9.89 c 35.92,45.758 76.51,97.429 110.66,148.049 l -0.54,0.08 23.56,35.54 c 1.98,3.26 4.28,7.09 6.52,10.89 18.41,31.23 31.2,58.82 38.03,81.98 l 1.96,6.48 c 21.02,82.38 17.77,249.37 6.57,287.84 -5.88,20.21 10.07,40.9 28.88,50.89 11.17,5.93 25.91,12.74 40.87,12.74 9.48,0 17.85,-2.65 24.86,-7.88 88.58,-66 205.4,-350.93 132.44,-567.261 -1.28,-3.777 -2.66,-7.297 -4.06,-10.809 l -2.17,-5.621 c -4.09,-10.988 -8.32,-21.629 -12.78,-31.617 -5.36,-11.961 -10.85,-23.094 -16.32,-33.102 -82.48,-150.929 -200.93,-162.671 -235.28,-162.671" /><path
             id="path60"
             style="fill:#ffffff;fill-opacity:1;fill-rule:nonzero;stroke:none"
             d="m 1977.85,166.539 c -44.43,109.141 -116.43,134.801 -210.88,139.75 -18.85,0.992 -74.91,3.141 -93.75,3.34 -19.13,0.211 -38.11,0.43 -56.63,1.402 -41.7,2.188 -72.32,7.84 -99.29,18.348 -8.32,3.25 -10.91,9.269 -10.38,19.422 0.47,8.929 13.03,25.398 19.8,33.179 22.11,25.45 209.6,260.282 250.94,472.829 -68.11,-95.93 -156.07,-132.411 -225.07,-128.789 -8.22,0.429 -15.95,1.441 -22.97,2.992 -28.68,6.328 -65.27,16.277 -97.11,32.136 -30.04,14.961 -55.85,35.192 -66.65,62.774 -8.13,20.719 -15.62,61.668 13.26,103.289 17.66,25.43 40.24,51.238 63.11,81.059 10.02,13.05 20,26.68 29.85,40.46 6.81,9.53 13.47,19.11 20,28.77 5.07,7.49 10.06,14.96 14.87,22.44 4.75,7.39 9.41,14.76 13.84,22.04 23.97,39.41 42.63,76.69 49.9,105.19 4.27,16.72 7.58,36.24 10.11,56.96 10.45,85.54 -4.52,225.89 -8.41,246.61 -2.74,14.62 -11.39,18.9 -21.51,18.22 -12.42,-0.85 -27.06,-9.19 -35.82,-15.38 -2.52,-1.77 -5.21,-3.48 -7.89,-5.19 -31.58,-20.08 -75.03,-35.47 -128.49,-43.57 -39.21,-5.94 -83.72,-8.01 -132.98,-5 -186.7,11.38 -428.591,87.59 -632.239,254.01 -23.539,19.24 -46.332,48.32 -66.371,79.94 -15.34,24.2 -29.012,49.82 -40.125,73.79 -9.672,20.86 -17.457,40.46 -22.59,56.56 -5.797,12.26 -11.512,24.3 -17.18,36.13 -91.398,190.69 -168.918,318.53 -320.882,180.92 -82.7232,-74.9 -105.438,-239.88 31.164,-403.66 116.351,-139.5 296.175,-276.22 557.132,-333.3 -1.578,-16.92 -2.765,-34.32 -3.289,-52.15 -1.668,-56.37 2.825,-115.84 17.371,-170.28 l -0.261,-0.24 25.742,-107.5 C 697.277,1074.32 649.707,1034.52 633.262,974.66 588.227,810.738 794.926,456.742 836.234,407.719 c 7.731,-10.047 14.778,-18.309 11.325,-28.727 -2.934,-8.832 -8.157,-11.164 -17.118,-13.613 -27.918,-7.629 -58.957,-10.059 -100.683,-7.867 -18.5,0.968 -74.485,4.679 -93.535,6.468 -18.754,1.77 -37.649,3.54 -56.512,4.532 -94.434,4.949 -168.723,-13.043 -224.313,-116.942 -13.222,-24.73 -16,-44.23 -8.273,-57.941 12.457,-22.059 54.266,-36.52 114.742,-39.688 67.328,-3.531 153.781,7.27 220.219,27.528 125.172,38.152 226.098,57.121 299.801,70.961 58.893,11.07 119.593,22.5 129.293,35.601 1.35,4.508 2.66,9.141 3.94,13.899 1.97,7.82 4.05,16.242 6.3,25.379 4.83,21.152 9.4,43.91 12.96,67.632 13.83,92.168 29.24,209.52 39.7,232.141 10.45,22.629 32.2,21.609 39.87,0.289 7.22,-20.039 -3.75,-180.449 0.72,-228.902 0.2,-1.91 0.4,-3.809 0.6,-5.699 1.65,-15.321 3.35,-29.989 5.08,-43.622 4.66,-32.609 10.94,-60.976 19.36,-75.617 20.76,-12.402 68.54,-26.699 115.17,-40.64 71.86,-21.481 170.25,-50.891 290.74,-101.911 63.96,-27.101 148.81,-46.8706 216.12,-50.398 l 0.02,0 c 60.47,-3.1718 103.59,6.8477 118.26,27.477 9.12,12.839 8.4,32.511 -2.17,58.48" /><path
             id="path62"
             style="fill:#ffffff;fill-opacity:1;fill-rule:nonzero;stroke:none"
             d="m 1349.41,3237.22 c 41.63,79.58 253.71,477.04 409.07,448.13 143.14,-26.64 9.33,-531.95 -18.4,-671.58 -88.01,126.33 -237.45,203.32 -390.67,223.45" /><path
             id="path64"
             style="fill:#ffffff;fill-opacity:1;fill-rule:nonzero;stroke:none"
             d="m 1444.02,2637.98 c 0.77,4.41 1.52,8.81 2.52,13.25 5.32,23.53 13.49,45.24 23.66,64.54 16,30.35 37.05,54.57 60.28,69.85 17.07,11.22 35.29,17.48 53.52,17.93 6.73,0.17 13.46,-0.26 20.13,-1.76 12.69,-2.87 24.18,-8.74 34.37,-16.91 34.43,-27.67 53.33,-82.71 49.22,-145.07 -0.9,-13.63 -2.77,-27.57 -5.96,-41.68 -22.08,-97.82 -92.63,-165.22 -157.59,-150.56 -62.01,14 -96.36,97.75 -80.15,190.41" /><path
             id="path66"
             style="fill:#6f2186;fill-opacity:1;fill-rule:nonzero;stroke:none"
             d="m 1586.67,2783.59 -2.18,-0.02 c -14.29,-0.36 -28.77,-5.29 -43.04,-14.67 -20.64,-13.58 -39.17,-35.18 -53.55,-62.46 -9.74,-18.46 -17.08,-38.52 -21.85,-59.62 -0.88,-3.92 -1.56,-7.82 -2.24,-11.74 -14.52,-82.99 13.98,-156.54 64.77,-168 4.44,-1 9.03,-1.51 13.62,-1.51 50.81,0 102.43,58.88 120.05,136.96 2.79,12.33 4.64,25.32 5.51,38.6 3.65,55.4 -12.35,104.51 -41.79,128.16 -8.12,6.51 -16.95,10.89 -26.24,12.98 -3.92,0.89 -8.18,1.32 -13.06,1.32 z m -44.47,-358.02 c -7.54,0 -15.09,0.84 -22.43,2.49 -72.81,16.44 -113.85,108.17 -95.46,213.37 0.89,5.09 1.69,9.62 2.72,14.18 5.54,24.55 14.11,47.92 25.48,69.48 17.53,33.23 40.68,59.95 66.97,77.24 20.61,13.53 42.14,20.67 64.01,21.22 l 3.18,0.04 c 7.89,0 15.06,-0.75 21.89,-2.3 15.25,-3.44 29.54,-10.45 42.46,-20.82 40.05,-32.17 61.22,-92.73 56.66,-161.98 -1.01,-15.35 -3.17,-30.41 -6.4,-44.76 -22.01,-97.45 -88.9,-168.16 -159.08,-168.16" /><path
             id="path68"
             style="fill:#ffffff;fill-opacity:1;fill-rule:nonzero;stroke:none"
             d="m 889.281,2375.26 c -62.683,-22.46 -140.922,35.85 -174.75,130.25 -8.015,22.38 -12.718,44.75 -14.543,66.2 -3.109,36.5 2.403,70.19 15.364,96.43 11.546,23.38 28.906,40.89 51.437,48.97 62.688,22.46 140.926,-35.86 174.75,-130.25 33.824,-94.4 10.43,-189.14 -52.258,-211.6" /><path
             id="path70"
             style="fill:#6f2186;fill-opacity:1;fill-rule:nonzero;stroke:none"
             d="m 794.832,2701.92 c -7.394,0 -14.551,-1.23 -21.289,-3.64 -21.086,-7.56 -33.535,-25.38 -40.266,-39 -11.367,-23.03 -16.113,-53.52 -13.359,-85.88 1.75,-20.57 6.27,-41.14 13.437,-61.14 25.293,-70.59 79.083,-121.82 127.891,-121.82 7.395,0 14.551,1.23 21.289,3.65 23.809,8.52 41.438,31.54 49.649,64.78 8.945,36.19 5.578,79.24 -9.473,121.23 -25.293,70.59 -79.07,121.82 -127.879,121.82 z m 66.414,-351.48 c -66.172,0 -134.246,61 -165.547,148.32 -8.328,23.26 -13.594,47.23 -15.644,71.24 -3.407,40.1 2.597,77.09 17.363,107 14.336,29.01 35.988,49.39 62.629,58.93 11.082,3.98 22.781,5.99 34.785,5.99 66.172,0 134.246,-61 165.535,-148.32 17.676,-49.32 21.457,-100.57 10.656,-144.32 -11.535,-46.68 -38.164,-79.66 -74.992,-92.85 -11.082,-3.97 -22.781,-5.99 -34.785,-5.99" /><path
             id="path72"
             style="fill:#6f2186;fill-opacity:1;fill-rule:nonzero;stroke:none"
             d="m 860.105,2417.61 c 42.915,8.84 69.262,56.94 58.856,107.42 -10.406,50.49 -53.629,84.24 -96.539,75.4 -42.91,-8.85 -69.262,-56.94 -58.856,-107.43 10.407,-50.48 53.629,-84.24 96.539,-75.39" /><path
             id="path74"
             style="fill:#6f2186;fill-opacity:1;fill-rule:nonzero;stroke:none"
             d="m 1481.05,2607.75 c -12.94,-49.89 10.96,-99.25 53.37,-110.25 42.41,-11 87.28,20.54 100.21,70.44 12.94,49.89 -10.95,99.25 -53.37,110.25 -42.41,11 -87.28,-20.54 -100.21,-70.44" /><path
             id="path76"
             style="fill:#6f2186;fill-opacity:1;fill-rule:nonzero;stroke:none"
             d="m 1238.09,2219.35 c -0.3,-0.03 -0.6,-0.03 -0.9,-0.07 l 1.79,0.24 c -0.3,-0.04 -0.59,-0.12 -0.89,-0.17 20.44,2.54 40.42,1.3 59.39,-2.9 9.13,-2.02 18.03,-4.68 26.59,-8.09 9.11,-3.62 17.89,-7.92 26.18,-12.98 42.24,-25.79 72.7,-69.3 79.46,-121.58 4.87,-37.69 -3.49,-74.02 -21.29,-104.78 -4.9,-8.47 -10.49,-16.51 -16.77,-24.02 -5.9,-7.06 -12.25,-13.76 -19.24,-19.82 -24.73,-21.44 -55.96,-36.16 -91.01,-40.87 0.3,0.03 0.6,0.03 0.9,0.07 l -1.79,-0.23 c 0.3,0.04 0.59,0.12 0.89,0.16 -94.01,-11.67 -179.69,53.3 -191.61,145.55 -11.93,92.25 54.42,176.87 148.3,189.49" /><path
             id="path78"
             style="fill:#6f2186;fill-opacity:1;fill-rule:nonzero;stroke:none"
             d="m 1073.48,711.469 c 105.44,28.371 142.61,303.521 11.65,376.441 -130.97,72.91 1.85,298.38 144.88,373.22 -112.77,-139.41 0.23,-242.66 108.71,-326.67 108.47,-84.01 7.3,-350.89 -265.24,-422.991" /><path
             id="path80"
             style="fill:#ffffff;fill-opacity:1;fill-rule:nonzero;stroke:none"
             d="m 401.352,3074.07 c 107.593,-173.37 309.753,-365.85 445.105,-273.24 130.871,89.54 72.324,392.61 -76.027,538.29 -125.778,-16.64 -362.344,-207.55 -369.078,-265.05" /><path
             id="path82"
             style="fill:#6f2186;fill-opacity:1;fill-rule:nonzero;stroke:none"
             d="m 770.43,3339.12 c -125.778,-16.64 -362.344,-207.55 -369.078,-265.05 88.261,-142.21 240.179,-297.32 366.632,-297.32 27.7,0 54.153,7.43 78.473,24.08 130.871,89.54 72.324,392.61 -76.027,538.29 l 0,0 z m -25.68,-85.19 C 809,3172.18 850.418,3047.71 842,2952.44 c -2.199,-24.88 -10.117,-69.5 -38.457,-88.89 -10.766,-7.37 -22.066,-10.8 -35.559,-10.8 -71.48,0 -188.066,95.43 -277.031,223.34 20.395,22.64 57.899,57.75 110.61,95.89 51.949,37.59 104.003,67.13 143.187,81.95" /></g></g></g></g></svg>