<?xml version="1.0" encoding="UTF-8" standalone="no"?>
<svg
   xmlns:dc="http://purl.org/dc/elements/1.1/"
   xmlns:cc="http://creativecommons.org/ns#"
   xmlns:rdf="http://www.w3.org/1999/02/22-rdf-syntax-ns#"
   xmlns:svg="http://www.w3.org/2000/svg"
   xmlns="http://www.w3.org/2000/svg"
   viewBox="0 0 414.97333 536.62665"
   height="536.62665"
   width="414.97333"
   xml:space="preserve"
   id="svg2"
   version="1.1"><metadata
     id="metadata8"><rdf:RDF><cc:Work
         rdf:about=""><dc:format>image/svg+xml</dc:format><dc:type
           rdf:resource="http://purl.org/dc/dcmitype/StillImage" /></cc:Work></rdf:RDF></metadata><defs
     id="defs6" /><g
     transform="matrix(1.3333333,0,0,-1.3333333,0,536.62667)"
     id="g10"><g
       transform="scale(0.1)"
       id="g12"><path
         id="path14"
         style="fill:#ffffff;fill-opacity:1;fill-rule:nonzero;stroke:none"
         d="m 2708.37,2051.17 c -229.94,167.96 -346.23,370.94 -336.31,586.99 12.56,273.52 -400.14,59.13 -62.01,261.4 10.12,6.05 15.03,18.05 12.07,29.46 -2.96,11.4 -12.67,19.37 -24.87,19.86 -361.84,11.31 -192.43,303.55 -527.83,18.24 l 3.57,-5.28 c 3.99,-5.86 7.86,-11.93 11.65,-18.1 4.67,-7.6 9.17,-15.46 13.56,-23.47 42.49,-77.56 72.46,-173.3 99.37,-259.43 21.97,-70.32 44.7,-143.04 66.75,-176.46 70.52,-106.85 134.03,-391.87 9.55,-579.48 -53.77,-81.04 -143.68,-170.72 -247.34,-247.29 -7.27,-5.37 -14.61,-10.67 -22.01,-15.91 -7.3,-5.16 -14.65,-10.25 -22.06,-15.26 133.02,-140.65 207.09,-287.36 224.46,-444.53 22.55,-204.219 -49.92,-432.969 -221.56,-699.328 -5.58,-8.652 -5.65,-19.742 -0.19,-28.473 4.63,-7.41 12.56,-11.98 21.12,-12.429 1.5,-0.071 3.03,-0.032 4.56,0.148 344.02,41.453 649.31,149.66 882.84,312.953 215.12,150.41 362.82,345.149 415.89,548.329 73.61,281.8 -36.17,554.46 -301.21,748.06" /><path
         id="path16"
         style="fill:#6f2186;fill-opacity:1;fill-rule:nonzero;stroke:none"
         d="m 1800.45,1613.25 c 108.36,-133.49 169.39,-272.43 185.98,-422.55 21.76,-197.009 -35.27,-411.618 -174.07,-653.45 285.25,47.941 537.87,144.93 735.5,283.102 199.55,139.519 336.04,318.158 384.32,502.978 64.86,248.31 -33.92,490.06 -271,663.24 -252.64,184.54 -380.24,411.12 -369.02,655.26 11.51,251.11 -263.69,240.4 -1.03,444.09 -272.19,-45.14 -152.74,74.43 -417.65,-136.73 43.65,-82.7 73.76,-179.08 100.45,-264.49 17.43,-55.8 41.3,-132.22 57.16,-156.24 92.23,-139.76 148.65,-457.97 9.44,-667.79 -53.69,-80.92 -140.17,-169.88 -240.08,-247.42 z m -92.76,-1251.602 -6.09,0.18 c -34.11,1.742 -65.82,20.402 -84.25,49.852 -21.82,34.832 -21.51,79.679 0.76,114.25 161.28,250.281 229.75,461.98 209.3,647.2 -15.47,139.92 -81.9,270.22 -203.08,398.33 l -64.7,68.41 77.97,52.8 c 6.97,4.72 13.88,9.51 20.75,14.36 6.9,4.89 13.81,9.88 20.66,14.95 96.56,71.31 179.75,154.11 228.2,227.15 102.02,153.76 47.13,405.14 -9.65,491.19 -28.31,42.88 -51.64,117.58 -76.35,196.67 -25.49,81.57 -54.38,174.03 -93.17,244.85 -3.75,6.84 -7.57,13.54 -11.56,20.02 -3.1,5.05 -6.3,10.07 -9.6,14.92 l -43.8,64.91 54.51,46.36 c 362.35,308.25 189.79,1.27 551.05,1.27 10.43,0 20.81,-0.15 31.11,-0.47 48.14,-1.96 87.93,-34.01 99.81,-79.75 11.78,-45.46 -8.13,-94.06 -48.43,-118.18 -315.06,-188.47 112.17,50.21 100.85,-196.43 -8.63,-187.98 96.35,-367.34 303.57,-518.72 292.99,-214.01 413.79,-517.59 331.44,-832.87 C 3029.12,1061.34 2870.2,850.5 2639.54,689.219 2395.27,518.43 2077.45,405.422 1720.43,362.41 c -4.56,-0.531 -8.67,-0.762 -12.74,-0.762" /><path
         id="path18"
         style="fill:#ffffff;fill-opacity:1;fill-rule:nonzero;stroke:none"
         d="m 1709,1982.41 c -18.17,-52.19 -80.99,-118.65 -165.65,-160.37 -3.8,-1.87 -7.61,-3.73 -11.49,-5.5 -0.62,-1.3 -1.37,-2.55 -2.26,-3.74 -2.18,-2.92 -4.32,-5.73 -6.48,-8.59 -5.43,-7.21 -10.8,-14.25 -16.1,-21.12 -62.09,-80.4 -116.39,-136.54 -193.6,-146.52 -8.84,-1.14 -17.99,-1.47 -27.5,-0.97 -61.96,3.25 -138.38,41.46 -232.44,116.06 -1.78,1.41 -3.19,3.1 -4.4,4.89 -94.752,18.04 -174.752,67.21 -206.17,113.92 -6.687,9.94 -4.058,23.41 5.887,30.1 9.93,6.69 23.41,4.05 30.094,-5.89 44.539,-66.19 241.759,-157.21 399.769,-59.22 5.33,3.29 11.84,4.13 17.8,2.3 52.81,-16.22 104.68,-15.35 152.24,-4.25 10.21,2.38 20.2,5.23 29.97,8.49 9.43,3.15 18.63,6.67 27.6,10.52 84.22,36.18 146.61,100.63 161.78,144.16 3.94,11.31 16.32,17.25 27.61,13.35 11.31,-3.94 17.28,-16.3 13.34,-27.62 z m -470.91,236.94 c -0.3,-0.04 -0.6,-0.03 -0.9,-0.07 l 1.79,0.23 c -0.3,-0.04 -0.59,-0.12 -0.89,-0.16 20.44,2.54 40.42,1.3 59.39,-2.91 9.13,-2.02 18.03,-4.67 26.59,-8.08 9.11,-3.63 17.89,-7.92 26.18,-12.99 42.24,-25.78 72.7,-69.29 79.46,-121.58 4.87,-37.69 -3.49,-74.02 -21.29,-104.78 -4.9,-8.47 -10.49,-16.5 -16.77,-24.02 -5.9,-7.05 -12.25,-13.75 -19.24,-19.81 -24.73,-21.45 -55.96,-36.17 -91.01,-40.88 0.3,0.04 0.6,0.03 0.9,0.07 l -1.79,-0.23 c 0.3,0.04 0.59,0.12 0.89,0.16 -94.01,-11.66 -179.69,53.31 -191.61,145.56 -11.93,92.25 54.42,176.87 148.3,189.49 z m 672.08,-6 c -51.52,54.84 -126.06,86.01 -169.51,100.55 -12.32,4.13 -18.98,17.48 -14.86,29.81 4.14,12.34 17.46,18.98 29.82,14.86 57.12,-19.12 105.25,-43.56 144.05,-72.32 32.59,-24.16 58.54,-51.39 77.36,-81.25 -6.07,100.76 -36.05,194.24 -68.11,242.81 -54.19,82.1 -90.2,287.75 -161.76,427.15 -4.24,8.26 -8.59,16.32 -13.09,24.07 -4.82,8.31 -9.8,16.28 -14.94,23.92 -0.33,0.49 -0.65,1.02 -0.99,1.51 -43.29,63.53 -185.99,296.85 -602.59,243 -416.601,-53.85 -511.331,-311.34 -537.046,-383.79 -54.512,-153.6 -11.738,-408.93 -47.274,-513.92 -18.339,-54.2 -23.679,-149.86 -5.101,-247.12 12.805,31.8 31.199,62.89 55.168,92.53 31.344,38.76 71.789,75.09 120.883,107.25 10.886,7.12 25.476,4.09 32.605,-6.8 7.129,-10.87 4.09,-25.47 -6.785,-32.6 -53.918,-35.33 -105.387,-83.25 -138.629,-138.82 -21.391,-35.75 -35.183,-74.67 -37.199,-115.47 21.637,-57.64 53.586,-111.03 98.445,-151.01 141.903,-126.46 471.533,-260.41 674.953,-235.17 98.18,13.17 208.5,64.63 309.43,131.7 7.53,5 15,10.07 22.41,15.24 7.41,5.16 14.76,10.39 22.04,15.7 101.42,73.99 189.21,161.22 239.11,236.41 22.01,33.18 36.98,70.64 46.45,109.94 8.4,68.57 -17.02,121.57 -54.84,161.82" /><path
         id="path20"
         style="fill:#6f2186;fill-opacity:1;fill-rule:nonzero;stroke:none"
         d="m 1248.35,2140 c -49.94,-6.92 -85.46,-51.65 -79.22,-99.89 6.15,-47.67 52.01,-82.53 102.03,-76.46 18.31,2.53 35.18,10.13 48.84,21.96 3.27,2.84 6.64,6.34 10.29,10.71 3.24,3.88 6.23,8.18 8.86,12.72 6.82,11.79 14.28,30.77 11.22,54.5 -3.4,26.24 -18.63,49.41 -41.8,63.55 -4.19,2.56 -8.9,4.88 -14.06,6.93 -4.31,1.71 -9.12,3.17 -14.34,4.32 -10.56,2.33 -21.13,2.95 -31.82,1.66 z m -11.02,-410.71 c 22.93,-9.57 40.16,-13.14 52.78,-13.8 4.5,-0.24 8.85,-0.12 13.05,0.42 20.78,2.68 40.33,11.56 62.37,29.7 -22.71,0.86 -45.24,3.84 -67.33,8.91 -19.54,-10.28 -39.86,-18.71 -60.87,-25.23 z m -603.592,210.87 c 18.27,-43 41.805,-77.5 70.106,-102.73 71.672,-63.88 202.062,-132.45 335.006,-175.28 -8.91,6.56 -17.99,13.44 -27.2,20.63 -101.271,24.14 -191.966,78.9 -235.119,143.03 -15.168,22.57 -20.636,49.64 -15.429,76.27 5.214,26.69 20.515,49.73 43.074,64.89 16.777,11.3 36.418,17.3 56.711,17.3 33.926,0 65.476,-16.81 84.402,-44.96 10.461,-15.55 64.691,-52.62 136.911,-63.7 -38.29,37.74 -64.48,87.71 -71.75,144 -17.368,134.42 78.4,258.74 213.95,278.59 l 2.39,0.39 v -0.01 l 4.13,0.47 c 27.8,3.18 56.19,1.62 83.84,-4.49 13.59,-3.02 26.66,-7 38.89,-11.88 13.55,-5.38 26.45,-11.79 38.33,-19.05 64.74,-39.52 107.42,-104.98 117.06,-179.58 6.98,-53.94 -3.88,-107.58 -31.39,-155.11 -0.42,-0.73 -0.85,-1.46 -1.28,-2.18 69.36,30.3 110.58,80.32 116.13,96.24 14.24,40.82 52.84,68.23 96.06,68.23 11.34,0 22.53,-1.89 33.26,-5.6 53.08,-18.52 81.15,-76.58 62.75,-129.5 -26.1,-74.92 -104.02,-153.89 -199.52,-202.67 -4.95,-6.55 -9.86,-12.98 -14.72,-19.27 -3.29,-4.27 -6.61,-8.53 -9.95,-12.78 10.08,6.23 20.19,12.71 30.34,19.46 7.05,4.68 14.02,9.42 20.95,14.25 6.96,4.84 13.82,9.71 20.59,14.66 92.6,67.55 174.69,148.31 219.63,216.04 14.87,22.39 26.34,49.2 34.17,79.74 3.22,35.17 -7.71,64.84 -34.19,93.01 -40.25,42.85 -102.85,68.18 -136.58,79.46 -54.18,18.15 -83.47,76.96 -65.34,131.09 14.14,42.26 53.6,70.67 98.17,70.67 11.17,0 22.23,-1.8 32.85,-5.35 19.09,-6.38 37.45,-13.37 55.02,-20.92 -30.25,50.36 -52.57,121.76 -78.15,203.64 -24.28,77.68 -49.39,158.01 -81.86,221.27 -3.59,6.99 -7.27,13.84 -11.09,20.44 -3.92,6.73 -7.94,13.19 -12.1,19.37 l -5.32,7.92 c -38.59,57.25 -141.08,209.3 -412.76,209.3 -34.58,0 -71.23,-2.47 -108.9,-7.33 -246.458,-31.86 -405.228,-143.3 -471.915,-331.23 -25.598,-72.13 -25.957,-182.14 -26.27,-279.21 -0.285,-88 -0.539,-164.72 -17.258,-222.83 15.196,11.98 31.192,23.48 47.961,34.47 16.973,11.09 36.563,16.93 56.727,16.93 35.05,0 67.433,-17.49 86.64,-46.8 31.301,-47.75 17.903,-112.07 -29.851,-143.37 -49.035,-32.12 -89.453,-72.24 -113.821,-112.98 -12.761,-21.32 -20.898,-42.44 -24.285,-62.95 z m 638.852,-480.72 h -0.01 c -230.36,0.01 -535.092,133.69 -675.189,258.55 -27.473,24.48 -51.797,53.42 -72.813,86.54 l -25.918,-64.4 -51.105,267.49 c -19.922,104.24 -16.895,214.51 7.89,287.77 11.7,34.55 11.946,109.93 12.18,182.82 0.359,109.86 0.762,234.37 35.488,332.21 110.215,310.58 388.301,408.74 602.187,436.38 44.45,5.75 88,8.66 129.41,8.66 356.79,0 498.77,-210.65 545.43,-279.87 l 5.79,-8.64 c 5.67,-8.39 11.61,-17.89 17.34,-27.78 5.16,-8.89 10.17,-18.16 15.05,-27.67 38.76,-75.49 67.17,-166.4 92.23,-246.62 21.69,-69.4 44.12,-141.18 65.13,-173 42.93,-65.04 74.81,-175.76 81.2,-282.07 l 18.74,-311.23 -49.75,78.93 c -10.91,-29 -24.52,-55.82 -40.66,-80.16 -55.68,-83.92 -149.95,-177.53 -258.62,-256.8 -7.75,-5.66 -15.58,-11.23 -23.5,-16.74 -7.84,-5.47 -15.81,-10.88 -23.83,-16.21 -84.57,-56.2 -212.74,-126.88 -343.05,-144.35 -20.57,-2.56 -41.71,-3.81 -63.62,-3.81" /><path
         id="path22"
         style="fill:#ffffff;fill-opacity:1;fill-rule:nonzero;stroke:none"
         d="m 842.688,3168.8 c -58.5,68.15 -350.571,402.12 -495.411,338.94 -133.461,-58.21 115.172,-529.21 173.653,-658.99 53.05,131.24 181.703,265.27 321.758,320.05" /><path
         id="path24"
         style="fill:#6f2186;fill-opacity:1;fill-rule:nonzero;stroke:none"
         d="m 388.023,3435.65 c -6.992,-39.45 15.93,-145.47 140.508,-415.09 51.153,67.47 115.703,127.38 185.774,171.9 -155.364,166.76 -273.332,242.68 -326.282,243.19 z m 136.907,-790.49 -76.934,170.72 c -7.316,16.24 -17.687,37.94 -29.922,63.56 -141.808,296.97 -220.957,504.45 -177.461,621.07 13.985,37.5 39.813,65.35 74.688,80.56 22.176,9.68 46.472,14.58 72.207,14.58 160.496,0 369.121,-203.79 515.879,-374.74 l 73.426,-85.55 -104.989,-41.06 C 758.016,3049.77 641.637,2933.9 595.105,2818.77 L 524.93,2645.16" /><path
         id="path26"
         style="fill:#ffffff;fill-opacity:1;fill-rule:nonzero;stroke:none"
         d="m 1422.99,909.039 c -41.74,-53.187 -8.92,-89.84 34.4,-112.738 26.31,-13.903 56.48,-22.742 76.22,-27.102 45.12,-9.969 163.75,6.063 242.34,149.86 5.42,9.921 10.61,20.519 15.61,31.691 4.3,9.602 8.36,19.84 12.29,30.422 1.99,5.34 4.14,10.258 6.02,15.848 73.02,216.44 -49.11,487.96 -125.43,544.83 -12.72,9.48 -33.06,-0.47 -44.39,-6.49 -11.33,-6.01 -21.82,-18.19 -19.07,-27.63 11.87,-40.77 15.79,-211.44 -6.39,-298.38 -0.6,-2.34 -1.46,-4.8 -2.16,-7.19 -7.81,-26.51 -21.94,-55.85 -39.98,-86.48 -2.31,-3.92 -4.66,-7.84 -7.08,-11.79 -2.09,-3.15 -4.18,-6.3 -6.33,-9.48 0.12,-0.02 0.24,-0.04 0.37,-0.06 -4.48,-7.1 -9.13,-14.23 -13.91,-21.39 -37.71,-56.49 -83.66,-114.39 -122.51,-163.921" /><path
         id="path28"
         style="fill:#6f2186;fill-opacity:1;fill-rule:nonzero;stroke:none"
         d="m 1492.62,868.191 c 0.69,-0.371 1.4,-0.761 2.14,-1.152 22.1,-11.68 48.54,-18.059 56.12,-19.73 0,0 2.42,-0.5 7.33,-0.5 14.55,0 90,5.332 147.54,110.621 4.21,7.699 8.51,16.461 12.8,26.019 3.61,8.051 7,16.701 10.32,25.621 l 2.91,7.51 c 0.77,1.94 1.57,3.88 2.28,5.98 36.89,109.37 12.43,237.96 -23.84,331.36 -1.31,-59.23 -6.89,-120.37 -18.11,-164.35 -0.74,-2.84 -1.61,-5.79 -2.54,-8.73 -2.48,-8.39 -5.34,-16.87 -8.63,-25.5 l 10.12,-1.67 -64,-102.02 c -4.85,-7.67 -9.87,-15.37 -15.03,-23.11 -36.94,-55.329 -80.2,-110.419 -118.36,-159.02 z m 65.59,-181.382 c -14.94,0 -29.03,1.441 -41.87,4.273 -19.95,4.418 -58.99,14.758 -96.33,34.508 -65.3,34.492 -86.86,78.66 -93.45,109.64 -6.15,28.891 -5.33,73.719 33.49,123.2 l 7.78,9.91 c 27.02,34.4 56.71,72.21 83.93,109.95 l 46.2,68.7 c 1.9,3.13 3.76,6.24 5.58,9.34 15.89,26.96 26.72,50.01 32.15,68.44 l 1.27,4.15 c 18.88,73.76 15.17,225.85 7.14,256.71 -13.24,45.44 10.75,95.07 58.43,120.38 17.31,9.2 40.8,19.75 69,19.75 22.37,0 43.38,-6.84 60.73,-19.78 100.81,-75.12 239.05,-380.71 153.41,-634.539 -1.61,-4.769 -3.34,-9.23 -5.1,-13.691 l -1.73,-4.461 c -4.56,-12.25 -9.28,-24.09 -14.24,-35.199 -6.03,-13.43 -12.22,-25.988 -18.44,-37.379 -98.33,-179.922 -245.25,-193.902 -287.95,-193.902" /><path
         id="path30"
         style="fill:#ffffff;fill-opacity:1;fill-rule:nonzero;stroke:none"
         d="m 1073.48,711.469 c 105.44,28.363 142.61,303.521 11.65,376.431 -130.97,72.92 1.85,298.38 144.88,373.22 -112.77,-139.4 0.23,-242.66 108.71,-326.66 108.47,-84.01 7.3,-350.901 -265.24,-422.991 z m 904.37,-544.938 c -44.43,109.149 -116.43,134.809 -210.88,139.758 -18.85,0.981 -74.91,3.141 -93.75,3.34 -19.13,0.203 -38.11,0.422 -56.63,1.402 -41.7,2.18 -72.32,7.84 -99.29,18.34 -8.32,3.25 -10.91,9.27 -10.38,19.418 0.47,8.941 13.03,25.402 19.8,33.191 22.11,25.45 209.6,260.27 250.94,472.821 -68.11,-95.93 -156.07,-132.403 -225.07,-128.789 -8.22,0.429 -15.95,1.437 -22.97,2.988 -28.68,6.34 -65.27,16.289 -97.11,32.141 -30.04,14.968 -55.85,35.191 -66.65,62.769 -8.13,20.719 -15.62,61.668 13.26,103.289 17.66,25.442 40.24,51.25 63.11,81.061 10.02,13.05 20,26.68 29.85,40.46 6.81,9.54 13.47,19.11 20,28.77 5.07,7.5 10.06,14.97 14.87,22.44 4.75,7.39 9.41,14.76 13.84,22.05 23.97,39.41 42.63,76.68 49.9,105.18 4.27,16.72 7.58,36.25 10.11,56.96 10.45,85.55 -4.52,225.89 -8.41,246.61 -2.74,14.62 -11.39,18.91 -21.51,18.22 -12.42,-0.84 -27.06,-9.19 -35.82,-15.37 -2.52,-1.78 -5.21,-3.48 -7.89,-5.19 -31.58,-20.09 -75.03,-35.48 -128.49,-43.58 -39.21,-5.94 -83.72,-8 -132.98,-5 -186.7,11.38 -428.591,87.6 -632.239,254.02 -23.539,19.23 -46.332,48.32 -66.371,79.93 -15.34,24.2 -29.012,49.82 -40.125,73.79 -9.672,20.87 -17.457,40.47 -22.59,56.56 -5.797,12.26 -11.512,24.3 -17.18,36.13 -91.398,190.69 -168.918,318.53 -320.882,180.93 -82.7232,-74.91 -105.438,-239.88 31.164,-403.66 116.351,-139.5 296.175,-276.23 557.132,-333.3 -1.578,-16.92 -2.765,-34.32 -3.289,-52.15 -1.668,-56.38 2.825,-115.85 17.371,-170.28 l -0.261,-0.25 25.742,-107.49 C 697.277,1074.31 649.707,1034.52 633.262,974.648 588.227,810.742 794.926,456.73 836.234,407.711 c 7.731,-10.051 14.778,-18.313 11.325,-28.723 -2.934,-8.828 -8.157,-11.156 -17.118,-13.617 -27.918,-7.633 -58.957,-10.051 -100.683,-7.871 -18.5,0.969 -74.485,4.68 -93.535,6.469 -18.754,1.773 -37.649,3.551 -56.512,4.543 -94.434,4.949 -168.723,-13.051 -224.313,-116.953 -13.222,-24.719 -16,-44.219 -8.273,-57.93 12.457,-22.059 54.266,-36.52 114.742,-39.688 67.328,-3.531 153.781,7.27 220.219,27.528 125.172,38.152 226.098,57.113 299.801,70.961 58.893,11.07 119.593,22.492 129.293,35.601 1.35,4.5 2.66,9.141 3.94,13.891 1.97,7.828 4.05,16.25 6.3,25.379 4.83,21.16 9.4,43.918 12.96,67.64 13.83,92.161 29.24,209.52 39.7,232.137 10.45,22.621 32.2,21.602 39.87,0.293 7.22,-20.051 -3.75,-180.461 0.72,-228.91 0.2,-1.902 0.4,-3.813 0.6,-5.691 1.65,-15.321 3.35,-30 5.08,-43.629 4.66,-32.61 10.94,-60.969 19.36,-75.61 20.76,-12.41 68.54,-26.711 115.17,-40.652 71.86,-21.481 170.25,-50.887 290.74,-101.91 63.96,-27.09 148.81,-46.8674 216.12,-50.3987 h 0.02 c 60.47,-3.1719 103.59,6.8516 118.26,27.4807 9.12,12.84 8.4,32.508 -2.17,58.48" /><path
         id="path32"
         style="fill:#6f2186;fill-opacity:1;fill-rule:nonzero;stroke:none"
         d="m 1282.94,1398.48 c -22.3,-32.17 -20.1,-51.1 -19.32,-57.8 6,-51.52 85.75,-113.29 124.08,-142.98 20.58,-15.93 37.09,-35.85 49.24,-58.7 0.93,1.42 1.85,2.84 2.76,4.26 4.35,6.76 8.64,13.53 12.71,20.24 30.28,49.8 38.59,74.95 40.77,83.45 3.16,12.41 5.93,28.18 8.2,46.87 4.76,38.89 3.2,95.24 0.16,141.87 -32.65,-13.72 -69.72,-23.74 -110.88,-29.98 -33.92,-5.14 -70.13,-7.64 -107.72,-7.23 z m -154.21,-155.42 c -10.77,-22.47 -16.96,-43.57 -17.17,-60.52 -0.22,-16.44 4.8,-20.47 12.48,-24.75 77.72,-43.26 123.95,-136.74 124.88,-246.341 26.77,33.289 43.51,68.281 49.88,99.631 5.74,28.3 2.26,51.34 -9.07,60.12 -61.31,47.48 -126.22,102.31 -161,171.86 z m -291.613,-68.37 33.184,-138.58 -76.25,-19.56 C 722.703,998.25 713.766,965.711 710.398,953.461 678.648,837.891 848.141,517.719 897.41,459.27 l 2.254,-2.801 c 11.906,-15.418 40.5,-52.43 23.82,-102.68 -4.484,-13.508 -11.086,-25.148 -19.785,-34.898 22.938,4.57 44.09,8.531 63.406,12.16 21.985,4.129 54.095,10.168 76.665,15.551 4.74,20.839 8.6,40.929 11.5,60.226 2.62,17.461 5.3,35.844 7.99,54.32 13.71,94.051 21.6,145.102 29.94,175.762 l -40.5,151.809 c 9.12,5.07 35.52,48.031 36.17,116.691 0.52,53.68 -16.23,97.88 -42.66,112.59 -61.983,34.51 -95.589,93.68 -94.64,166.62 1.094,83.87 47.957,172.31 110.38,242.19 -178.368,42.01 -356.231,128.32 -499.11,245.07 -28.262,23.1 -56.301,56.42 -83.32,99.05 -16.27,25.67 -31.875,54.36 -45.137,82.99 -9.934,21.4 -18.332,42.2 -24.473,60.52 -5,10.56 -9.933,20.97 -14.844,31.19 -22.91,47.82 -92.609,193.23 -132.597,193.23 -5.071,0 -24.563,-2.67 -62.461,-37 -56.77,-51.4 -62.434,-171.61 38.906,-293.11 90.391,-108.38 252.734,-249.51 512.781,-306.39 l 69.114,-15.11 -6.543,-70.44 c -1.575,-16.9 -2.551,-32.3 -2.989,-47.11 -1.593,-54.36 3.485,-105.29 14.696,-147.28 l 12.433,-46.53 z M 1304.26,332.629 c 21.82,-7.641 52.46,-16.801 73.54,-23.098 20.08,-6.011 42.18,-12.609 66.24,-20.121 -12.12,17.602 -18.26,39.52 -17.01,63.539 0.5,9.571 2.02,38.571 39.28,81.481 22.55,25.949 88.58,112.5 145.58,215.8 -21.01,-3.769 -42.63,-5.199 -63.49,-4.109 -12.6,0.668 -24.74,2.27 -36.06,4.77 -45.85,10.129 -83.64,22.769 -115.5,38.64 -34.16,17.028 -61.05,37.789 -80.4,62.02 -19.11,-16.961 -40.09,-32.981 -62.93,-47.692 15.8,-12.007 28.34,-28.937 35.72,-49.398 8.14,-22.621 8.36,-47.461 5.8,-143.859 -1.04,-38.793 -2.33,-87.082 -0.7,-104.782 l 0.52,-4.851 c 1.55,-14.43 3.19,-28.598 4.86,-41.77 1.6,-11.097 3.16,-19.82 4.55,-26.57 z M 439.5,236.34 c 7.48,-1.078 16.309,-1.981 26.551,-2.508 59.191,-3.113 135.89,6.816 192.695,24.168 23.457,7.148 46.067,13.641 67.813,19.559 -0.332,0.023 -0.653,0.031 -0.985,0.05 -19.179,1.012 -76.086,4.762 -96.855,6.719 -17.649,1.66 -35.43,3.352 -53.184,4.281 -7.59,0.403 -15.019,0.629 -22.297,0.629 -50.086,0 -83.476,-8.797 -113.738,-52.898 z m 1171.92,-5.149 c 21.01,-8.16 42.81,-16.98 65.39,-26.543 55.22,-23.398 131.2,-41.148 189.11,-44.179 9.66,-0.508 19.08,-0.571 26.82,-0.297 -24.96,46.789 -58.26,62.469 -129.96,66.226 -18.88,0.981 -73.45,3.051 -90.43,3.231 -20.23,0.223 -40.32,0.48 -59.93,1.5 -0.33,0.019 -0.66,0.043 -1,0.062 z M 1883.05,0 h -0.01 c -8.16,0 -16.67,0.21875 -25.47,0.679688 C 1780.5,4.71875 1687.32,26.4219 1614.41,57.3086 1497.91,106.641 1402,135.301 1331.97,156.23 c -64.69,19.348 -105.94,32.282 -133.3,48.622 l -17.89,10.699 -10.39,18.058 c -0.07,0.102 -0.13,0.211 -0.19,0.313 C 1142.19,202.32 1094.54,192.199 996.656,173.809 924.793,160.301 826.375,141.82 705.406,104.949 630.855,82.2109 534.344,70.0586 457.684,74.0391 365.418,78.8906 304.781,105.891 277.457,154.309 c -15.176,26.941 -26.191,72.171 7.395,134.98 76.718,143.383 189.921,159.949 268.386,159.949 10,0 20.235,-0.297 30.664,-0.84 19.953,-1.046 39.961,-2.898 59.825,-4.777 14.543,-1.371 54.765,-4.101 78.086,-5.531 -79.149,133.07 -210.575,394.398 -165.692,557.75 13.231,48.17 45.762,108.07 123.836,148.08 l -20.223,84.46 1.094,1.01 c -7.219,41.44 -10.48,86.03 -9.746,133.23 -265.977,74.64 -436.594,225.6 -535.039,343.65 -123.33206,147.87 -173.4571,378.34 -23.4297,514.2 58.2537,52.74 113.8087,78.39 169.8557,78.39 140.73,0 216.211,-157.49 276.863,-284.04 5.734,-11.94 11.516,-24.13 17.375,-36.53 l 3.875,-9.85 c 4.191,-13.13 10.93,-29.9 18.965,-47.24 10.383,-22.42 22.519,-44.76 35.117,-64.62 17.316,-27.31 34.863,-48.91 49.414,-60.8 164.746,-134.63 382.072,-222.61 582.242,-235.84 l 288.75,151.07 -107,-132.26 c 16.23,5.8 27.96,11.92 36.15,17.14 1.74,1.1 3.23,2.01 4.6,2.98 17.71,12.5 45.27,27.75 76.6,29.9 l 7.45,0.25 c 49.32,0 88.77,-33.56 98.14,-83.53 4.36,-23.18 21.16,-173.23 9.19,-271.08 -3.1,-25.45 -7.14,-48 -11.99,-67.03 -8.84,-34.6 -28.15,-76.13 -59.06,-126.97 -4.76,-7.82 -9.79,-15.78 -14.92,-23.76 -5.16,-8.01 -10.47,-15.97 -15.86,-23.96 -6.95,-10.25 -13.99,-20.38 -21.2,-30.47 -10.4,-14.548 -20.92,-28.911 -31.46,-42.65 -9.29,-12.109 -18.53,-23.59 -27.44,-34.66 -12.48,-15.488 -24.27,-30.129 -33.44,-43.328 -8.26,-11.91 -7.01,-22.051 -4.5,-28.461 0.94,-2.16 8.04,-10.492 27.87,-20.383 19.72,-9.816 46.19,-18.437 78.67,-25.617 1.9,-0.422 5.13,-0.973 9.9,-1.211 1.72,-0.09 3.44,-0.14 5.18,-0.14 19.42,0 87.67,6.89 150.49,95.351 l 214.5,302.089 -70.75,-363.679 c -34.1,-175.32 -154.16,-357.332 -221.83,-449.191 13.08,-0.43 26.36,-0.578 39.72,-0.711 20.78,-0.238 78.58,-2.481 97.07,-3.449 96.89,-5.078 216.37,-31.211 280.8,-189.489 26.85,-65.98 11.16,-109.8199 -6.73,-134.9801 C 2016.12,20.7617 1961.55,0 1883.05,0" /><path
         id="path34"
         style="fill:#ffffff;fill-opacity:1;fill-rule:nonzero;stroke:none"
         d="m 1349.41,3237.21 c 41.63,79.58 253.71,477.04 409.07,448.14 143.14,-26.64 9.33,-531.96 -18.4,-671.58 -88.01,126.33 -237.45,203.31 -390.67,223.44" /><path
         id="path36"
         style="fill:#6f2186;fill-opacity:1;fill-rule:nonzero;stroke:none"
         d="m 1471.25,3292.93 c 82.99,-24.6 158.6,-63.63 222.45,-114.55 59.17,284.54 57.45,390.98 41.87,427.26 -43.99,-10.51 -141.69,-100.35 -264.32,-312.71 z m 310.68,-479.18 -107.49,154.29 c -70,100.48 -195.4,171.45 -335.46,189.86 l -113.57,14.92 53.11,101.48 c 171.04,326.83 326.97,492.56 463.46,492.56 10.49,0 20.97,-0.97 31.13,-2.86 37.64,-7.01 69.26,-28.43 91.45,-61.98 68.62,-103.75 40.49,-311.67 -31.32,-635.76 -6.07,-27.38 -11.23,-50.65 -14.69,-68.07 l -36.62,-184.44" /><path
         id="path38"
         style="fill:#ffffff;fill-opacity:1;fill-rule:nonzero;stroke:none"
         d="m 2708.37,2051.17 c -229.94,167.96 -346.23,370.94 -336.31,586.99 12.56,273.52 -400.14,59.13 -62.01,261.4 10.12,6.05 15.03,18.05 12.07,29.46 -2.96,11.4 -12.67,19.37 -24.87,19.86 -361.84,11.31 -192.43,303.55 -527.83,18.24 l 3.57,-5.28 c 3.99,-5.86 7.86,-11.93 11.65,-18.1 4.67,-7.6 9.17,-15.46 13.56,-23.47 42.49,-77.56 72.46,-173.3 99.37,-259.43 21.97,-70.32 44.7,-143.04 66.75,-176.46 70.52,-106.85 134.03,-391.87 9.55,-579.48 -53.77,-81.04 -143.68,-170.72 -247.34,-247.29 -7.27,-5.37 -14.61,-10.67 -22.01,-15.91 -7.3,-5.16 -14.65,-10.25 -22.06,-15.26 133.02,-140.65 207.09,-287.36 224.46,-444.53 22.55,-204.219 -49.92,-432.969 -221.56,-699.328 -5.58,-8.652 -5.65,-19.742 -0.19,-28.473 4.63,-7.41 12.56,-11.98 21.12,-12.429 1.5,-0.071 3.03,-0.032 4.56,0.148 344.02,41.453 649.31,149.66 882.84,312.953 215.12,150.41 362.82,345.149 415.89,548.329 73.61,281.8 -36.17,554.46 -301.21,748.06" /><path
         id="path40"
         style="fill:#ffffff;fill-opacity:1;fill-rule:nonzero;stroke:none"
         d="m 1293.12,1793.56 c -52.65,-30.51 -109.13,-43.35 -163.94,-44.18 74.03,-51.35 135.2,-75.38 178.68,-69.8 56.69,7.33 100.08,48.29 150.72,111.9 -52.02,-12.17 -108.35,-13.61 -165.46,2.08" /><path
         id="path42"
         style="fill:#ffffff;fill-opacity:1;fill-rule:nonzero;stroke:none"
         d="m 1237.19,2219.28 c 0.3,0.04 0.6,0.03 0.9,0.07 0.3,0.04 0.59,0.12 0.89,0.16 l -1.79,-0.23" /><path
         id="path44"
         style="fill:#ffffff;fill-opacity:1;fill-rule:nonzero;stroke:none"
         d="m 1282.3,1884.37 c -0.3,-0.04 -0.6,-0.03 -0.9,-0.07 -0.3,-0.04 -0.59,-0.12 -0.89,-0.16 l 1.79,0.23" /><path
         id="path46"
         style="fill:#ffffff;fill-opacity:1;fill-rule:nonzero;stroke:none"
         d="m 1709,1982.41 c -18.17,-52.19 -80.99,-118.65 -165.65,-160.37 -3.8,-1.87 -7.61,-3.73 -11.49,-5.5 -0.62,-1.3 -1.37,-2.55 -2.26,-3.74 -2.18,-2.92 -4.32,-5.73 -6.48,-8.59 -5.43,-7.21 -10.8,-14.25 -16.1,-21.12 -62.09,-80.4 -116.39,-136.54 -193.6,-146.52 -8.84,-1.14 -17.99,-1.47 -27.5,-0.97 -61.96,3.25 -138.38,41.46 -232.44,116.06 -1.78,1.41 -3.19,3.1 -4.4,4.89 -94.752,18.04 -174.752,67.21 -206.17,113.92 -6.687,9.94 -4.058,23.41 5.887,30.1 9.93,6.69 23.41,4.05 30.094,-5.89 44.539,-66.19 241.759,-157.21 399.769,-59.22 5.33,3.29 11.84,4.13 17.8,2.3 52.81,-16.22 104.68,-15.35 152.24,-4.25 10.21,2.38 20.2,5.23 29.97,8.49 9.43,3.15 18.63,6.67 27.6,10.52 84.22,36.18 146.61,100.63 161.78,144.16 3.94,11.31 16.32,17.25 27.61,13.35 11.31,-3.94 17.28,-16.3 13.34,-27.62 z m 201.17,230.94 c -51.52,54.84 -126.06,86.01 -169.51,100.55 -12.32,4.13 -18.98,17.48 -14.86,29.81 4.14,12.34 17.46,18.98 29.82,14.86 57.12,-19.12 105.25,-43.56 144.05,-72.32 32.59,-24.16 58.54,-51.39 77.36,-81.25 -6.07,100.76 -36.05,194.24 -68.11,242.81 -54.19,82.1 -90.2,287.75 -161.76,427.15 -4.24,8.26 -8.59,16.32 -13.09,24.07 -4.82,8.31 -9.8,16.28 -14.94,23.92 -0.33,0.49 -0.65,1.02 -0.99,1.51 -43.29,63.53 -185.99,296.85 -602.59,243 -416.601,-53.85 -511.331,-311.34 -537.046,-383.79 -54.512,-153.6 -11.738,-408.93 -47.274,-513.92 -18.339,-54.2 -23.679,-149.86 -5.101,-247.12 12.805,31.8 31.199,62.89 55.168,92.53 31.344,38.76 71.789,75.09 120.883,107.25 10.886,7.12 25.476,4.09 32.605,-6.8 7.129,-10.87 4.09,-25.47 -6.785,-32.6 -53.918,-35.33 -105.387,-83.25 -138.629,-138.82 -21.391,-35.75 -35.183,-74.67 -37.199,-115.47 21.637,-57.64 53.586,-111.03 98.445,-151.01 141.903,-126.46 471.533,-260.41 674.953,-235.17 98.18,13.17 208.5,64.63 309.43,131.7 7.53,5 15,10.07 22.41,15.24 7.41,5.16 14.76,10.39 22.04,15.7 101.42,73.99 189.21,161.22 239.11,236.41 22.01,33.18 36.98,70.64 46.45,109.94 8.4,68.57 -17.02,121.57 -54.84,161.82" /><path
         id="path48"
         style="fill:#ffffff;fill-opacity:1;fill-rule:nonzero;stroke:none"
         d="m 842.688,3168.8 c -58.5,68.15 -350.571,402.12 -495.411,338.94 -133.461,-58.21 115.172,-529.21 173.653,-658.99 53.05,131.24 181.703,265.27 321.758,320.05" /><path
         id="path50"
         style="fill:#ffffff;fill-opacity:1;fill-rule:nonzero;stroke:none"
         d="m 1422.99,909.039 c -41.74,-53.187 -8.92,-89.84 34.4,-112.738 26.31,-13.903 56.48,-22.742 76.22,-27.102 45.12,-9.969 163.75,6.063 242.34,149.86 5.42,9.921 10.61,20.519 15.61,31.691 4.3,9.602 8.36,19.84 12.29,30.422 1.99,5.34 4.14,10.258 6.02,15.848 73.02,216.44 -49.11,487.96 -125.43,544.83 -12.72,9.48 -33.06,-0.47 -44.39,-6.49 -11.33,-6.01 -21.82,-18.19 -19.07,-27.63 11.87,-40.77 15.79,-211.44 -6.39,-298.38 -0.6,-2.34 -1.46,-4.8 -2.16,-7.19 -7.81,-26.51 -21.94,-55.85 -39.98,-86.48 -2.31,-3.92 -4.66,-7.84 -7.08,-11.79 -2.09,-3.15 -4.18,-6.3 -6.33,-9.48 0.12,-0.02 0.24,-0.04 0.37,-0.06 -4.48,-7.1 -9.13,-14.23 -13.91,-21.39 -37.71,-56.49 -83.66,-114.39 -122.51,-163.921" /><path
         id="path52"
         style="fill:#6f2186;fill-opacity:1;fill-rule:nonzero;stroke:none"
         d="m 1581.26,1091.7 -4.93,-8.02 c -4.57,-7.25 -9.32,-14.51 -14.2,-21.83 -35.65,-53.4 -78.16,-107.522 -115.66,-155.28 l -7.75,-9.871 c -12,-15.301 -16.84,-28.988 -14.35,-40.66 3.9,-18.32 25.19,-32.969 42.37,-42.051 27.95,-14.777 59.1,-22.59 71.19,-25.258 3.95,-0.878 10.69,-1.921 20.28,-1.921 59.31,0 143.04,37.261 200.2,141.839 4.96,9.09 9.98,19.274 14.9,30.274 4.12,9.207 8.02,19.066 11.8,29.219 l 2.47,6.379 c 1.14,2.878 2.29,5.77 3.34,8.89 70.4,208.68 -50.51,471.79 -118.43,522.4 -7.87,-0.05 -19.31,-6.11 -23.06,-8.12 -4.05,-2.14 -7.15,-5.29 -8.48,-7.22 11.84,-47.03 16.18,-215.28 -6.99,-306.07 -0.46,-1.8 -1.03,-3.67 -1.62,-5.53 l -0.72,-2.35 c -7.59,-25.73 -20.61,-54.32 -39.79,-87.31 l 0.18,-0.03 -4.58,-7.45 c -1.64,-2.76 -3.31,-5.52 -5.02,-8.29 z m -23.04,-344.891 h -0.01 c -10.6,0 -20.33,0.961 -28.92,2.863 -13.68,3.019 -48.98,11.898 -81.25,28.949 -35.95,19.008 -57.08,42.25 -62.79,69.09 -5.07,23.82 2.34,48.609 22,73.68 l 7.77,9.89 c 35.92,45.75 76.51,97.419 110.66,148.049 l -0.54,0.07 23.56,35.54 c 1.98,3.26 4.28,7.09 6.52,10.9 18.41,31.23 31.2,58.82 38.03,81.97 l 1.96,6.49 c 21.02,82.38 17.77,249.36 6.57,287.84 -5.88,20.2 10.07,40.9 28.88,50.89 11.17,5.92 25.91,12.73 40.87,12.73 9.48,0 17.85,-2.65 24.86,-7.88 88.58,-66 205.4,-350.93 132.44,-567.259 -1.28,-3.781 -2.66,-7.293 -4.06,-10.812 l -2.17,-5.61 c -4.09,-11 -8.32,-21.629 -12.78,-31.617 -5.36,-11.973 -10.85,-23.102 -16.32,-33.113 -82.48,-150.93 -200.93,-162.66 -235.28,-162.66" /><path
         id="path54"
         style="fill:#ffffff;fill-opacity:1;fill-rule:nonzero;stroke:none"
         d="m 1977.85,166.531 c -44.43,109.149 -116.43,134.809 -210.88,139.758 -18.85,0.981 -74.91,3.141 -93.75,3.34 -19.13,0.203 -38.11,0.422 -56.63,1.402 -41.7,2.18 -72.32,7.84 -99.29,18.34 -8.32,3.25 -10.91,9.27 -10.38,19.418 0.47,8.941 13.03,25.402 19.8,33.191 22.11,25.45 209.6,260.27 250.94,472.821 -68.11,-95.93 -156.07,-132.403 -225.07,-128.789 -8.22,0.429 -15.95,1.437 -22.97,2.988 -28.68,6.34 -65.27,16.289 -97.11,32.141 -30.04,14.968 -55.85,35.191 -66.65,62.769 -8.13,20.719 -15.62,61.668 13.26,103.289 17.66,25.442 40.24,51.25 63.11,81.061 10.02,13.05 20,26.68 29.85,40.46 6.81,9.54 13.47,19.11 20,28.77 5.07,7.5 10.06,14.97 14.87,22.44 4.75,7.39 9.41,14.76 13.84,22.05 23.97,39.41 42.63,76.68 49.9,105.18 4.27,16.72 7.58,36.25 10.11,56.96 10.45,85.55 -4.52,225.89 -8.41,246.61 -2.74,14.62 -11.39,18.91 -21.51,18.22 -12.42,-0.84 -27.06,-9.19 -35.82,-15.37 -2.52,-1.78 -5.21,-3.48 -7.89,-5.19 -31.58,-20.09 -75.03,-35.48 -128.49,-43.58 -39.21,-5.94 -83.72,-8 -132.98,-5 -186.7,11.38 -428.591,87.6 -632.239,254.02 -23.539,19.23 -46.332,48.32 -66.371,79.93 -15.34,24.2 -29.012,49.82 -40.125,73.79 -9.672,20.87 -17.457,40.47 -22.59,56.56 -5.797,12.26 -11.512,24.3 -17.18,36.13 -91.398,190.69 -168.918,318.53 -320.882,180.93 -82.7232,-74.91 -105.438,-239.88 31.164,-403.66 116.351,-139.5 296.175,-276.23 557.132,-333.3 -1.578,-16.92 -2.765,-34.32 -3.289,-52.15 -1.668,-56.38 2.825,-115.85 17.371,-170.28 l -0.261,-0.25 25.742,-107.49 C 697.277,1074.31 649.707,1034.52 633.262,974.648 588.227,810.742 794.926,456.73 836.234,407.711 c 7.731,-10.051 14.778,-18.313 11.325,-28.723 -2.934,-8.828 -8.157,-11.156 -17.118,-13.617 -27.918,-7.633 -58.957,-10.051 -100.683,-7.871 -18.5,0.969 -74.485,4.68 -93.535,6.469 -18.754,1.773 -37.649,3.551 -56.512,4.543 -94.434,4.949 -168.723,-13.051 -224.313,-116.953 -13.222,-24.719 -16,-44.219 -8.273,-57.93 12.457,-22.059 54.266,-36.52 114.742,-39.688 67.328,-3.531 153.781,7.27 220.219,27.528 125.172,38.152 226.098,57.113 299.801,70.961 58.893,11.07 119.593,22.492 129.293,35.601 1.35,4.5 2.66,9.141 3.94,13.891 1.97,7.828 4.05,16.25 6.3,25.379 4.83,21.16 9.4,43.918 12.96,67.64 13.83,92.161 29.24,209.52 39.7,232.137 10.45,22.621 32.2,21.602 39.87,0.293 7.22,-20.051 -3.75,-180.461 0.72,-228.91 0.2,-1.902 0.4,-3.813 0.6,-5.691 1.65,-15.321 3.35,-30 5.08,-43.629 4.66,-32.61 10.94,-60.969 19.36,-75.61 20.76,-12.41 68.54,-26.711 115.17,-40.652 71.86,-21.481 170.25,-50.887 290.74,-101.91 63.96,-27.09 148.81,-46.8674 216.12,-50.3987 h 0.02 c 60.47,-3.1719 103.59,6.8516 118.26,27.4807 9.12,12.84 8.4,32.508 -2.17,58.48" /><path
         id="path56"
         style="fill:#ffffff;fill-opacity:1;fill-rule:nonzero;stroke:none"
         d="m 1349.41,3237.21 c 41.63,79.58 253.71,477.04 409.07,448.14 143.14,-26.64 9.33,-531.96 -18.4,-671.58 -88.01,126.33 -237.45,203.31 -390.67,223.44" /><path
         id="path58"
         style="fill:#ffffff;fill-opacity:1;fill-rule:nonzero;stroke:none"
         d="m 1444.02,2637.98 c 0.77,4.4 1.52,8.8 2.52,13.24 5.32,23.54 13.49,45.25 23.66,64.54 16,30.36 37.05,54.57 60.28,69.85 17.07,11.23 35.29,17.48 53.52,17.94 6.73,0.17 13.46,-0.26 20.13,-1.77 12.69,-2.87 24.18,-8.73 34.37,-16.91 34.43,-27.67 53.33,-82.7 49.22,-145.07 -0.9,-13.63 -2.77,-27.56 -5.96,-41.68 -22.08,-97.81 -92.63,-165.22 -157.59,-150.56 -62.01,14 -96.36,97.75 -80.15,190.42" /><path
         id="path60"
         style="fill:#6f2186;fill-opacity:1;fill-rule:nonzero;stroke:none"
         d="m 1586.67,2783.58 -2.18,-0.02 c -14.29,-0.36 -28.77,-5.29 -43.04,-14.66 -20.64,-13.59 -39.17,-35.19 -53.55,-62.47 -9.74,-18.45 -17.08,-38.51 -21.85,-59.61 -0.88,-3.92 -1.56,-7.83 -2.24,-11.74 -14.52,-82.99 13.98,-156.55 64.77,-168 4.44,-1.01 9.03,-1.51 13.62,-1.51 50.81,0 102.43,58.87 120.05,136.96 2.79,12.32 4.64,25.31 5.51,38.59 3.65,55.4 -12.35,104.51 -41.79,128.17 -8.12,6.51 -16.95,10.88 -26.24,12.97 -3.92,0.89 -8.18,1.32 -13.06,1.32 z m -44.47,-358.01 c -7.54,0 -15.09,0.84 -22.43,2.49 -72.81,16.43 -113.85,108.16 -95.46,213.36 0.89,5.09 1.69,9.62 2.72,14.18 5.54,24.56 14.11,47.92 25.48,69.49 17.53,33.23 40.68,59.94 66.97,77.23 20.61,13.54 42.14,20.68 64.01,21.22 l 3.18,0.04 c 7.89,0 15.06,-0.75 21.89,-2.3 15.25,-3.44 29.54,-10.44 42.46,-20.81 40.05,-32.18 61.22,-92.74 56.66,-161.98 -1.01,-15.36 -3.17,-30.41 -6.4,-44.77 -22.01,-97.44 -88.9,-168.15 -159.08,-168.15" /><path
         id="path62"
         style="fill:#ffffff;fill-opacity:1;fill-rule:nonzero;stroke:none"
         d="m 889.281,2375.26 c -62.683,-22.47 -140.922,35.85 -174.75,130.25 -8.015,22.37 -12.718,44.74 -14.543,66.19 -3.109,36.5 2.403,70.19 15.364,96.43 11.546,23.38 28.906,40.9 51.437,48.97 62.688,22.46 140.926,-35.85 174.75,-130.25 33.824,-94.4 10.43,-189.13 -52.258,-211.59" /><path
         id="path64"
         style="fill:#6f2186;fill-opacity:1;fill-rule:nonzero;stroke:none"
         d="m 794.832,2701.91 c -7.394,0 -14.551,-1.23 -21.289,-3.64 -21.086,-7.56 -33.535,-25.38 -40.266,-38.99 -11.367,-23.03 -16.113,-53.53 -13.359,-85.88 1.75,-20.58 6.27,-41.14 13.437,-61.14 25.293,-70.59 79.083,-121.82 127.891,-121.82 7.395,0 14.551,1.23 21.289,3.64 23.809,8.53 41.438,31.54 49.649,64.79 8.945,36.19 5.578,79.23 -9.473,121.23 -25.293,70.58 -79.07,121.81 -127.879,121.81 z m 66.414,-351.47 c -66.172,0 -134.246,60.99 -165.547,148.32 -8.328,23.25 -13.594,47.23 -15.644,71.24 -3.407,40.1 2.597,77.09 17.363,106.99 14.336,29.02 35.988,49.4 62.629,58.94 11.082,3.97 22.781,5.98 34.785,5.98 66.172,0 134.246,-60.99 165.535,-148.32 17.676,-49.31 21.457,-100.56 10.656,-144.31 -11.535,-46.68 -38.164,-79.66 -74.992,-92.86 -11.082,-3.97 -22.781,-5.98 -34.785,-5.98" /><path
         id="path66"
         style="fill:#6f2186;fill-opacity:1;fill-rule:nonzero;stroke:none"
         d="m 860.105,2417.6 c 42.915,8.85 69.262,56.94 58.856,107.43 -10.406,50.48 -53.629,84.24 -96.539,75.39 -42.91,-8.84 -69.262,-56.94 -58.856,-107.42 10.407,-50.49 53.629,-84.24 96.539,-75.4" /><path
         id="path68"
         style="fill:#6f2186;fill-opacity:1;fill-rule:nonzero;stroke:none"
         d="m 1481.05,2607.75 c -12.94,-49.9 10.96,-99.26 53.37,-110.25 42.41,-11 87.28,20.53 100.21,70.43 12.94,49.9 -10.95,99.26 -53.37,110.25 -42.41,11 -87.28,-20.54 -100.21,-70.43" /><path
         id="path70"
         style="fill:#6f2186;fill-opacity:1;fill-rule:nonzero;stroke:none"
         d="m 1238.09,2219.35 c -0.3,-0.04 -0.6,-0.03 -0.9,-0.07 l 1.79,0.23 c -0.3,-0.04 -0.59,-0.12 -0.89,-0.16 20.44,2.54 40.42,1.3 59.39,-2.91 9.13,-2.02 18.03,-4.67 26.59,-8.08 9.11,-3.63 17.89,-7.92 26.18,-12.99 42.24,-25.78 72.7,-69.29 79.46,-121.58 4.87,-37.69 -3.49,-74.02 -21.29,-104.78 -4.9,-8.47 -10.49,-16.5 -16.77,-24.02 -5.9,-7.05 -12.25,-13.75 -19.24,-19.81 -24.73,-21.45 -55.96,-36.17 -91.01,-40.88 0.3,0.04 0.6,0.03 0.9,0.07 l -1.79,-0.23 c 0.3,0.04 0.59,0.12 0.89,0.16 -94.01,-11.66 -179.69,53.31 -191.61,145.56 -11.93,92.25 54.42,176.87 148.3,189.49" /><path
         id="path72"
         style="fill:#6f2186;fill-opacity:1;fill-rule:nonzero;stroke:none"
         d="m 1073.48,711.469 c 105.44,28.363 142.61,303.521 11.65,376.431 -130.97,72.92 1.85,298.38 144.88,373.22 -112.77,-139.4 0.23,-242.66 108.71,-326.66 108.47,-84.01 7.3,-350.901 -265.24,-422.991" /><path
         id="path74"
         style="fill:#ffffff;fill-opacity:1;fill-rule:nonzero;stroke:none"
         d="m 1471.13,2580.92 c 46.67,-40 128.33,-58.34 155,-45 l 15,22.5 6.25,45 -10,63.75 -21.25,30 -51.25,11.25 -43.75,-18.75 -25,-27.5 -21.25,-28.75 -10,-40" /><path
         id="path76"
         style="fill:#ffffff;fill-opacity:1;fill-rule:nonzero;stroke:none"
         d="m 2609.97,2187.05 c -353.84,338.87 -89.96,565.49 -50.37,1016.93 34.82,397.15 -98.16,733.36 -335.68,778.07 -83.97,15.8 -104.77,-40.04 -74.77,-100.04 30,-60 96.95,-500.88 -403.05,-900.88" /><path
         id="path78"
         style="fill:#6f2186;fill-opacity:1;fill-rule:nonzero;stroke:none"
         d="m 2582.31,2158.16 c -262.51,251.41 -204.24,456.75 -136.77,694.53 29.24,103.05 62.38,219.86 74.22,354.79 33.88,386.58 -93.65,695.81 -303.25,735.25 -23.28,4.38 -35.67,0.75 -38.33,-2.77 -3.32,-4.39 -3.41,-19.73 6.75,-40.06 19.14,-38.29 44.39,-174.35 0.25,-350.55 -38.32,-153 -141.28,-381.21 -414.09,-599.45 l -49.98,62.47 c 475.45,380.35 417.46,801.37 392.26,851.75 -23.12,46.25 -22.76,92.62 0.97,124.04 13.63,18.06 46.98,46.34 116.98,33.2 127.03,-23.91 233.37,-123.59 299.44,-280.67 61.93,-147.23 86.32,-339.08 68.68,-540.2 -12.49,-142.48 -46.73,-263.17 -76.95,-369.64 -67.8,-238.95 -112.59,-396.81 115.15,-614.91 l -55.33,-57.78" /></g></g></svg>