<?xml version="1.0" encoding="UTF-8" standalone="no"?>
<svg
   xmlns:dc="http://purl.org/dc/elements/1.1/"
   xmlns:cc="http://creativecommons.org/ns#"
   xmlns:rdf="http://www.w3.org/1999/02/22-rdf-syntax-ns#"
   xmlns:svg="http://www.w3.org/2000/svg"
   xmlns="http://www.w3.org/2000/svg"
   viewBox="0 0 417.01251 470.86249"
   height="470.86249"
   width="417.01251"
   xml:space="preserve"
   version="1.1"
   id="svg2"><metadata
     id="metadata8"><rdf:RDF><cc:Work
         rdf:about=""><dc:format>image/svg+xml</dc:format><dc:type
           rdf:resource="http://purl.org/dc/dcmitype/StillImage" /></cc:Work></rdf:RDF></metadata><defs
     id="defs6"><clipPath
       id="clipPath18"
       clipPathUnits="userSpaceOnUse"><path
         id="path20"
         d="m 0,0 3336,0 0,3766.86 -3336,0 L 0,0 Z" /></clipPath></defs><g
     transform="matrix(1.25,0,0,-1.25,0,470.8625)"
     id="g10"><g
       transform="scale(0.1,0.1)"
       id="g12"><g
         id="g14"><g
           clip-path="url(#clipPath18)"
           id="g16"><path
             id="path22"
             style="fill:#ffffff;fill-opacity:1;fill-rule:nonzero;stroke:none"
             d="m 790.402,1632.95 -92.203,-82.4 -125.554,-68.66 -145.172,-43.16 -156.942,-31.39 -107.898,-37.27 -105.9377,-74.55 -17.6562,-90.24 15.6953,-94.17 58.8556,-58.85 176.558,-49.04 147.133,37.27 221.684,113.78 131.437,131.44 109.864,162.83 9.808,103.98 -119.672,80.43" /><path
             id="path24"
             style="fill:#ffffff;fill-opacity:1;fill-rule:nonzero;stroke:none"
             d="m 2932.16,2051.17 c -229.94,167.97 -346.23,370.94 -336.3,586.99 12.55,273.53 221.92,557.59 560.05,759.86 10.12,6.05 15.03,18.04 12.07,29.45 -2.96,11.4 -12.67,19.37 -24.87,19.87 -361.84,11.3 -814.5,-194.91 -1149.9,-480.21 l 3.57,-5.29 c 3.99,-5.86 7.86,-11.92 11.66,-18.1 4.66,-7.59 9.16,-15.45 13.55,-23.47 42.49,-77.56 72.47,-173.29 99.38,-259.42 21.96,-70.33 44.69,-143.05 66.74,-176.46 70.52,-106.85 134.03,-391.87 9.56,-579.49 -53.78,-81.03 -143.69,-170.71 -247.35,-247.28 -7.27,-5.37 -14.61,-10.68 -22.01,-15.91 -7.3,-5.16 -14.65,-10.25 -22.06,-15.27 133.02,-140.64 207.09,-287.36 224.46,-444.52 22.56,-204.221 -49.92,-432.971 -221.56,-699.33 -5.58,-8.649 -5.65,-19.75 -0.19,-28.469 4.64,-7.41 12.56,-11.98 21.12,-12.43 1.5,-0.082 3.04,-0.031 4.56,0.149 344.02,41.441 649.31,149.66 882.85,312.949 215.11,150.402 362.81,345.151 415.89,548.331 73.6,281.8 -36.18,554.46 -301.22,748.05" /><path
             id="path26"
             style="fill:#6f2186;fill-opacity:1;fill-rule:nonzero;stroke:none"
             d="m 2024.24,1613.26 c 108.36,-133.5 169.39,-272.44 185.98,-422.55 21.76,-197.011 -35.27,-411.62 -174.07,-653.46 285.26,47.949 537.87,144.93 735.5,283.109 199.55,139.52 336.05,318.151 384.33,502.971 64.85,248.32 -33.93,490.06 -271.01,663.25 -252.64,184.54 -380.23,411.12 -369.02,655.25 11.51,251.12 169.84,507.78 432.5,711.47 -272.19,-45.14 -586.27,-192.94 -851.17,-404.1 43.64,-82.7 73.76,-179.09 100.44,-264.5 17.44,-55.8 41.3,-132.22 57.16,-156.24 92.23,-139.75 148.66,-457.97 9.45,-667.78 -53.7,-80.93 -140.18,-169.88 -240.09,-247.42 z m -92.76,-1251.612 -6.09,0.184 c -34.11,1.75 -65.82,20.398 -84.25,49.848 -21.81,34.84 -21.51,79.679 0.76,114.25 161.28,250.289 229.75,461.98 209.3,647.21 -15.47,139.91 -81.89,270.21 -203.07,398.33 l -64.71,68.41 77.98,52.8 c 6.96,4.72 13.87,9.5 20.74,14.36 6.9,4.89 13.81,9.88 20.66,14.95 96.57,71.31 179.75,154.11 228.21,227.15 102.01,153.76 47.12,405.13 -9.66,491.19 -28.31,42.88 -51.64,117.57 -76.35,196.67 -25.49,81.57 -54.37,174.03 -93.16,244.84 -3.75,6.85 -7.58,13.55 -11.57,20.03 -3.1,5.05 -6.3,10.07 -9.6,14.91 l -43.79,64.92 54.5,46.36 c 362.35,308.24 811.86,499.72 1173.12,499.72 10.43,0 20.81,-0.16 31.12,-0.48 48.13,-1.96 87.92,-34 99.8,-79.75 11.79,-45.46 -8.13,-94.06 -48.43,-118.18 -315.06,-188.47 -509.9,-448.23 -521.22,-694.87 -8.63,-187.98 96.35,-367.35 303.58,-518.72 292.98,-214.02 413.78,-517.59 331.43,-832.88 C 3252.91,1061.34 3093.99,850.5 2863.33,689.219 2619.06,518.43 2301.24,405.422 1944.22,362.422 c -4.56,-0.531 -8.66,-0.774 -12.74,-0.774" /><path
             id="path28"
             style="fill:#ffffff;fill-opacity:1;fill-rule:nonzero;stroke:none"
             d="m 1932.79,1982.42 c -18.17,-52.2 -80.98,-118.65 -165.65,-160.38 -3.8,-1.87 -7.6,-3.73 -11.49,-5.5 -0.61,-1.29 -1.36,-2.55 -2.26,-3.74 -2.18,-2.91 -4.32,-5.72 -6.48,-8.59 -5.43,-7.2 -10.8,-14.25 -16.1,-21.11 -62.08,-80.4 -116.39,-136.55 -193.6,-146.53 -8.84,-1.14 -17.99,-1.46 -27.5,-0.97 -61.96,3.25 -138.38,41.47 -232.43,116.06 -1.79,1.42 -3.19,3.1 -4.41,4.89 -94.75,18.05 -174.75,67.21 -206.17,113.93 -6.68,9.93 -4.06,23.41 5.89,30.09 9.93,6.69 23.41,4.06 30.09,-5.89 44.54,-66.18 241.76,-157.2 399.77,-59.22 5.33,3.3 11.84,4.13 17.81,2.3 52.8,-16.22 104.67,-15.34 152.24,-4.24 10.2,2.38 20.19,5.22 29.96,8.48 9.43,3.15 18.64,6.67 27.6,10.52 84.22,36.18 146.61,100.63 161.78,144.17 3.94,11.31 16.33,17.25 27.61,13.34 11.31,-3.94 17.28,-16.3 13.34,-27.61 z m -470.91,236.93 c -0.3,-0.03 -0.59,-0.03 -0.89,-0.07 l 1.78,0.24 c -0.3,-0.04 -0.59,-0.12 -0.89,-0.17 20.44,2.54 40.42,1.3 59.4,-2.9 9.12,-2.02 18.02,-4.68 26.58,-8.09 9.11,-3.62 17.89,-7.92 26.19,-12.98 42.23,-25.79 72.69,-69.3 79.45,-121.58 4.87,-37.69 -3.49,-74.02 -21.29,-104.78 -4.9,-8.47 -10.49,-16.51 -16.77,-24.02 -5.9,-7.06 -12.25,-13.76 -19.24,-19.82 -24.73,-21.44 -55.96,-36.16 -91.01,-40.87 0.3,0.03 0.6,0.03 0.9,0.07 l -1.79,-0.23 c 0.31,0.04 0.59,0.12 0.89,0.16 -94.01,-11.67 -179.69,53.3 -191.61,145.55 -11.92,92.25 54.42,176.87 148.3,189.49 z m 672.08,-5.99 c -51.52,54.84 -126.06,86.01 -169.5,100.55 -12.33,4.12 -18.99,17.47 -14.86,29.8 4.13,12.35 17.45,18.99 29.82,14.86 57.11,-19.11 105.24,-43.56 144.04,-72.32 32.59,-24.16 58.54,-51.38 77.36,-81.24 -6.07,100.75 -36.05,194.23 -68.11,242.81 -54.19,82.1 -90.2,287.74 -161.76,427.14 -4.24,8.26 -8.58,16.33 -13.08,24.08 -4.82,8.3 -9.8,16.28 -14.95,23.91 -0.33,0.5 -0.65,1.02 -0.99,1.51 -43.29,63.54 -185.99,296.85 -602.59,243 -416.602,-53.84 -511.328,-311.33 -537.043,-383.79 -54.512,-153.6 -11.742,-408.93 -47.274,-513.92 -18.343,-54.2 -23.683,-149.85 -5.101,-247.12 12.805,31.81 31.199,62.9 55.168,92.54 31.34,38.76 71.789,75.08 120.883,107.25 10.886,7.11 25.476,4.08 32.601,-6.8 7.129,-10.88 4.094,-25.48 -6.781,-32.61 -53.918,-35.32 -105.387,-83.25 -138.629,-138.81 -21.391,-35.76 -35.184,-74.68 -37.203,-115.48 21.637,-57.63 53.586,-111.02 98.449,-151 141.9,-126.46 471.53,-260.42 674.96,-235.18 98.17,13.17 208.5,64.63 309.42,131.7 7.53,5 15,10.08 22.41,15.24 7.41,5.17 14.76,10.39 22.04,15.7 101.42,73.99 189.21,161.22 239.11,236.42 22.01,33.18 36.98,70.64 46.45,109.93 8.4,68.58 -17.01,121.58 -54.84,161.83" /><path
             id="path30"
             style="fill:#6f2186;fill-opacity:1;fill-rule:nonzero;stroke:none"
             d="m 1472.14,2140 c -49.94,-6.92 -85.46,-51.65 -79.22,-99.89 6.15,-47.66 52.01,-82.53 102.03,-76.45 18.31,2.53 35.19,10.12 48.84,21.96 3.27,2.83 6.64,6.34 10.29,10.7 3.24,3.89 6.23,8.19 8.86,12.73 6.83,11.78 14.29,30.77 11.22,54.5 -3.4,26.24 -18.63,49.4 -41.8,63.54 -4.19,2.56 -8.9,4.89 -14.06,6.94 -4.31,1.71 -9.12,3.16 -14.34,4.31 -10.56,2.34 -21.13,2.95 -31.82,1.66 z m -11.02,-410.71 c 22.93,-9.57 40.16,-13.13 52.79,-13.8 4.49,-0.23 8.84,-0.11 13.04,0.42 20.78,2.69 40.34,11.57 62.38,29.71 -22.72,0.86 -45.25,3.84 -67.34,8.91 -19.54,-10.29 -39.86,-18.71 -60.87,-25.24 z m -603.593,210.87 c 18.274,-43 41.809,-77.5 70.11,-102.72 71.672,-63.88 202.063,-132.46 335.013,-175.29 -8.92,6.57 -18,13.44 -27.21,20.64 -101.27,24.14 -191.96,78.89 -235.12,143.03 -15.164,22.56 -20.632,49.63 -15.425,76.26 5.21,26.69 20.515,49.73 43.075,64.9 16.78,11.3 36.41,17.29 56.71,17.29 33.92,0 65.48,-16.8 84.4,-44.96 10.46,-15.55 64.69,-52.62 136.92,-63.69 -38.29,37.73 -64.49,87.7 -71.76,143.99 -17.37,134.43 78.41,258.74 213.95,278.6 l 2.4,0.39 0,-0.01 4.13,0.47 c 27.79,3.17 56.18,1.62 83.83,-4.49 13.59,-3.02 26.66,-7.01 38.89,-11.88 13.56,-5.38 26.46,-11.8 38.33,-19.05 64.74,-39.52 107.42,-104.98 117.06,-179.58 6.98,-53.95 -3.87,-107.58 -31.38,-155.11 -0.42,-0.73 -0.85,-1.47 -1.28,-2.19 69.35,30.31 110.57,80.32 116.12,96.24 14.24,40.82 52.84,68.23 96.06,68.23 11.34,0 22.53,-1.88 33.27,-5.59 53.07,-18.53 81.14,-76.58 62.74,-129.5 -26.09,-74.92 -104.01,-153.9 -199.52,-202.68 -4.94,-6.54 -9.86,-12.98 -14.72,-19.27 -3.29,-4.26 -6.61,-8.52 -9.95,-12.78 10.08,6.23 20.2,12.72 30.34,19.46 7.05,4.68 14.03,9.43 20.95,14.25 6.96,4.85 13.82,9.72 20.59,14.67 92.6,67.55 174.69,148.3 219.63,216.03 14.87,22.4 26.34,49.2 34.17,79.74 3.23,35.18 -7.71,64.84 -34.19,93.02 -40.25,42.85 -102.85,68.17 -136.58,79.45 -54.18,18.16 -83.46,76.96 -65.34,131.1 14.14,42.25 53.6,70.67 98.17,70.67 11.18,0 22.23,-1.81 32.86,-5.35 19.08,-6.39 37.44,-13.37 55.02,-20.92 -30.26,50.35 -52.57,121.76 -78.16,203.63 -24.28,77.69 -49.38,158.01 -81.85,221.27 -3.6,7 -7.28,13.85 -11.1,20.44 -3.91,6.74 -7.94,13.2 -12.1,19.38 l -5.32,7.92 c -38.58,57.24 -141.07,209.29 -412.75,209.29 -34.58,0 -71.23,-2.47 -108.91,-7.33 -246.46,-31.86 -405.225,-143.29 -471.916,-331.22 -25.594,-72.13 -25.957,-182.15 -26.266,-279.21 -0.285,-88.01 -0.539,-164.73 -17.258,-222.83 15.195,11.98 31.192,23.47 47.957,34.46 16.977,11.09 36.567,16.93 56.731,16.93 35.047,0 67.432,-17.49 86.642,-46.79 31.3,-47.76 17.9,-112.07 -29.853,-143.37 -49.035,-32.12 -89.453,-72.25 -113.821,-112.98 -12.761,-21.33 -20.898,-42.44 -24.289,-62.96 z m -186.179,67.46 c -19.922,104.25 -16.895,214.51 7.89,287.78 11.7,34.55 11.946,109.93 12.18,182.82 0.359,109.85 0.762,234.36 35.484,332.21 110.215,310.58 388.308,408.73 602.188,436.37 44.45,5.75 88,8.66 129.42,8.66 356.78,0 498.77,-210.64 545.43,-279.87 l 5.79,-8.63 c 5.66,-8.39 11.6,-17.89 17.33,-27.78 5.17,-8.89 10.18,-18.17 15.05,-27.67 38.76,-75.49 67.17,-166.41 92.24,-246.62 21.69,-69.41 44.12,-141.18 65.12,-173 42.93,-65.05 74.81,-175.76 81.2,-282.07 l 18.74,-311.23 -49.75,78.92 c -10.91,-29 -24.51,-55.82 -40.66,-80.15 -55.68,-83.93 -149.95,-177.53 -258.62,-256.81 -7.74,-5.65 -15.58,-11.23 -23.5,-16.74 -7.84,-5.47 -15.81,-10.88 -23.83,-16.21 -84.56,-56.2 -212.74,-126.87 -343.05,-144.34 -20.57,-2.56 -41.71,-3.81 -63.62,-3.81 l -0.01,0 c -230.35,0.01 -554.198,115.1 -675.186,258.54 -54.254,64.32 -136.36,239.95 -149.836,289.63" /><path
             id="path32"
             style="fill:#ffffff;fill-opacity:1;fill-rule:nonzero;stroke:none"
             d="m 1066.48,3168.81 c -58.5,68.14 -350.57,402.11 -495.41,338.94 -133.465,-58.21 115.172,-529.21 173.653,-658.99 53.05,131.23 181.703,265.26 321.757,320.05" /><path
             id="path34"
             style="fill:#6f2186;fill-opacity:1;fill-rule:nonzero;stroke:none"
             d="m 611.816,3435.66 c -6.992,-39.45 15.926,-145.47 140.508,-415.1 51.153,67.47 115.703,127.39 185.774,171.9 -155.364,166.76 -273.332,242.69 -326.282,243.2 z m 136.907,-790.5 -76.938,170.72 c -7.312,16.25 -17.683,37.94 -29.922,63.57 -141.804,296.96 -220.957,504.44 -177.461,621.06 13.989,37.5 39.817,65.35 74.692,80.57 22.176,9.68 46.472,14.58 72.207,14.58 160.496,0 369.121,-203.79 515.879,-374.75 l 73.43,-85.54 -104.99,-41.07 C 981.809,3049.78 865.43,2933.9 818.895,2818.77 l -70.172,-173.61" /><path
             id="path36"
             style="fill:#ffffff;fill-opacity:1;fill-rule:nonzero;stroke:none"
             d="m 1646.78,909.039 c -41.74,-53.187 -8.92,-89.84 34.4,-112.73 26.31,-13.899 56.48,-22.739 76.22,-27.11 45.12,-9.969 163.76,6.063 242.34,149.871 5.42,9.922 10.61,20.512 15.61,31.68 4.3,9.609 8.36,19.852 12.3,30.43 1.98,5.332 4.13,10.25 6.01,15.84 73.02,216.45 -49.11,487.97 -125.43,544.83 -12.71,9.48 -33.06,-0.47 -44.39,-6.48 -11.33,-6.02 -21.82,-18.19 -19.07,-27.64 11.87,-40.77 15.79,-211.43 -6.39,-298.38 -0.6,-2.34 -1.45,-4.8 -2.16,-7.19 -7.81,-26.51 -21.93,-55.85 -39.98,-86.48 -2.31,-3.91 -4.66,-7.84 -7.08,-11.78 -2.09,-3.16 -4.18,-6.31 -6.33,-9.48 0.12,-0.02 0.25,-0.04 0.37,-0.06 -4.48,-7.1 -9.13,-14.23 -13.91,-21.4 -37.71,-56.48 -83.66,-114.39 -122.51,-163.921" /><path
             id="path38"
             style="fill:#6f2186;fill-opacity:1;fill-rule:nonzero;stroke:none"
             d="m 1716.42,868.199 c 0.68,-0.371 1.39,-0.758 2.13,-1.148 22.1,-11.68 48.54,-18.059 56.12,-19.731 0,0 2.42,-0.511 7.33,-0.511 14.55,0 90,5.332 147.54,110.632 4.21,7.688 8.52,16.45 12.8,26.008 3.61,8.063 7.01,16.701 10.33,25.631 l 2.91,7.51 c 0.76,1.94 1.56,3.87 2.27,5.97 36.9,109.38 12.43,237.96 -23.84,331.37 -1.3,-59.24 -6.89,-120.37 -18.11,-164.36 -0.73,-2.84 -1.61,-5.79 -2.54,-8.73 -2.48,-8.38 -5.34,-16.86 -8.62,-25.49 l 10.11,-1.67 -64,-102.03 c -4.84,-7.66 -9.86,-15.37 -15.03,-23.1 -36.93,-55.331 -80.19,-110.421 -118.36,-159.019 l -1.04,-1.332 z M 1782,686.809 c -14.94,0 -29.03,1.453 -41.86,4.281 -19.95,4.41 -59,14.75 -96.34,34.5 -65.29,34.492 -86.86,78.66 -93.45,109.652 -6.15,28.887 -5.33,73.719 33.49,123.188 l 7.78,9.91 c 27.02,34.41 56.71,72.21 83.93,109.96 l 46.2,68.7 c 1.9,3.12 3.76,6.24 5.58,9.33 15.89,26.97 26.72,50.01 32.15,68.45 l 1.27,4.14 c 18.88,73.77 15.17,225.86 7.14,256.72 -13.24,45.44 10.75,95.07 58.43,120.38 17.31,9.2 40.8,19.75 69,19.75 22.38,0 43.38,-6.84 60.73,-19.79 100.82,-75.12 239.05,-380.7 153.41,-634.531 -1.61,-4.777 -3.34,-9.238 -5.09,-13.687 l -1.74,-4.461 c -4.55,-12.25 -9.28,-24.102 -14.24,-35.211 -6.03,-13.43 -12.22,-25.988 -18.44,-37.371 C 1971.62,700.801 1824.7,686.809 1782,686.809" /><path
             id="path40"
             style="fill:#ffffff;fill-opacity:1;fill-rule:nonzero;stroke:none"
             d="m 1297.27,711.469 c 105.45,28.371 142.61,303.521 11.65,376.441 -130.97,72.91 1.85,298.38 144.89,373.22 -112.78,-139.41 0.23,-242.66 108.7,-326.67 108.47,-84.01 7.3,-350.89 -265.24,-422.991 z M 958.402,1424.21 c -1.578,-16.92 -2.765,-34.32 -3.289,-52.15 -1.668,-56.37 2.821,-115.84 17.371,-170.28 l -0.261,-0.24 25.738,-107.5 C 921.07,1074.32 873.496,1034.52 857.055,974.66 812.02,810.738 1018.72,456.742 1060.03,407.719 c 7.73,-10.047 14.77,-18.309 11.32,-28.727 -2.93,-8.832 -8.15,-11.164 -17.12,-13.613 -27.92,-7.629 -58.957,-10.059 -100.679,-7.867 -18.5,0.968 -74.488,4.679 -93.535,6.468 -18.754,1.77 -37.649,3.54 -56.512,4.532 -94.438,4.949 -168.723,-13.043 -224.316,-116.942 -13.223,-24.73 -15.997,-44.23 -8.27,-57.941 12.457,-22.059 54.266,-36.52 114.738,-39.688 67.332,-3.531 153.785,7.27 220.223,27.528 125.171,38.152 226.091,57.121 299.801,70.961 58.89,11.07 119.6,22.5 129.29,35.601 1.35,4.508 2.67,9.141 3.94,13.899 1.97,7.82 4.06,16.242 6.3,25.379 4.83,21.152 9.4,43.91 12.96,67.632 13.83,92.168 29.25,209.52 39.7,232.141 10.45,22.629 32.2,21.609 39.88,0.289 7.21,-20.039 -3.76,-180.449 0.72,-228.902 0.19,-1.91 0.39,-3.809 0.6,-5.699 1.65,-15.321 3.34,-29.989 5.07,-43.622 4.66,-32.609 10.94,-60.976 19.36,-75.617 20.76,-12.402 68.54,-26.699 115.18,-40.64 71.85,-21.481 170.24,-50.891 290.74,-101.911 63.95,-27.101 148.8,-46.8706 216.11,-50.398 l 0.02,0 c 60.48,-3.1718 103.59,6.8477 118.26,27.477 9.12,12.839 8.4,32.511 -2.17,58.48 -44.43,109.141 -116.42,134.801 -210.88,139.75 -18.84,0.992 -74.91,3.141 -93.75,3.34 -19.13,0.211 -38.1,0.43 -56.63,1.402 -41.7,2.188 -72.32,7.84 -99.29,18.348 -8.32,3.25 -10.91,9.269 -10.38,19.422 0.47,8.929 13.04,25.398 19.8,33.179 22.11,25.45 209.6,260.282 250.94,472.829 -68.11,-95.93 -156.07,-132.411 -225.07,-128.789 -8.22,0.429 -15.95,1.441 -22.97,2.992 -28.68,6.328 -65.27,16.277 -97.1,32.136 -30.04,14.961 -55.86,35.192 -66.66,62.774 -8.13,20.719 -15.62,61.668 13.26,103.289 17.66,25.43 40.24,51.238 63.11,81.059 10.02,13.05 20,26.68 29.85,40.46 6.81,9.53 13.47,19.11 20,28.77 5.07,7.49 10.06,14.96 14.87,22.44 4.76,7.39 9.42,14.76 13.84,22.04 23.97,39.41 42.63,76.69 49.91,105.19 4.26,16.72 7.57,36.24 10.1,56.96 10.46,85.54 -4.52,225.89 -8.41,246.61 -2.74,14.62 -11.39,18.9 -21.51,18.22 -12.42,-0.85 -27.06,-9.19 -35.82,-15.38 -2.52,-1.77 -5.2,-3.48 -7.89,-5.19 -31.58,-20.08 -75.03,-35.47 -128.48,-43.57 -39.22,-5.94 -83.73,-8.01 -132.99,-5 -186.7,11.38 -428.59,87.59 -632.236,254.01 -23.539,19.24 -46.336,48.32 -66.371,79.94 -15.34,24.2 -29.016,49.82 -40.125,73.79 -9.672,20.86 -17.457,40.46 -22.59,56.56 -5.797,12.26 -11.512,24.3 -17.18,36.13" /><path
             id="path42"
             style="fill:#6f2186;fill-opacity:1;fill-rule:nonzero;stroke:none"
             d="m 1506.73,1398.48 c -22.3,-32.17 -20.1,-51.09 -19.32,-57.79 6,-51.53 85.75,-113.29 124.08,-142.98 20.58,-15.94 37.09,-35.85 49.24,-58.7 0.93,1.41 1.85,2.84 2.77,4.26 4.34,6.75 8.63,13.52 12.7,20.23 30.28,49.81 38.59,74.95 40.77,83.46 3.17,12.41 5.93,28.17 8.21,46.86 4.75,38.9 3.19,95.25 0.15,141.88 -32.64,-13.72 -69.71,-23.74 -110.88,-29.98 -33.92,-5.15 -70.12,-7.65 -107.72,-7.24 z m -154.21,-155.42 c -10.77,-22.47 -16.95,-43.56 -17.17,-60.52 -0.21,-16.43 4.81,-20.47 12.48,-24.74 77.72,-43.26 123.95,-136.74 124.88,-246.339 26.77,33.277 43.51,68.269 49.88,99.629 5.74,28.3 2.26,51.34 -9.06,60.12 -61.31,47.48 -126.23,102.31 -161.01,171.85 z m -377.032,259.31 69.112,-15.12 -6.54,-70.44 c -1.58,-16.89 -2.55,-32.29 -2.99,-47.11 -1.59,-54.35 3.48,-105.28 14.7,-147.27 l 12.43,-46.54 -1.29,-1.2 33.18,-138.57 -76.25,-19.56 C 946.492,998.262 937.559,965.719 934.188,953.461 902.441,837.898 1071.93,517.73 1121.2,459.27 l 2.26,-2.79 c 11.9,-15.421 40.5,-52.429 23.82,-102.691 -4.49,-13.5 -11.09,-25.141 -19.79,-34.898 22.94,4.57 44.09,8.539 63.41,12.168 21.98,4.132 54.09,10.171 76.66,15.55 4.74,20.84 8.6,40.922 11.5,60.223 2.62,17.457 5.31,35.848 7.99,54.328 13.71,94.051 21.6,145.09 29.94,175.762 l -40.5,151.808 c 9.13,5.059 35.52,48.02 36.18,116.68 0.51,53.692 -16.23,97.89 -42.67,112.59 -61.98,34.51 -95.59,93.68 -94.64,166.62 1.1,83.87 47.96,172.32 110.38,242.19 -178.37,42.01 -258.44,77.39 -401.318,194.15 l 91.066,-118.59 z M 1528.06,332.629 c 21.81,-7.641 52.45,-16.797 73.53,-23.09 20.08,-6.008 42.18,-12.609 66.24,-20.117 -12.12,17.598 -18.26,39.519 -17.01,63.527 0.5,9.571 2.02,38.582 39.28,81.492 22.56,25.95 88.58,112.5 145.58,215.801 -21.01,-3.773 -42.63,-5.211 -63.49,-4.113 -12.6,0.66 -24.74,2.262 -36.06,4.762 -45.85,10.14 -83.64,22.781 -115.5,38.648 -34.16,17.031 -61.05,37.793 -80.4,62.02 -19.11,-16.969 -40.08,-32.977 -62.93,-47.7 15.81,-12 28.34,-28.929 35.72,-49.39 8.14,-22.629 8.37,-47.457 5.8,-143.86 -1.04,-38.8 -2.33,-87.078 -0.69,-104.789 l 0.51,-4.851 c 1.56,-14.418 3.2,-28.59 4.87,-41.77 1.59,-11.09 3.15,-19.808 4.55,-26.57 z M 663.293,236.34 c 7.477,-1.07 16.309,-1.969 26.551,-2.508 59.187,-3.102 135.886,6.828 192.695,24.168 23.457,7.148 46.063,13.648 67.813,19.559 -0.332,0.023 -0.657,0.031 -0.989,0.05 -19.179,1.02 -76.082,4.77 -96.851,6.723 -17.649,1.656 -35.434,3.359 -53.188,4.289 -7.586,0.399 -15.015,0.621 -22.293,0.621 -50.09,0 -83.476,-8.801 -113.738,-52.902 z m 1171.917,-5.141 c 21.01,-8.168 42.81,-16.988 65.4,-26.551 55.21,-23.398 131.2,-41.148 189.11,-44.179 9.66,-0.5 19.07,-0.559 26.81,-0.297 -24.96,46.797 -58.26,62.469 -129.96,66.226 -18.87,0.993 -73.44,3.063 -90.43,3.231 -20.23,0.23 -40.32,0.48 -59.93,1.512 -0.33,0.019 -0.66,0.039 -1,0.058 z M 763.125,2014.83 c 5.73,-11.94 11.516,-24.13 17.371,-36.53 l 3.879,-9.86 c 4.188,-13.12 10.93,-29.89 18.965,-47.23 10.383,-22.43 22.519,-44.76 35.117,-64.62 17.313,-27.32 34.863,-48.92 49.414,-60.8 164.749,-134.63 382.069,-222.61 582.239,-235.84 l 288.75,151.06 -106.99,-132.26 c 16.23,5.81 27.95,11.93 36.14,17.14 1.75,1.11 3.23,2.01 4.6,2.98 17.71,12.5 45.27,27.76 76.6,29.9 l 7.45,0.26 c 49.33,0 88.77,-33.57 98.14,-83.54 4.36,-23.17 21.17,-173.22 9.19,-271.07 -3.1,-25.45 -7.13,-48.01 -11.99,-67.03 -8.84,-34.6 -28.15,-76.14 -59.06,-126.98 -4.76,-7.82 -9.79,-15.78 -14.92,-23.76 -5.16,-8 -10.47,-15.96 -15.86,-23.95 -6.95,-10.25 -13.99,-20.38 -21.19,-30.48 -10.4,-14.548 -20.93,-28.9 -31.47,-42.65 -9.29,-12.101 -18.52,-23.59 -27.44,-34.648 -12.48,-15.492 -24.27,-30.133 -33.44,-43.332 -8.26,-11.918 -7.01,-22.051 -4.5,-28.461 0.94,-2.168 8.04,-10.5 27.87,-20.379 19.72,-9.828 46.19,-18.449 78.67,-25.629 1.9,-0.422 5.13,-0.961 9.91,-1.211 1.72,-0.09 3.43,-0.129 5.17,-0.129 19.43,0 87.67,6.879 150.49,95.348 l 214.5,302.091 -70.75,-363.681 c -34.1,-175.328 -154.16,-357.34 -221.83,-449.187 13.08,-0.43 26.36,-0.582 39.72,-0.723 20.78,-0.231 78.59,-2.481 97.07,-3.438 96.9,-5.082 216.37,-31.211 280.8,-189.5 26.85,-65.972 11.16,-109.8121 -6.73,-134.9801 C 2239.91,20.7695 2185.34,0 2106.85,0 l -0.01,0 c -8.17,0 -16.67,0.230469 -25.48,0.691406 C 2004.29,4.71875 1911.11,26.4297 1838.2,57.3203 1721.7,106.648 1625.79,135.309 1555.76,156.23 c -64.69,19.352 -105.94,32.282 -133.3,48.629 l -17.89,10.692 -10.39,18.07 c -0.07,0.098 -0.13,0.199 -0.19,0.301 -28,-31.59 -75.66,-41.723 -173.54,-60.113 -71.87,-13.5 -170.28,-31.989 -291.251,-68.848 C 854.648,82.2109 758.137,70.0586 681.477,74.0508 589.211,78.8906 528.574,105.891 501.25,154.309 c -15.176,26.941 -26.191,72.183 7.395,134.98 76.714,143.383 189.918,159.953 268.386,159.953 10,0 20.235,-0.293 30.664,-0.844 19.95,-1.039 39.961,-2.898 59.825,-4.769 14.539,-1.379 54.765,-4.098 78.085,-5.527 -79.152,133.07 -210.578,394.386 -165.695,557.738 13.235,48.18 45.766,108.07 123.84,148.09 l -20.227,84.45 1.094,1.02 c -7.215,41.43 -10.476,86.02 -9.746,133.22" /><path
             id="path44"
             style="fill:#ffffff;fill-opacity:1;fill-rule:nonzero;stroke:none"
             d="m 1573.2,3237.22 c 41.64,79.58 253.72,477.04 409.07,448.13 143.15,-26.64 9.33,-531.95 -18.4,-671.58 -88,126.33 -237.45,203.32 -390.67,223.45" /><path
             id="path46"
             style="fill:#6f2186;fill-opacity:1;fill-rule:nonzero;stroke:none"
             d="m 1695.04,3292.93 c 82.99,-24.59 158.6,-63.62 222.45,-114.55 59.17,284.55 57.45,390.98 41.88,427.27 -44,-10.52 -141.69,-100.35 -264.33,-312.72 z m 310.68,-479.18 -107.49,154.29 c -70,100.48 -195.4,171.46 -335.46,189.87 l -113.57,14.92 53.11,101.48 c 171.04,326.83 326.97,492.55 463.46,492.55 10.49,0 20.97,-0.97 31.13,-2.85 37.64,-7.01 69.26,-28.44 91.45,-61.98 68.62,-103.75 40.49,-311.67 -31.32,-635.76 -6.06,-27.39 -11.23,-50.65 -14.69,-68.07 l -36.62,-184.45" /><path
             id="path48"
             style="fill:#ffffff;fill-opacity:1;fill-rule:nonzero;stroke:none"
             d="m 2932.16,2051.17 c -229.94,167.97 -346.23,370.94 -336.3,586.99 12.55,273.53 221.92,557.59 560.05,759.86 10.12,6.05 15.03,18.04 12.07,29.45 -2.96,11.4 -12.67,19.37 -24.87,19.87 -361.84,11.3 -814.5,-194.91 -1149.9,-480.21 l 3.57,-5.29 c 3.99,-5.86 7.86,-11.92 11.66,-18.1 4.66,-7.59 9.16,-15.45 13.55,-23.47 42.49,-77.56 72.47,-173.29 99.38,-259.42 21.96,-70.33 44.69,-143.05 66.74,-176.46 70.52,-106.85 134.03,-391.87 9.56,-579.49 -53.78,-81.03 -143.69,-170.71 -247.35,-247.28 -7.27,-5.37 -14.61,-10.68 -22.01,-15.91 -7.3,-5.16 -14.65,-10.25 -22.06,-15.27 133.02,-140.64 207.09,-287.36 224.46,-444.52 22.56,-204.221 -49.92,-432.971 -221.56,-699.33 -5.58,-8.649 -5.65,-19.75 -0.19,-28.469 4.64,-7.41 12.56,-11.98 21.12,-12.43 1.5,-0.082 3.04,-0.031 4.56,0.149 344.02,41.441 649.31,149.66 882.85,312.949 215.11,150.402 362.81,345.151 415.89,548.331 73.6,281.8 -36.18,554.46 -301.22,748.05" /><path
             id="path50"
             style="fill:#ffffff;fill-opacity:1;fill-rule:nonzero;stroke:none"
             d="m 1516.91,1793.56 c -52.65,-30.5 -109.13,-43.35 -163.93,-44.18 74.02,-51.34 135.19,-75.38 178.67,-69.79 56.69,7.33 100.08,48.29 150.72,111.9 -52.02,-12.18 -108.35,-13.61 -165.46,2.07" /><path
             id="path52"
             style="fill:#ffffff;fill-opacity:1;fill-rule:nonzero;stroke:none"
             d="m 1460.99,2219.28 c 0.3,0.04 0.59,0.04 0.89,0.07 0.3,0.05 0.59,0.13 0.89,0.17 l -1.78,-0.24" /><path
             id="path54"
             style="fill:#ffffff;fill-opacity:1;fill-rule:nonzero;stroke:none"
             d="m 1506.09,1884.38 c -0.3,-0.04 -0.6,-0.04 -0.9,-0.07 -0.3,-0.04 -0.58,-0.12 -0.89,-0.16 l 1.79,0.23" /><path
             id="path56"
             style="fill:#ffffff;fill-opacity:1;fill-rule:nonzero;stroke:none"
             d="m 1932.79,1982.42 c -18.17,-52.2 -80.98,-118.65 -165.65,-160.38 -3.8,-1.87 -7.6,-3.73 -11.49,-5.5 -0.61,-1.29 -1.36,-2.55 -2.26,-3.74 -2.18,-2.91 -4.32,-5.72 -6.48,-8.59 -5.43,-7.2 -10.8,-14.25 -16.1,-21.11 -62.08,-80.4 -116.39,-136.55 -193.6,-146.53 -8.84,-1.14 -17.99,-1.46 -27.5,-0.97 -61.96,3.25 -138.38,41.47 -232.43,116.06 -1.79,1.42 -3.19,3.1 -4.41,4.89 -94.75,18.05 -174.75,67.21 -206.17,113.93 -6.68,9.93 -4.06,23.41 5.89,30.09 9.93,6.69 23.41,4.06 30.09,-5.89 44.54,-66.18 241.76,-157.2 399.77,-59.22 5.33,3.3 11.84,4.13 17.81,2.3 52.8,-16.22 104.67,-15.34 152.24,-4.24 10.2,2.38 20.19,5.22 29.96,8.48 9.43,3.15 18.64,6.67 27.6,10.52 84.22,36.18 146.61,100.63 161.78,144.17 3.94,11.31 16.33,17.25 27.61,13.34 11.31,-3.94 17.28,-16.3 13.34,-27.61 z m 201.17,230.94 c -51.52,54.84 -126.06,86.01 -169.5,100.55 -12.33,4.12 -18.99,17.47 -14.86,29.8 4.13,12.35 17.45,18.99 29.82,14.86 57.11,-19.11 105.24,-43.56 144.04,-72.32 32.59,-24.16 58.54,-51.38 77.36,-81.24 -6.07,100.75 -36.05,194.23 -68.11,242.81 -54.19,82.1 -90.2,287.74 -161.76,427.14 -4.24,8.26 -8.58,16.33 -13.08,24.08 -4.82,8.3 -9.8,16.28 -14.95,23.91 -0.33,0.5 -0.65,1.02 -0.99,1.51 -43.29,63.54 -185.99,296.85 -602.59,243 -416.602,-53.84 -511.328,-311.33 -537.043,-383.79 -54.512,-153.6 -11.742,-408.93 -47.274,-513.92 -18.343,-54.2 -23.683,-149.85 -5.101,-247.12 12.805,31.81 31.199,62.9 55.168,92.54 31.34,38.76 71.789,75.08 120.883,107.25 10.886,7.11 25.476,4.08 32.601,-6.8 7.129,-10.88 4.094,-25.48 -6.781,-32.61 -53.918,-35.32 -105.387,-83.25 -138.629,-138.81 -21.391,-35.76 -35.184,-74.68 -37.203,-115.48 21.637,-57.63 53.586,-111.02 98.449,-151 141.9,-126.46 471.53,-260.42 674.96,-235.18 98.17,13.17 208.5,64.63 309.42,131.7 7.53,5 15,10.08 22.41,15.24 7.41,5.17 14.76,10.39 22.04,15.7 101.42,73.99 189.21,161.22 239.11,236.42 22.01,33.18 36.98,70.64 46.45,109.93 8.4,68.58 -17.01,121.58 -54.84,161.83" /><path
             id="path58"
             style="fill:#ffffff;fill-opacity:1;fill-rule:nonzero;stroke:none"
             d="m 1066.48,3168.81 c -58.5,68.14 -350.57,402.11 -495.41,338.94 -133.465,-58.21 115.172,-529.21 173.653,-658.99 53.05,131.23 181.703,265.26 321.757,320.05" /><path
             id="path60"
             style="fill:#ffffff;fill-opacity:1;fill-rule:nonzero;stroke:none"
             d="m 1646.78,909.039 c -41.74,-53.187 -8.92,-89.84 34.4,-112.73 26.31,-13.899 56.48,-22.739 76.22,-27.11 45.12,-9.969 163.76,6.063 242.34,149.871 5.42,9.922 10.61,20.512 15.61,31.68 4.3,9.609 8.36,19.852 12.3,30.43 1.98,5.332 4.13,10.25 6.01,15.84 73.02,216.45 -49.11,487.97 -125.43,544.83 -12.71,9.48 -33.06,-0.47 -44.39,-6.48 -11.33,-6.02 -21.82,-18.19 -19.07,-27.64 11.87,-40.77 15.79,-211.43 -6.39,-298.38 -0.6,-2.34 -1.45,-4.8 -2.16,-7.19 -7.81,-26.51 -21.93,-55.85 -39.98,-86.48 -2.31,-3.91 -4.66,-7.84 -7.08,-11.78 -2.09,-3.16 -4.18,-6.31 -6.33,-9.48 0.12,-0.02 0.25,-0.04 0.37,-0.06 -4.48,-7.1 -9.13,-14.23 -13.91,-21.4 -37.71,-56.48 -83.66,-114.39 -122.51,-163.921" /><path
             id="path62"
             style="fill:#6f2186;fill-opacity:1;fill-rule:nonzero;stroke:none"
             d="m 1805.05,1091.7 -4.93,-8.01 c -4.57,-7.25 -9.32,-14.52 -14.2,-21.83 -35.65,-53.41 -78.16,-107.528 -115.66,-155.282 l -7.75,-9.879 c -12,-15.301 -16.84,-28.98 -14.35,-40.648 3.9,-18.321 25.19,-32.981 42.37,-42.051 27.96,-14.789 59.1,-22.602 71.19,-25.27 3.95,-0.871 10.69,-1.921 20.28,-1.921 59.31,0 143.04,37.269 200.2,141.851 4.96,9.09 9.98,19.262 14.9,30.262 4.12,9.219 8.02,19.07 11.81,29.226 l 2.46,6.383 c 1.14,2.879 2.29,5.769 3.34,8.879 70.4,208.68 -50.51,471.8 -118.43,522.41 -7.87,-0.05 -19.31,-6.12 -23.06,-8.12 -4.05,-2.15 -7.15,-5.29 -8.47,-7.23 11.83,-47.03 16.17,-215.27 -7,-306.06 -0.46,-1.81 -1.03,-3.67 -1.62,-5.54 l -0.72,-2.34 c -7.59,-25.73 -20.61,-54.33 -39.78,-87.32 l 0.17,-0.03 -4.58,-7.45 c -1.64,-2.75 -3.31,-5.51 -5.02,-8.29 l -1.15,-1.74 z m -23.04,-344.891 -0.01,0 c -10.59,0 -20.33,0.972 -28.91,2.863 -13.69,3.027 -48.99,11.906 -81.25,28.957 -35.96,19 -57.08,42.242 -62.8,69.09 -5.07,23.82 2.34,48.601 22,73.672 l 7.77,9.89 c 35.93,45.758 76.51,97.429 110.66,148.049 l -0.53,0.08 23.55,35.54 c 1.98,3.26 4.28,7.09 6.52,10.89 18.41,31.23 31.2,58.82 38.03,81.98 l 1.96,6.48 c 21.02,82.38 17.77,249.37 6.58,287.84 -5.89,20.21 10.06,40.9 28.87,50.89 11.18,5.93 25.91,12.74 40.87,12.74 9.48,0 17.85,-2.65 24.87,-7.88 88.57,-66 205.4,-350.93 132.43,-567.261 -1.28,-3.777 -2.66,-7.297 -4.06,-10.809 l -2.16,-5.621 c -4.1,-10.988 -8.32,-21.629 -12.79,-31.617 -5.36,-11.961 -10.85,-23.094 -16.32,-33.102 -82.48,-150.929 -200.93,-162.671 -235.28,-162.671" /><path
             id="path64"
             style="fill:#ffffff;fill-opacity:1;fill-rule:nonzero;stroke:none"
             d="m 958.402,1424.21 c -1.578,-16.92 -2.765,-34.32 -3.289,-52.15 -1.668,-56.37 2.821,-115.84 17.371,-170.28 l -0.261,-0.24 25.738,-107.5 C 921.07,1074.32 873.496,1034.52 857.055,974.66 812.02,810.738 1018.72,456.742 1060.03,407.719 c 7.73,-10.047 14.77,-18.309 11.32,-28.727 -2.93,-8.832 -8.15,-11.164 -17.12,-13.613 -27.92,-7.629 -58.957,-10.059 -100.679,-7.867 -18.5,0.968 -74.488,4.679 -93.535,6.468 -18.754,1.77 -37.649,3.54 -56.512,4.532 -94.438,4.949 -168.723,-13.043 -224.316,-116.942 -13.223,-24.73 -15.997,-44.23 -8.27,-57.941 12.457,-22.059 54.266,-36.52 114.738,-39.688 67.332,-3.531 153.785,7.27 220.223,27.528 125.171,38.152 226.091,57.121 299.801,70.961 58.89,11.07 119.6,22.5 129.29,35.601 1.35,4.508 2.67,9.141 3.94,13.899 1.97,7.82 4.06,16.242 6.3,25.379 4.83,21.152 9.4,43.91 12.96,67.632 13.83,92.168 29.25,209.52 39.7,232.141 10.45,22.629 32.2,21.609 39.88,0.289 7.21,-20.039 -3.76,-180.449 0.72,-228.902 0.19,-1.91 0.39,-3.809 0.6,-5.699 1.65,-15.321 3.34,-29.989 5.07,-43.622 4.66,-32.609 10.94,-60.976 19.36,-75.617 20.76,-12.402 68.54,-26.699 115.18,-40.64 71.85,-21.481 170.24,-50.891 290.74,-101.911 63.95,-27.101 148.8,-46.8706 216.11,-50.398 l 0.02,0 c 60.48,-3.1718 103.59,6.8477 118.26,27.477 9.12,12.839 8.4,32.511 -2.17,58.48 -44.43,109.141 -116.42,134.801 -210.88,139.75 -18.84,0.992 -74.91,3.141 -93.75,3.34 -19.13,0.211 -38.1,0.43 -56.63,1.402 -41.7,2.188 -72.32,7.84 -99.29,18.348 -8.32,3.25 -10.91,9.269 -10.38,19.422 0.47,8.929 13.04,25.398 19.8,33.179 22.11,25.45 209.6,260.282 250.94,472.829 -68.11,-95.93 -156.07,-132.411 -225.07,-128.789 -8.22,0.429 -15.95,1.441 -22.97,2.992 -28.68,6.328 -65.27,16.277 -97.1,32.136 -30.04,14.961 -55.86,35.192 -66.66,62.774 -8.13,20.719 -15.62,61.668 13.26,103.289 17.66,25.43 40.24,51.238 63.11,81.059 10.02,13.05 20,26.68 29.85,40.46 6.81,9.53 13.47,19.11 20,28.77 5.07,7.49 10.06,14.96 14.87,22.44 4.76,7.39 9.42,14.76 13.84,22.04 23.97,39.41 42.63,76.69 49.91,105.19 4.26,16.72 7.57,36.24 10.1,56.96 10.46,85.54 -4.52,225.89 -8.41,246.61 -2.74,14.62 -11.39,18.9 -21.51,18.22 -12.42,-0.85 -27.06,-9.19 -35.82,-15.38 -2.52,-1.77 -5.2,-3.48 -7.89,-5.19 -31.58,-20.08 -75.03,-35.47 -128.48,-43.57 -39.22,-5.94 -83.73,-8.01 -132.99,-5 -186.7,11.38 -428.59,87.59 -632.236,254.01" /><path
             id="path66"
             style="fill:#ffffff;fill-opacity:1;fill-rule:nonzero;stroke:none"
             d="m 1573.2,3237.22 c 41.64,79.58 253.72,477.04 409.07,448.13 143.15,-26.64 9.33,-531.95 -18.4,-671.58 -88,126.33 -237.45,203.32 -390.67,223.45" /><path
             id="path68"
             style="fill:#ffffff;fill-opacity:1;fill-rule:nonzero;stroke:none"
             d="m 1667.81,2637.98 c 0.77,4.41 1.52,8.81 2.52,13.25 5.32,23.53 13.49,45.24 23.66,64.54 16.01,30.35 37.05,54.57 60.28,69.85 17.08,11.22 35.29,17.48 53.53,17.93 6.73,0.17 13.46,-0.26 20.13,-1.76 12.69,-2.87 24.18,-8.74 34.36,-16.91 34.43,-27.67 53.34,-82.71 49.22,-145.07 -0.9,-13.63 -2.77,-27.57 -5.95,-41.68 -22.09,-97.82 -92.64,-165.22 -157.6,-150.56 -62,14 -96.36,97.75 -80.15,190.41" /><path
             id="path70"
             style="fill:#6f2186;fill-opacity:1;fill-rule:nonzero;stroke:none"
             d="m 1810.46,2783.59 -2.18,-0.02 c -14.29,-0.36 -28.77,-5.29 -43.04,-14.67 -20.64,-13.58 -39.17,-35.18 -53.55,-62.46 -9.74,-18.46 -17.08,-38.52 -21.85,-59.62 -0.88,-3.92 -1.56,-7.82 -2.24,-11.74 -14.51,-82.99 13.98,-156.54 64.77,-168 4.45,-1 9.04,-1.51 13.63,-1.51 50.81,0 102.42,58.88 120.04,136.96 2.79,12.33 4.64,25.32 5.51,38.6 3.66,55.4 -12.35,104.51 -41.78,128.16 -8.13,6.51 -16.96,10.89 -26.24,12.98 -3.93,0.89 -8.19,1.32 -13.07,1.32 z M 1766,2425.57 c -7.55,0 -15.1,0.84 -22.44,2.49 -72.81,16.44 -113.85,108.17 -95.45,213.37 0.88,5.09 1.68,9.62 2.71,14.18 5.54,24.55 14.11,47.92 25.48,69.48 17.53,33.23 40.68,59.95 66.97,77.24 20.61,13.53 42.14,20.67 64.02,21.22 l 3.17,0.04 c 7.89,0 15.06,-0.75 21.89,-2.3 15.25,-3.44 29.54,-10.45 42.46,-20.82 40.05,-32.17 61.23,-92.73 56.66,-161.98 -1.01,-15.35 -3.17,-30.41 -6.4,-44.76 -22,-97.45 -88.9,-168.16 -159.07,-168.16" /><path
             id="path72"
             style="fill:#ffffff;fill-opacity:1;fill-rule:nonzero;stroke:none"
             d="m 1113.07,2375.26 c -62.68,-22.46 -140.922,35.85 -174.746,130.25 -8.019,22.38 -12.719,44.75 -14.547,66.2 -3.105,36.5 2.407,70.19 15.368,96.43 11.546,23.38 28.902,40.89 51.437,48.97 62.688,22.46 140.928,-35.86 174.748,-130.25 33.83,-94.4 10.43,-189.14 -52.26,-211.6" /><path
             id="path74"
             style="fill:#6f2186;fill-opacity:1;fill-rule:nonzero;stroke:none"
             d="m 1018.62,2701.92 c -7.39,0 -14.55,-1.23 -21.284,-3.64 -21.086,-7.56 -33.535,-25.38 -40.266,-39 -11.367,-23.03 -16.113,-53.52 -13.359,-85.88 1.75,-20.57 6.269,-41.14 13.437,-61.14 25.293,-70.59 79.082,-121.82 127.892,-121.82 7.39,0 14.55,1.23 21.29,3.65 23.81,8.52 41.43,31.54 49.65,64.78 8.94,36.19 5.57,79.24 -9.48,121.23 -25.29,70.59 -79.07,121.82 -127.88,121.82 z m 66.42,-351.48 c -66.17,0 -134.247,61 -165.548,148.32 -8.332,23.26 -13.594,47.23 -15.644,71.24 -3.41,40.1 2.597,77.09 17.363,107 14.336,29.01 35.984,49.39 62.629,58.93 11.082,3.98 22.78,5.99 34.78,5.99 66.17,0 134.25,-61 165.54,-148.32 17.68,-49.32 21.46,-100.57 10.65,-144.32 -11.53,-46.68 -38.16,-79.66 -74.99,-92.85 -11.08,-3.97 -22.78,-5.99 -34.78,-5.99" /><path
             id="path76"
             style="fill:#6f2186;fill-opacity:1;fill-rule:nonzero;stroke:none"
             d="m 1083.9,2417.61 c 42.91,8.84 69.26,56.94 58.85,107.42 -10.4,50.49 -53.63,84.24 -96.54,75.4 -42.91,-8.85 -69.261,-56.94 -58.855,-107.43 10.411,-50.48 53.635,-84.24 96.545,-75.39" /><path
             id="path78"
             style="fill:#6f2186;fill-opacity:1;fill-rule:nonzero;stroke:none"
             d="m 1704.84,2607.75 c -12.94,-49.89 10.96,-99.25 53.37,-110.25 42.41,-11 87.28,20.54 100.22,70.44 12.93,49.89 -10.96,99.25 -53.37,110.25 -42.42,11 -87.28,-20.54 -100.22,-70.44" /><path
             id="path80"
             style="fill:#6f2186;fill-opacity:1;fill-rule:nonzero;stroke:none"
             d="m 1461.88,2219.35 c -0.3,-0.03 -0.59,-0.03 -0.89,-0.07 l 1.78,0.24 c -0.3,-0.04 -0.59,-0.12 -0.89,-0.17 20.44,2.54 40.42,1.3 59.4,-2.9 9.12,-2.02 18.02,-4.68 26.58,-8.09 9.11,-3.62 17.89,-7.92 26.19,-12.98 42.23,-25.79 72.69,-69.3 79.45,-121.58 4.87,-37.69 -3.49,-74.02 -21.29,-104.78 -4.9,-8.47 -10.49,-16.51 -16.77,-24.02 -5.9,-7.06 -12.25,-13.76 -19.24,-19.82 -24.73,-21.44 -55.96,-36.16 -91.01,-40.87 0.3,0.03 0.6,0.03 0.9,0.07 l -1.79,-0.23 c 0.31,0.04 0.59,0.12 0.89,0.16 -94.01,-11.67 -179.69,53.3 -191.61,145.55 -11.92,92.25 54.42,176.87 148.3,189.49" /><path
             id="path82"
             style="fill:#6f2186;fill-opacity:1;fill-rule:nonzero;stroke:none"
             d="m 1297.27,711.469 c 105.45,28.371 142.61,303.521 11.65,376.441 -130.97,72.91 1.85,298.38 144.89,373.22 -112.78,-139.41 0.23,-242.66 108.7,-326.67 108.47,-84.01 7.3,-350.89 -265.24,-422.991" /><path
             id="path84"
             style="fill:#6f2186;fill-opacity:1;fill-rule:nonzero;stroke:none"
             d="m 285.035,980.988 c -54.398,0 -107.504,11.703 -154.519,34.582 -67.1879,32.67 -112.6371,83.42 -124.69959,139.23 -14.03125,64.96 -2.5625,125.39 33.17189,174.76 50.6836,70.01 150.2657,117.58 273.2227,130.51 l 7.84,0.82 c 315.168,32.88 414.996,172.51 481.051,264.9 l 58.574,-41.87 C 674.93,1425.52 457.457,1402.83 327.523,1389.28 l -7.785,-0.81 C 218.602,1377.83 135.449,1340.02 97.3086,1287.33 73.2305,1254.08 66.3242,1215.7 76.1992,1170 96.7734,1074.76 252.742,1040.22 346.871,1059.19 c 223.258,44.95 384.789,173.85 523.766,417.92 l 62.566,-35.63 C 785.039,1181.27 603.25,1037.37 361.086,988.602 c -25.305,-5.09 -50.82,-7.614 -76.051,-7.614" /><path
             id="path86"
             style="fill:#6f2186;fill-opacity:1;fill-rule:nonzero;stroke:none"
             d="m 670.242,2014.89 c 13.817,-90.09 100.297,-260.65 145.34,-317.11 l 11.41,19.22 -6.605,60.66 -106.301,187.98 -43.844,49.25" /><path
             id="path88"
             style="fill:#ffffff;fill-opacity:1;fill-rule:nonzero;stroke:none"
             d="m 840.359,1428.15 c 18.704,26.81 41.774,61.32 59.985,89.01 8.433,12.83 15.886,18.09 27.527,-14.75 2.231,-6.31 0.094,57.37 1.703,60.01 9.258,15.15 -31.98,86.68 -31.98,86.68 l 20.898,13.47 -26.5,13.95 -20.922,8.37 -6.648,22.32 c 5.312,-15.63 -12.41,-34.64 -18.024,-41.7 -18.57,-23.37 -51.753,-62.12 -61.351,-72.68 -12.5,-13.75 15,-128.75 15,-128.75 l 40.312,-35.93" /><path
             id="path90"
             style="fill:#6f2186;fill-opacity:1;fill-rule:nonzero;stroke:none"
             d="m 838.203,1656.78 c 24.082,25.33 34.465,44.84 42.77,60.21 8.304,15.36 -39.032,32.38 -39.032,32.38 l -15.363,-9.13 -5.398,-56.47 14.949,-26.99 2.074,0" /></g></g></g></g></svg>