<?xml version="1.0" encoding="UTF-8" standalone="no"?>
<svg
   xmlns:dc="http://purl.org/dc/elements/1.1/"
   xmlns:cc="http://creativecommons.org/ns#"
   xmlns:rdf="http://www.w3.org/1999/02/22-rdf-syntax-ns#"
   xmlns:svg="http://www.w3.org/2000/svg"
   xmlns="http://www.w3.org/2000/svg"
   viewBox="0 0 322.26251 322.26251"
   height="322.26251"
   width="322.26251"
   xml:space="preserve"
   version="1.1"
   id="svg2"><metadata
     id="metadata8"><rdf:RDF><cc:Work
         rdf:about=""><dc:format>image/svg+xml</dc:format><dc:type
           rdf:resource="http://purl.org/dc/dcmitype/StillImage" /></cc:Work></rdf:RDF></metadata><defs
     id="defs6" /><g
     transform="matrix(1.25,0,0,-1.25,0,322.2625)"
     id="g10"><g
       transform="scale(0.1,0.1)"
       id="g12"><path
         id="path14"
         style="fill:#f2f162;fill-opacity:1;fill-rule:nonzero;stroke:none"
         d="M 2488.12,1289.06 C 2488.12,626.84 1951.28,90 1289.06,90 626.84,90 90.0039,626.84 90.0039,1289.06 c 0,662.22 536.8361,1199.05 1199.0561,1199.05 662.22,0 1199.06,-536.83 1199.06,-1199.05" /><path
         id="path16"
         style="fill:#6f2186;fill-opacity:1;fill-rule:nonzero;stroke:none"
         d="M 1289.06,2398.11 C 677.52,2398.11 180,1900.59 180,1289.06 180,677.52 677.52,180 1289.06,180 c 611.55,0 1109.07,497.52 1109.07,1109.06 0,611.53 -497.52,1109.05 -1109.07,1109.05 z M 1289.06,0 C 578.262,0 0,578.281 0,1289.06 c 0,710.78 578.262,1289.05 1289.06,1289.05 710.8,0 1289.07,-578.27 1289.07,-1289.05 C 2578.13,578.281 1999.86,0 1289.06,0" /><path
         id="path18"
         style="fill:#ffffff;fill-opacity:1;fill-rule:nonzero;stroke:none"
         d="m 1730.79,702.5 c -15.19,-43.609 -67.66,-99.129 -138.4,-133.988 -3.17,-1.563 -6.36,-3.121 -9.6,-4.602 -0.51,-1.078 -1.14,-2.129 -1.89,-3.121 -1.82,-2.437 -3.61,-4.777 -5.41,-7.18 -4.54,-6.007 -9.03,-11.898 -13.45,-17.64 -51.88,-67.168 -97.25,-114.078 -161.76,-122.418 -7.38,-0.949 -15.03,-1.219 -22.97,-0.813 -51.77,2.723 -115.62,34.641 -194.2,96.973 -1.48,1.18 -2.66,2.59 -3.67,4.078 -79.17,15.082 -146.01,56.16 -172.26,95.191 -5.58,8.301 -3.39,19.559 4.92,25.141 8.3,5.59 19.56,3.391 25.15,-4.922 37.21,-55.301 201.98,-131.34 334,-49.48 4.45,2.761 9.89,3.453 14.87,1.922 44.12,-13.551 87.45,-12.821 127.19,-3.539 8.53,1.988 16.88,4.359 25.04,7.089 7.88,2.629 15.57,5.571 23.06,8.789 70.37,30.219 122.49,84.071 135.16,120.442 3.3,9.449 13.64,14.41 23.07,11.148 9.45,-3.289 14.44,-13.621 11.15,-23.07 z m -393.44,197.961 c -0.25,-0.031 -0.5,-0.031 -0.75,-0.063 l 1.5,0.192 c -0.26,-0.031 -0.5,-0.098 -0.75,-0.129 17.07,2.121 33.77,1.078 49.62,-2.43 7.63,-1.691 15.06,-3.91 22.21,-6.75 7.61,-3.031 14.95,-6.621 21.88,-10.851 35.28,-21.551 60.74,-57.899 66.38,-101.578 4.07,-31.493 -2.91,-61.84 -17.78,-87.551 -4.1,-7.071 -8.77,-13.781 -14.01,-20.063 -4.93,-5.898 -10.24,-11.488 -16.08,-16.558 -20.66,-17.918 -46.75,-30.211 -76.04,-34.149 0.26,0.028 0.5,0.028 0.76,0.059 l -1.5,-0.192 c 0.26,0.032 0.49,0.102 0.74,0.133 -78.54,-9.742 -150.12,44.539 -160.09,121.61 -9.96,77.07 45.48,147.769 123.91,158.32 z m 561.52,-5.012 c -43.06,45.821 -105.33,71.86 -141.63,84 -10.29,3.449 -15.86,14.602 -12.41,24.911 3.46,10.31 14.58,15.86 24.91,12.41 47.72,-15.97 87.93,-36.391 120.35,-60.418 27.23,-20.192 48.91,-42.93 64.64,-67.883 -5.08,84.179 -30.13,162.281 -56.92,202.871 -45.27,68.59 -75.36,240.4 -135.14,356.87 -3.55,6.9 -7.17,13.64 -10.93,20.11 -4.03,6.94 -8.19,13.61 -12.49,19.98 -0.28,0.42 -0.54,0.86 -0.82,1.27 -36.17,53.08 -155.4,248.01 -503.46,203.02 -348.064,-44.99 -427.208,-260.12 -448.693,-320.65 -45.543,-128.34 -9.808,-341.66 -39.496,-429.381 -15.324,-45.278 -19.789,-125.2 -4.265,-206.457 10.699,26.57 26.07,52.546 46.093,77.308 26.188,32.391 59.981,62.731 100.996,89.61 9.098,5.941 21.286,3.41 27.243,-5.68 5.953,-9.09 3.418,-21.289 -5.668,-27.238 -45.051,-29.52 -88.051,-69.563 -115.825,-115.981 -17.871,-29.879 -29.394,-62.391 -31.082,-96.48 18.079,-48.153 44.77,-92.762 82.25,-126.161 118.559,-105.66 393.957,-217.582 563.917,-196.488 82.02,10.996 174.2,53.996 258.52,110.028 6.29,4.179 12.53,8.421 18.73,12.742 6.19,4.308 12.33,8.679 18.41,13.109 84.73,61.82 158.08,134.699 199.77,197.527 18.39,27.723 30.9,59.012 38.81,91.852 7.02,57.289 -14.22,101.57 -45.81,135.199" /><path
         id="path20"
         style="fill:#6f2186;fill-opacity:1;fill-rule:nonzero;stroke:none"
         d="m 1345.92,834.16 c -41.74,-5.789 -71.41,-43.148 -66.19,-83.449 5.13,-39.82 43.24,-68.93 85.23,-63.891 15.29,2.121 29.42,8.469 40.82,18.36 2.72,2.34 5.59,5.34 8.58,8.922 2.73,3.257 5.21,6.82 7.4,10.617 5.72,9.883 11.97,25.742 9.39,45.543 -2.83,21.937 -15.56,41.297 -34.92,53.109 -3.5,2.141 -7.42,4.078 -11.74,5.789 -3.63,1.449 -7.61,2.649 -11.95,3.61 -8.85,1.949 -17.68,2.468 -26.62,1.39 z m -9.2,-343.148 c 19.16,-7.992 33.53,-10.973 44.08,-11.512 l 3.67,-0.102 c 2.5,0 4.94,0.141 7.31,0.454 17.32,2.23 33.65,9.648 52.05,24.796 -18.99,0.731 -37.79,3.223 -56.25,7.442 -16.33,-8.59 -33.3,-15.621 -50.86,-21.078 z M 832.422,667.191 c 15.254,-35.921 34.922,-64.742 58.574,-85.812 59.883,-53.367 168.794,-110.649 279.864,-146.43 -7.44,5.461 -15,11.211 -22.7,17.211 -84.62,20.18 -160.406,65.93 -196.441,119.52 -12.676,18.84 -17.246,41.5 -12.871,63.789 4.375,22.293 17.187,41.531 36.054,54.172 13.868,9.379 30.308,14.41 47.308,14.41 28.34,0 54.7,-14.051 70.5,-37.563 8.75,-13 54.05,-43.968 114.4,-53.207 -31.99,31.52 -53.89,73.27 -59.96,120.301 -14.45,111.828 64.84,215.309 177.36,232.547 0.63,0.109 1.25,0.223 1.88,0.32 0.5,0.082 1.05,0.16 1.6,0.223 l 0,0 c 0.08,0.008 0.14,0.019 0.21,0.027 0.47,0.063 0.94,0.121 1.39,0.172 0.41,0.039 0.82,0.078 1.23,0.117 23.42,2.731 47.32,1.442 70.59,-3.687 11.36,-2.52 22.3,-5.86 32.54,-9.949 11.26,-4.481 22.07,-9.84 31.97,-15.903 54.1,-33.019 89.76,-87.711 97.81,-150.027 5.84,-45.051 -3.24,-89.883 -26.23,-129.613 -0.35,-0.61 -0.7,-1.2 -1.07,-1.809 57.98,25.352 92.4,67.121 97.03,80.422 11.83,34.058 44.1,56.988 80.25,56.988 9.47,0 18.81,-1.57 27.77,-4.672 21.61,-7.527 38.83,-22.898 48.7,-43.316 9.88,-20.442 11.19,-43.512 3.71,-64.953 -21.76,-62.508 -86.86,-128.481 -166.66,-169.25 -4.16,-5.508 -8.27,-10.887 -12.33,-16.137 -2.75,-3.562 -5.51,-7.121 -8.3,-10.66 8.44,5.207 16.9,10.629 25.37,16.269 5.9,3.918 11.76,7.899 17.58,11.95 5.65,3.949 11.43,8.058 17.15,12.218 77.32,56.411 145.92,123.871 183.46,180.493 12.42,18.687 22.01,41.089 28.57,66.628 2.68,29.379 -6.44,54.168 -28.57,77.7 -33.62,35.781 -85.94,56.961 -114.12,66.402 -45.2,15.137 -69.69,64.227 -54.61,109.428 11.85,35.4 44.82,59.12 82.05,59.12 9.33,0 18.55,-1.5 27.42,-4.46 15.96,-5.33 31.29,-11.17 45.99,-17.48 -25.29,42.08 -43.92,101.74 -65.29,170.14 -20.29,64.89 -41.25,132.01 -68.38,184.85 -3.02,5.85 -6.13,11.62 -9.33,17.19 -3.23,5.53 -6.59,10.93 -10.06,16.08 -0.26,0.39 -0.94,1.42 -1.19,1.81 l -3.25,4.78 c -32.22,47.84 -117.83,174.9 -344.86,174.9 -28.9,0 -59.53,-2.06 -90.99,-6.14 -205.9,-26.61 -338.56,-119.71 -394.282,-276.72 -21.387,-60.26 -21.68,-152.17 -21.934,-233.26 -0.254,-73.54 -0.449,-137.64 -14.433,-186.199 12.714,10.008 26.074,19.617 40.097,28.801 14.18,9.269 30.547,14.148 47.403,14.148 29.277,0 56.328,-14.621 72.363,-39.101 26.133,-40 14.902,-93.699 -24.981,-119.809 -40.937,-26.82 -74.707,-60.34 -95.058,-94.359 -10.664,-17.813 -17.461,-35.461 -20.293,-52.61 z M 1366.19,265.57 c 0,0 -0.02,0 -0.04,0 -192.46,0.02 -447.048,111.711 -564.099,216.012 -42.969,38.289 -76.738,89.629 -100.352,152.578 -3.203,8.551 -4.629,17.66 -4.179,26.77 0.39,7.922 1.171,15.832 2.324,23.718 -11.66,9.672 -19.981,23.25 -22.969,38.911 -16.641,87.07 -14.121,179.191 6.582,240.41 9.785,28.89 9.981,91.871 10.176,152.781 0.312,91.78 0.644,195.79 29.648,277.53 92.11,259.51 324.429,341.51 503.109,364.6 37.15,4.8 73.53,7.24 108.14,7.24 298.15,0 416.74,-176.04 455.72,-233.88 l 3.42,-5.06 c 0.31,-0.47 1.06,-1.58 1.37,-2.07 l -0.02,-0.01 c 5.55,-8.25 10.1,-15.6 14.53,-23.23 4.34,-7.49 8.5,-15.18 12.56,-23.07 32.4,-63.13 56.13,-139.09 77.07,-206.11 18.12,-57.99 36.87,-117.96 54.41,-144.54 34.81,-52.7 60.92,-141.4 67.33,-227.818 0.68,-3.852 1.05,-7.82 1.05,-11.863 0,-17.43 -6.68,-33.297 -17.61,-45.199 8.24,-28.95 10.54,-59.54 6.68,-91.149 -0.32,-2.539 -0.79,-5.062 -1.37,-7.562 -10.26,-42.387 -26.43,-80.438 -48.13,-113.118 -46.52,-70.14 -125.27,-148.351 -216.05,-214.57 -6.43,-4.691 -12.95,-9.312 -19.49,-13.891 -6.76,-4.679 -13.36,-9.191 -20.04,-13.621 -70.67,-46.961 -177.76,-106.019 -286.62,-120.617 -17.19,-2.121 -34.85,-3.172 -53.15,-3.172" /><path
         id="path22"
         style="fill:#ffffff;fill-opacity:1;fill-rule:nonzero;stroke:none"
         d="m 1007,1693.71 c -48.879,56.93 -292.898,335.96 -413.91,283.18 -111.504,-48.63 96.223,-442.15 145.086,-550.58 44.32,109.65 151.808,221.63 268.824,267.4" /><path
         id="path24"
         style="fill:#6f2186;fill-opacity:1;fill-rule:nonzero;stroke:none"
         d="m 627.129,1916.66 c -5.84,-32.96 13.32,-121.56 117.402,-346.8 42.735,56.37 96.66,106.43 155.196,143.62 -129.786,139.33 -228.36,202.77 -272.598,203.18 z m 114.394,-660.44 -64.277,142.63 c -6.113,13.56 -14.766,31.68 -25,53.09 -118.476,248.11 -184.629,421.46 -148.281,518.9 11.68,31.33 33.262,54.61 62.402,67.32 18.535,8.07 38.828,12.18 60.332,12.18 134.121,0 308.418,-170.27 431.011,-313.1 l 61.35,-71.47 -87.73,-34.31 c -95.08,-37.19 -192.307,-133.99 -231.174,-230.2 l -58.633,-145.04" /><path
         id="path26"
         style="fill:#ffffff;fill-opacity:1;fill-rule:nonzero;stroke:none"
         d="m 1430.35,1750.87 c 34.79,66.49 211.98,398.56 341.77,374.41 119.6,-22.26 7.8,-444.44 -15.36,-561.1 -73.53,105.55 -198.39,169.87 -326.41,186.69" /><path
         id="path28"
         style="fill:#6f2186;fill-opacity:1;fill-rule:nonzero;stroke:none"
         d="m 1532.15,1797.43 c 69.33,-20.56 132.5,-53.17 185.86,-95.72 49.43,237.74 47.99,326.65 34.98,356.98 -36.76,-8.79 -118.4,-83.85 -220.84,-261.26 z m 259.57,-400.35 -89.81,128.89 c -58.47,83.96 -163.26,143.25 -280.27,158.64 l -94.86,12.46 44.35,84.79 c 142.87,273.06 273.15,411.52 387.21,411.52 8.77,0 17.52,-0.81 26.02,-2.39 31.44,-5.85 57.87,-23.76 76.4,-51.79 63.26,-95.63 21.76,-314.85 -26.17,-531.19 -5.08,-22.86 -9.38,-42.29 -12.27,-56.84 l -30.6,-154.09" /><path
         id="path30"
         style="fill:#ffffff;fill-opacity:1;fill-rule:nonzero;stroke:none"
         d="m 1383.33,544.719 c -43.99,-25.489 -91.18,-36.219 -136.97,-36.918 61.85,-42.891 112.95,-62.969 149.28,-58.313 47.37,6.133 83.62,40.352 125.92,93.492 -43.46,-10.171 -90.52,-11.371 -138.23,1.739" /><path
         id="path32"
         style="fill:#ffffff;fill-opacity:1;fill-rule:nonzero;stroke:none"
         d="m 1336.6,900.398 c 0.25,0.032 0.5,0.032 0.75,0.063 0.25,0.031 0.49,0.098 0.75,0.129 l -1.5,-0.192" /><path
         id="path34"
         style="fill:#ffffff;fill-opacity:1;fill-rule:nonzero;stroke:none"
         d="m 1374.29,620.59 c -0.26,-0.031 -0.5,-0.031 -0.76,-0.059 -0.25,-0.031 -0.48,-0.101 -0.74,-0.133 l 1.5,0.192" /><path
         id="path36"
         style="fill:#ffffff;fill-opacity:1;fill-rule:nonzero;stroke:none"
         d="m 1730.79,702.5 c -15.19,-43.609 -67.66,-99.129 -138.4,-133.988 -3.17,-1.563 -6.36,-3.121 -9.6,-4.602 -0.51,-1.078 -1.14,-2.129 -1.89,-3.121 -1.82,-2.437 -3.61,-4.777 -5.41,-7.18 -4.54,-6.007 -9.03,-11.898 -13.45,-17.64 -51.88,-67.168 -97.25,-114.078 -161.76,-122.418 -7.38,-0.949 -15.03,-1.219 -22.97,-0.813 -51.77,2.723 -115.62,34.641 -194.2,96.973 -1.48,1.18 -2.66,2.59 -3.67,4.078 -79.17,15.082 -146.01,56.16 -172.26,95.191 -5.58,8.301 -3.39,19.559 4.92,25.141 8.3,5.59 19.56,3.391 25.15,-4.922 37.21,-55.301 201.98,-131.34 334,-49.48 4.45,2.761 9.89,3.453 14.87,1.922 44.12,-13.551 87.45,-12.821 127.19,-3.539 8.53,1.988 16.88,4.359 25.04,7.089 7.88,2.629 15.57,5.571 23.06,8.789 70.37,30.219 122.49,84.071 135.16,120.442 3.3,9.449 13.64,14.41 23.07,11.148 9.45,-3.289 14.44,-13.621 11.15,-23.07 z m 168.08,192.949 c -43.06,45.821 -105.33,71.86 -141.63,84 -10.29,3.449 -15.86,14.602 -12.41,24.911 3.46,10.31 14.58,15.86 24.91,12.41 47.72,-15.97 87.93,-36.391 120.35,-60.418 27.23,-20.192 48.91,-42.93 64.64,-67.883 -5.08,84.179 -30.13,162.281 -56.92,202.871 -45.27,68.59 -75.36,240.4 -135.14,356.87 -3.55,6.9 -7.17,13.64 -10.93,20.11 -4.03,6.94 -8.19,13.61 -12.49,19.98 -0.28,0.42 -0.54,0.86 -0.82,1.27 -36.17,53.08 -155.4,248.01 -503.46,203.02 -348.064,-44.99 -427.208,-260.12 -448.693,-320.65 -45.543,-128.34 -9.808,-341.66 -39.496,-429.381 -15.324,-45.278 -19.789,-125.2 -4.265,-206.457 10.699,26.57 26.07,52.546 46.093,77.308 26.188,32.391 59.981,62.731 100.996,89.61 9.098,5.941 21.286,3.41 27.243,-5.68 5.953,-9.09 3.418,-21.289 -5.668,-27.238 -45.051,-29.52 -88.051,-69.563 -115.825,-115.981 -17.871,-29.879 -29.394,-62.391 -31.082,-96.48 18.079,-48.153 44.77,-92.762 82.25,-126.161 118.559,-105.66 393.957,-217.582 563.917,-196.488 82.02,10.996 174.2,53.996 258.52,110.028 6.29,4.179 12.53,8.421 18.73,12.742 6.19,4.308 12.33,8.679 18.41,13.109 84.73,61.82 158.08,134.699 199.77,197.527 18.39,27.723 30.9,59.012 38.81,91.852 7.02,57.289 -14.22,101.57 -45.81,135.199" /><path
         id="path38"
         style="fill:#ffffff;fill-opacity:1;fill-rule:nonzero;stroke:none"
         d="m 1007,1693.71 c -48.879,56.93 -292.898,335.96 -413.91,283.18 -111.504,-48.63 96.223,-442.15 145.086,-550.58 44.32,109.65 151.808,221.63 268.824,267.4" /><path
         id="path40"
         style="fill:#ffffff;fill-opacity:1;fill-rule:nonzero;stroke:none"
         d="m 1430.35,1750.87 c 34.79,66.49 211.98,398.56 341.77,374.41 119.6,-22.26 7.8,-444.44 -15.36,-561.1 -73.53,105.55 -198.39,169.87 -326.41,186.69" /><path
         id="path42"
         style="fill:#ffffff;fill-opacity:1;fill-rule:nonzero;stroke:none"
         d="m 1509.4,1250.21 c 0.64,3.68 1.27,7.36 2.11,11.07 4.44,19.66 11.27,37.8 19.77,53.92 13.37,25.36 30.95,45.6 50.36,58.36 14.26,9.38 29.48,14.61 44.72,14.99 5.62,0.14 11.24,-0.22 16.81,-1.48 10.61,-2.39 20.21,-7.29 28.72,-14.13 28.76,-23.11 44.56,-69.1 41.12,-121.2 -0.75,-11.39 -2.31,-23.03 -4.98,-34.82 -18.45,-81.73 -77.39,-138.04 -131.66,-125.79 -51.81,11.69 -80.51,81.67 -66.97,159.08" /><path
         id="path44"
         style="fill:#6f2186;fill-opacity:1;fill-rule:nonzero;stroke:none"
         d="m 1628.55,1371.87 c -13.75,-0.32 -25.84,-4.44 -37.73,-12.27 -17.27,-11.35 -32.75,-29.4 -44.77,-52.19 -8.1,-15.37 -14.23,-32.13 -18.26,-49.82 -0.7,-3.11 -1.23,-6.22 -1.77,-9.31 -12.21,-69.82 11.6,-131.27 54.02,-140.85 44.78,-10.19 95.64,42.04 111.68,113.17 2.34,10.28 3.89,21.12 4.61,32.23 3.06,46.3 -10.31,87.32 -34.9,107.09 -6.78,5.44 -14.16,9.09 -21.94,10.85 -3.28,0.74 -6.85,1.1 -10.94,1.1 z m -37.12,-299.12 c -6.31,0 -12.62,0.69 -18.73,2.08 -60.84,13.73 -95.14,90.37 -79.77,178.26 0.8,4.58 1.45,8.21 2.28,11.89 4.65,20.53 11.8,40.05 21.27,58.01 14.65,27.78 34.01,50.09 55.98,64.53 16.93,11.15 35.43,17.28 53.48,17.74 l 2.61,0.03 c 6.59,0 12.58,-0.63 18.31,-1.93 12.77,-2.89 24.72,-8.74 35.5,-17.39 33.44,-26.89 51.14,-77.48 47.33,-135.33 -0.84,-12.84 -2.66,-25.43 -5.37,-37.41 -18.36,-81.4 -74.24,-140.48 -132.89,-140.48" /><path
         id="path46"
         style="fill:#ffffff;fill-opacity:1;fill-rule:nonzero;stroke:none"
         d="m 1045.93,1030.72 c -52.375,-18.77 -117.742,29.95 -146.004,108.82 -6.699,18.69 -10.625,37.38 -12.153,55.3 -2.597,30.5 2.008,58.64 12.836,80.57 9.649,19.53 24.149,34.17 42.977,40.91 52.375,18.77 117.744,-29.95 146.004,-108.82 28.26,-78.87 8.71,-158.02 -43.66,-176.78" /><path
         id="path48"
         style="fill:#6f2186;fill-opacity:1;fill-rule:nonzero;stroke:none"
         d="m 967.012,1303.64 c -6.172,0 -12.149,-1.03 -17.774,-3.05 -17.636,-6.32 -28.027,-21.2 -33.652,-32.59 -9.492,-19.25 -13.457,-44.72 -11.172,-71.75 1.465,-17.16 5.254,-34.35 11.231,-51.08 21.132,-58.96 66.074,-101.77 106.855,-101.77 6.17,0 12.15,1.03 17.77,3.05 19.91,7.12 34.63,26.35 41.51,54.12 7.46,30.24 4.65,66.2 -7.91,101.29 -21.14,58.97 -66.08,101.78 -106.858,101.78 z m 55.488,-293.66 c -55.293,0 -112.168,50.96 -138.301,123.92 -6.972,19.44 -11.367,39.47 -13.066,59.52 -2.852,33.48 2.148,64.39 14.492,89.38 11.973,24.25 30.059,41.27 52.324,49.26 9.258,3.32 19.043,5 29.063,5 55.288,0 112.168,-50.96 138.298,-123.93 14.77,-41.2 17.93,-84.02 8.91,-120.57 -9.63,-39 -31.9,-66.55 -62.68,-77.58 -9.24,-3.32 -19.02,-5 -29.04,-5" /><path
         id="path50"
         style="fill:#6f2186;fill-opacity:1;fill-rule:nonzero;stroke:none"
         d="m 1021.55,1066.1 c 35.85,7.39 57.87,47.57 49.17,89.75 -8.69,42.18 -44.8,70.38 -80.654,62.99 -35.851,-7.39 -57.867,-47.57 -49.175,-89.75 8.695,-42.18 44.808,-70.38 80.659,-62.99" /><path
         id="path52"
         style="fill:#6f2186;fill-opacity:1;fill-rule:nonzero;stroke:none"
         d="m 1540.34,1224.96 c -10.81,-41.69 9.15,-82.93 44.59,-92.12 35.43,-9.18 72.92,17.16 83.73,58.85 10.81,41.69 -9.16,82.93 -44.59,92.12 -35.44,9.18 -72.92,-17.16 -83.73,-58.85" /><path
         id="path54"
         style="fill:#6f2186;fill-opacity:1;fill-rule:nonzero;stroke:none"
         d="m 1337.35,900.461 c -0.25,-0.031 -0.5,-0.031 -0.75,-0.063 l 1.5,0.192 c -0.26,-0.031 -0.5,-0.098 -0.75,-0.129 17.07,2.121 33.77,1.078 49.62,-2.43 7.63,-1.691 15.06,-3.91 22.21,-6.75 7.61,-3.031 14.95,-6.621 21.88,-10.851 35.28,-21.551 60.74,-57.899 66.38,-101.578 4.07,-31.493 -2.91,-61.84 -17.78,-87.551 -4.1,-7.071 -8.77,-13.781 -14.01,-20.063 -4.93,-5.898 -10.24,-11.488 -16.08,-16.558 -20.66,-17.918 -46.75,-30.211 -76.04,-34.149 0.26,0.028 0.5,0.028 0.76,0.059 l -1.5,-0.192 c 0.26,0.032 0.49,0.102 0.74,0.133 -78.54,-9.742 -150.12,44.539 -160.09,121.61 -9.96,77.07 45.48,147.769 123.91,158.32" /><path
         id="path56"
         style="fill:#ffffff;fill-opacity:1;fill-rule:nonzero;stroke:none"
         d="m 1289.06,2379.9 c -601.482,0 -1090.837,-489.36 -1090.837,-1090.84 0,-601.49 489.355,-1090.841 1090.837,-1090.841 601.49,0 1090.84,489.351 1090.84,1090.841 0,601.48 -489.35,1090.84 -1090.84,1090.84 z m 0,-2237.662 c -632.361,0 -1146.814,514.453 -1146.814,1146.822 0,632.36 514.453,1146.82 1146.814,1146.82 632.37,0 1146.82,-514.46 1146.82,-1146.82 0,-632.369 -514.45,-1146.822 -1146.82,-1146.822" /></g></g></svg>